<?xml version="1.0" encoding="utf-8"?>
<!-- Generator: Adobe Illustrator 17.0.0, SVG Export Plug-In . SVG Version: 6.00 Build 0)  -->
<!DOCTYPE svg PUBLIC "-//W3C//DTD SVG 1.1//EN" "http://www.w3.org/Graphics/SVG/1.1/DTD/svg11.dtd">
<svg version="1.1" id="Layer_1" xmlns="http://www.w3.org/2000/svg" xmlns:xlink="http://www.w3.org/1999/xlink" x="0px" y="0px"
	 width="25px" height="25px" viewBox="0 0 25 25" enable-background="new 0 0 25 25" xml:space="preserve">
<path fill="#007A3E" d="M19.213,24.03c-4.451,0-9.055-2.051-12.631-5.625L6.51,18.329h0.001C2.803,14.591,0.782,9.898,0.89,5.368
	l0.008-0.334l0.207-0.262c0.32-0.406,0.637-0.766,0.968-1.098c1.212-1.211,2.638-2.139,4.239-2.76C6.507,0.839,6.726,0.8,6.965,0.8
	c0.539,0,1.751,0.275,2.06,1.123c0.546,1.51,1.234,3.484,1.736,5.387c0.146,0.545-0.021,1.83-0.739,2.281l-1.769,1.123
	c0.018,0.012,0.011,0.289,0.241,0.604c0.685,0.941,1.479,1.871,2.36,2.766c0.883,0.869,1.81,1.66,2.744,2.34
	c0.182,0.133,0.387,0.209,0.554,0.209c0.058,0,0.092-0.01,0.1-0.014l1.077-1.727c0.482-0.76,1.714-0.781,1.853-0.781
	c0.144,0,0.271,0.012,0.388,0.039c2.328,0.518,3.715,0.967,5.495,1.772c0.789,0.359,1.286,1.791,0.934,2.689
	c-0.614,1.594-1.542,3.02-2.755,4.234c-0.333,0.332-0.704,0.658-1.103,0.971l-0.261,0.203L19.213,24.03z M2.886,5.751
	c0.016,3.861,1.883,8.014,5.039,11.17l0.123,0.127c3.14,3.135,7.209,4.969,11.119,4.982c0.237-0.197,0.46-0.399,0.663-0.602
	c1.013-1.014,1.789-2.207,2.305-3.543c-0.011-0.01-0.05-0.133-0.092-0.23c-1.547-0.688-2.818-1.088-4.91-1.555
	c-0.051,0.006-0.152,0.027-0.233,0.049l-1.005,1.584c-0.629,1.018-2.287,1.174-3.476,0.305c-1.011-0.734-2.014-1.59-2.978-2.541
	c-0.962-0.977-1.82-1.983-2.563-3c-0.489-0.672-0.69-1.469-0.55-2.188c0.108-0.555,0.415-1.014,0.863-1.291l1.581-1.004
	c0.024-0.092,0.043-0.213,0.04-0.273c-0.44-1.65-1.063-3.451-1.577-4.883C7.15,2.827,7.042,2.8,6.965,2.8
	c-1.27,0.5-2.464,1.277-3.477,2.289C3.285,5.292,3.087,5.511,2.886,5.751z"/>
</svg>
