<?xml version="1.0" encoding="utf-8"?>
<!-- Generator: Adobe Illustrator 17.0.0, SVG Export Plug-In . SVG Version: 6.00 Build 0)  -->
<!DOCTYPE svg PUBLIC "-//W3C//DTD SVG 1.1//EN" "http://www.w3.org/Graphics/SVG/1.1/DTD/svg11.dtd">
<svg version="1.1" id="Layer_1" xmlns="http://www.w3.org/2000/svg" xmlns:xlink="http://www.w3.org/1999/xlink" x="0px" y="0px"
	 width="26px" height="26px" viewBox="0 0 26 26" enable-background="new 0 0 26 26" xml:space="preserve">
<g>
	<g>
		<g>
			<path fill="#FFFFFF" d="M13.901,16.406c-0.139,0-0.279-0.043-0.398-0.129l-4.752-3.458c-0.302-0.22-0.368-0.642-0.149-0.944
				c0.219-0.303,0.642-0.368,0.945-0.149l4.354,3.168l4.356-3.168c0.302-0.22,0.724-0.153,0.944,0.149
				c0.219,0.301,0.152,0.723-0.148,0.944l-4.754,3.458C14.18,16.363,14.039,16.406,13.901,16.406z"/>
		</g>
		<g>
			<path fill="#FFFFFF" d="M13.901,16.406c-0.373,0-0.676-0.302-0.676-0.675V5.204c0-0.373,0.303-0.675,0.676-0.675
				c0.374,0,0.675,0.302,0.675,0.675v10.527C14.576,16.104,14.274,16.406,13.901,16.406z"/>
		</g>
	</g>
	<g>
		<path fill="#FFFFFF" d="M19.808,19.975H7.998c-0.373,0-0.675-0.302-0.675-0.675c0-0.375,0.302-0.677,0.675-0.677h11.811
			c0.372,0,0.675,0.302,0.675,0.677C20.483,19.672,20.18,19.975,19.808,19.975z"/>
	</g>
	<g>
		<path fill="#FFFFFF" d="M19.808,19.975c-0.373,0-0.676-0.302-0.676-0.675v-2.987c0-0.374,0.303-0.676,0.676-0.676
			c0.372,0,0.675,0.302,0.675,0.676V19.3C20.483,19.672,20.18,19.975,19.808,19.975z"/>
	</g>
	<g>
		<path fill="#FFFFFF" d="M7.998,19.975c-0.373,0-0.675-0.302-0.675-0.675v-2.987c0-0.374,0.302-0.676,0.675-0.676
			s0.676,0.302,0.676,0.676V19.3C8.674,19.672,8.37,19.975,7.998,19.975z"/>
	</g>
</g>
</svg>
