<?xml version="1.0" encoding="utf-8"?>
<!-- Generator: Adobe Illustrator 17.0.0, SVG Export Plug-In . SVG Version: 6.00 Build 0)  -->
<!DOCTYPE svg PUBLIC "-//W3C//DTD SVG 1.1//EN" "http://www.w3.org/Graphics/SVG/1.1/DTD/svg11.dtd">
<svg version="1.1" id="Layer_1" xmlns="http://www.w3.org/2000/svg" xmlns:xlink="http://www.w3.org/1999/xlink" x="0px" y="0px"
	 width="20px" height="421.938px" viewBox="0 0 20 421.938" enable-background="new 0 0 20 421.938" xml:space="preserve">
<g>
	<g>
		<path fill="#0F8742" d="M10,205c-0.196,0-0.392-0.068-0.551-0.203c-0.835-0.712-8.159-7.089-8.159-11.69
			c0-4.802,3.907-8.709,8.71-8.709s8.71,3.907,8.71,8.709c0,4.601-7.323,10.978-8.159,11.69C10.392,204.932,10.196,205,10,205z
			 M10,186.097c-3.865,0-7.011,3.144-7.011,7.01c0,2.983,4.638,7.776,7.011,9.913c2.373-2.137,7.011-6.929,7.011-9.913
			C17.011,189.242,13.865,186.097,10,186.097z"/>
	</g>
	<g>
		<path fill="#0F8742" d="M10,197.355c-2.342,0-4.248-1.906-4.248-4.248c0-2.342,1.906-4.248,4.248-4.248s4.248,1.906,4.248,4.248
			C14.248,195.449,12.342,197.355,10,197.355z M10,190.558c-1.405,0-2.549,1.143-2.549,2.549s1.143,2.549,2.549,2.549
			s2.549-1.143,2.549-2.549S11.405,190.558,10,190.558z"/>
	</g>
</g>
<g>
	<path fill="#0F8742" d="M10,20.356c-2.519,0-5.061-0.203-7.555-0.604c-0.964-0.181-1.78-1.094-1.88-2.084
		c-0.074-0.7-0.145-1.403-0.211-2.108c-0.098-0.964,0.508-2.081,1.379-2.539c1.622-0.772,3.33-1.306,5.109-1.599L6.815,11.23
		c-0.479-0.406-0.79-0.926-0.836-1.424C5.961,9.641,5.943,9.475,5.924,9.307c-0.399-0.171-0.69-0.548-0.738-1.006L4.979,6.311
		C4.943,5.99,5.036,5.67,5.242,5.414C5.303,5.338,5.373,5.27,5.45,5.21L5.386,4.611c-0.064-0.67-0.214-2.24,1.008-3.329
		C7.211,0.477,8.537,0,10.002,0c1.464,0,2.791,0.477,3.64,1.309c1.191,1.062,1.041,2.631,0.977,3.302l-0.015,0.162
		c-0.016,0.153-0.033,0.298-0.049,0.438c0.075,0.058,0.143,0.125,0.204,0.201c0.206,0.256,0.299,0.577,0.263,0.904L14.816,8.3
		c-0.044,0.458-0.336,0.837-0.739,1.008l-0.061,0.517c-0.036,0.475-0.345,0.995-0.826,1.404l-0.028,0.194
		c1.776,0.293,3.479,0.824,5.075,1.583c0.899,0.47,1.505,1.587,1.41,2.559c-0.064,0.669-0.131,1.337-0.198,2.007l-0.01,0.095
		c-0.104,0.993-0.922,1.906-1.864,2.081C15.061,20.153,12.519,20.356,10,20.356z M6.833,7.588c0.041,0.007,0.082,0.017,0.122,0.03
		c0.316,0.105,0.542,0.384,0.58,0.714l0.016,0.14c0.045,0.388,0.09,0.773,0.132,1.162c0.015,0.053,0.138,0.238,0.39,0.4
		c0.212,0.135,0.354,0.355,0.389,0.604l0.194,1.389c0.033,0.228-0.028,0.461-0.168,0.644C8.347,12.854,8.139,12.972,7.91,13
		c-1.906,0.229-3.727,0.752-5.412,1.553c-0.25,0.132-0.466,0.586-0.441,0.842c0.065,0.705,0.137,1.401,0.21,2.098
		c0.026,0.256,0.287,0.538,0.47,0.573c4.767,0.765,9.737,0.769,14.545-0.004c0.166-0.031,0.426-0.308,0.453-0.568l0.009-0.093
		c0.067-0.667,0.134-1.332,0.197-2.001c0.025-0.26-0.191-0.715-0.471-0.862c-1.656-0.787-3.476-1.31-5.381-1.538
		c-0.229-0.028-0.437-0.146-0.578-0.329c-0.14-0.183-0.201-0.415-0.168-0.644l0.201-1.395c0.036-0.246,0.177-0.463,0.385-0.596
		c0.247-0.159,0.367-0.341,0.384-0.4l0.154-1.307C12.509,8,12.736,7.723,13.051,7.618c0.039-0.013,0.078-0.023,0.118-0.03
		l0.099-0.952c-0.046-0.02-0.091-0.045-0.133-0.074c-0.264-0.18-0.406-0.491-0.369-0.809l0.148-1.306
		c0.064-0.666,0.088-1.417-0.441-1.889c-0.552-0.54-1.465-0.847-2.47-0.847c-1.005,0-1.916,0.306-2.438,0.819
		c-0.56,0.501-0.537,1.25-0.473,1.917l0.147,1.31c0.036,0.317-0.107,0.627-0.371,0.806C6.824,6.592,6.78,6.617,6.734,6.637
		L6.833,7.588z"/>
</g>
<g>
	<g>
		<path fill="#0F8742" d="M9.998,55.96c-2.611,0-5.066-1.017-6.912-2.862c-3.812-3.813-3.811-10.015,0.002-13.827
			c1.846-1.846,4.301-2.862,6.912-2.862s5.067,1.017,6.913,2.862c3.811,3.813,3.811,10.014,0,13.825
			C15.066,54.943,12.61,55.96,9.998,55.96z M10,38.069c-2.168,0-4.206,0.844-5.738,2.376c-3.165,3.165-3.166,8.314-0.002,11.479
			c1.532,1.532,3.57,2.376,5.738,2.376c2.168,0,4.207-0.845,5.741-2.378c3.163-3.164,3.163-8.312,0-11.477
			C14.207,38.913,12.169,38.069,10,38.069z"/>
	</g>
	<g>
		<path fill="#0F8742" d="M9.998,55.96L9.998,55.96c-2.611,0-5.066-1.017-6.912-2.862c-0.24-0.242-0.465-0.491-0.674-0.748
			c-0.216-0.265-0.247-0.636-0.079-0.934c0.226-0.399,0.533-0.707,0.886-0.892c1.287-0.612,2.638-1.041,4.042-1.286
			c-0.384-0.344-0.625-0.769-0.665-1.194c-0.011-0.109-0.024-0.218-0.037-0.329c-0.33-0.17-0.566-0.499-0.607-0.893l-0.169-1.617
			c-0.04-0.375,0.112-0.73,0.374-0.965l-0.043-0.414c-0.055-0.566-0.182-1.89,0.862-2.822c0.685-0.674,1.796-1.076,3.022-1.076
			c1.224,0,2.337,0.402,3.051,1.102c1.012,0.902,0.888,2.224,0.835,2.789l-0.046,0.423c0.263,0.235,0.413,0.588,0.374,0.963
			l-0.169,1.616c-0.037,0.394-0.275,0.725-0.608,0.895l-0.041,0.345c-0.032,0.405-0.272,0.83-0.657,1.176
			c1.402,0.245,2.747,0.671,4.01,1.272c0.385,0.202,0.692,0.512,0.916,0.91c0.168,0.297,0.136,0.666-0.079,0.931
			c-0.209,0.257-0.434,0.506-0.673,0.745C15.067,54.943,12.61,55.96,9.998,55.96z M4.225,51.888
			c0.012,0.013,0.025,0.026,0.038,0.039c1.53,1.53,3.568,2.374,5.735,2.374c2.168,0,4.207-0.845,5.741-2.378
			c0.011-0.012,0.024-0.023,0.035-0.035c-1.265-0.572-2.648-0.954-4.093-1.127c-0.221-0.027-0.423-0.142-0.559-0.319
			c-0.136-0.177-0.195-0.402-0.164-0.623l0.165-1.138c0.036-0.237,0.171-0.446,0.372-0.575c0.158-0.101,0.244-0.22,0.259-0.258
			l0.118-1.033c0.039-0.32,0.259-0.589,0.566-0.69c0.004-0.002,0.008-0.002,0.012-0.004l0.061-0.589
			c-0.015-0.009-0.03-0.018-0.045-0.028c-0.255-0.175-0.391-0.477-0.354-0.784l0.122-1.057c0.05-0.532,0.067-1.079-0.315-1.42
			c-0.429-0.419-1.136-0.654-1.918-0.654s-1.488,0.235-1.888,0.627c-0.413,0.37-0.395,0.918-0.344,1.451l0.118,1.058
			c0.036,0.308-0.104,0.61-0.361,0.783c-0.013,0.009-0.025,0.017-0.038,0.024l0.061,0.589c0.005,0.001,0.01,0.002,0.014,0.004
			c0.306,0.1,0.527,0.37,0.566,0.69c0.042,0.354,0.081,0.706,0.121,1.061c0.007,0.006,0.095,0.125,0.255,0.226
			c0.206,0.13,0.344,0.344,0.378,0.584l0.158,1.128c0.032,0.222-0.026,0.447-0.162,0.625c-0.135,0.178-0.338,0.293-0.56,0.32
			C6.882,50.933,5.507,51.311,4.225,51.888z"/>
	</g>
</g>
<g>
	<g>
		<g>
			<path fill="#0F8742" d="M11.885,89.525c-1.538,0-2.985-0.599-4.072-1.686c-1.088-1.088-1.687-2.534-1.687-4.073
				c0-1.538,0.6-2.984,1.687-4.071c1.087-1.088,2.533-1.687,4.072-1.687s2.985,0.6,4.071,1.688c1.087,1.086,1.687,2.532,1.687,4.07
				c0.001,1.538-0.598,2.984-1.686,4.073C14.87,88.927,13.424,89.525,11.885,89.525z M11.885,79.622
				c-1.108,0-2.148,0.432-2.931,1.215c-0.783,0.783-1.215,1.824-1.215,2.93c0,1.108,0.432,2.149,1.215,2.932
				c0.783,0.782,1.824,1.213,2.931,1.213c1.108,0,2.148-0.431,2.931-1.213c0.782-0.783,1.213-1.825,1.213-2.932
				c0-1.107-0.432-2.147-1.215-2.93C14.032,80.054,12.993,79.622,11.885,79.622z"/>
		</g>
		<g>
			<g>
				<path fill="#0F8742" d="M15.443,81.015c-0.206,0-0.413-0.079-0.57-0.236c-0.315-0.315-0.315-0.826,0-1.141l3.416-3.416
					c0.315-0.315,0.826-0.315,1.141,0c0.315,0.315,0.315,0.826,0,1.141l-3.416,3.417C15.856,80.937,15.65,81.015,15.443,81.015z"/>
			</g>
		</g>
		<g>
			<path fill="#0F8742" d="M18.936,81.512c-0.446,0-0.807-0.361-0.807-0.807v-3.184h-3.183c-0.446,0-0.807-0.361-0.807-0.807
				c0-0.446,0.361-0.807,0.807-0.807h3.989c0.446,0,0.807,0.361,0.807,0.807v3.991C19.743,81.152,19.382,81.512,18.936,81.512z"/>
		</g>
	</g>
	<g>
		<g>
			<path fill="#0F8742" d="M6.016,94.766c-0.446,0-0.807-0.361-0.807-0.807v-4.83c0-0.446,0.361-0.807,0.807-0.807
				c0.446,0,0.807,0.361,0.807,0.807v4.83C6.822,94.406,6.461,94.766,6.016,94.766z"/>
		</g>
	</g>
	<g>
		<g>
			<path fill="#0F8742" d="M3.6,92.352c-0.445,0-0.807-0.361-0.807-0.807c0-0.445,0.361-0.807,0.807-0.807l4.831-0.001
				c0.445,0,0.807,0.361,0.807,0.807c0,0.445-0.361,0.807-0.807,0.807L3.6,92.352z"/>
		</g>
	</g>
	<g>
		<path fill="#0F8742" d="M6.016,89.525c-1.538,0-2.985-0.599-4.072-1.686c-1.088-1.088-1.687-2.534-1.687-4.073
			c0-1.538,0.599-2.984,1.687-4.071c1.087-1.088,2.533-1.687,4.072-1.687s2.985,0.6,4.071,1.688c1.087,1.086,1.687,2.532,1.687,4.07
			c0.001,1.538-0.598,2.984-1.686,4.073C9.001,88.927,7.555,89.525,6.016,89.525z M6.016,79.622c-1.108,0-2.148,0.432-2.931,1.215
			C2.302,81.62,1.87,82.66,1.87,83.767c0,1.108,0.432,2.149,1.215,2.932c0.783,0.782,1.824,1.213,2.931,1.213
			s2.148-0.431,2.931-1.213c0.782-0.783,1.213-1.825,1.213-2.932c0-1.107-0.432-2.147-1.215-2.93
			C8.164,80.054,7.124,79.622,6.016,79.622z"/>
	</g>
</g>
<g>
	<path fill="#0F8742" d="M15.713,128.268c-3.79,0-7.708-1.745-10.75-4.788l-0.06-0.06c-3.133-3.133-4.876-7.156-4.784-11.036
		l0.007-0.284l0.176-0.223c0.273-0.347,0.542-0.652,0.824-0.934c1.033-1.032,2.247-1.822,3.608-2.35
		c0.165-0.064,0.352-0.097,0.555-0.097c0.459,0,1.49,0.234,1.754,0.956c0.465,1.293,1.053,2.978,1.476,4.585
		c0.125,0.464-0.017,1.558-0.628,1.942l-1.504,0.954c0.013,0.012,0.007,0.247,0.203,0.515c0.583,0.8,1.26,1.592,2.009,2.354
		c0.753,0.74,1.543,1.413,2.336,1.991c0.154,0.113,0.328,0.179,0.47,0.179c0.05,0,0.078-0.008,0.086-0.012l0.917-1.472
		c0.416-0.645,1.46-0.663,1.578-0.663c0.122,0,0.23,0.011,0.33,0.033c1.982,0.442,3.163,0.823,4.675,1.509
		c0.672,0.303,1.097,1.523,0.796,2.288c-0.524,1.357-1.314,2.571-2.344,3.603c-0.293,0.29-0.608,0.568-0.939,0.827l-0.222,0.174
		L15.713,128.268z M1.818,112.709c0.013,3.287,1.602,6.82,4.289,9.508l0.064,0.064c2.711,2.711,6.175,4.272,9.504,4.285
		c0.199-0.165,0.388-0.337,0.566-0.514c0.859-0.861,1.519-1.877,1.96-3.015c-0.009-0.007-0.042-0.111-0.078-0.194
		c-1.317-0.587-2.399-0.928-4.179-1.325c-0.044,0.006-0.131,0.023-0.201,0.042l-0.855,1.349c-0.53,0.86-1.943,0.999-2.957,0.258
		c-0.858-0.625-1.711-1.353-2.535-2.162c-0.817-0.832-1.548-1.687-2.18-2.553c-0.417-0.571-0.588-1.249-0.468-1.862
		c0.092-0.472,0.354-0.863,0.736-1.1l1.345-0.853c0.02-0.079,0.036-0.181,0.033-0.233c-0.372-1.394-0.902-2.933-1.341-4.158
		c-0.073-0.027-0.165-0.049-0.231-0.049c-1.08,0.424-2.095,1.086-2.959,1.947C2.157,112.319,1.988,112.505,1.818,112.709z"/>
</g>
<g>
	<g>
		<path fill="#0F8742" d="M17.578,158.62c-0.151,0-0.292-0.03-0.419-0.09c-1.058-0.497-2.431-1.16-3.664-1.877
			c-0.354-0.206-0.962-0.959-0.818-1.606L13,153.612c-0.044-0.053-0.169-0.148-0.38-0.181c-0.844-0.132-1.704-0.2-2.631-0.208
			c-0.899,0.008-1.78,0.077-2.606,0.208c-0.213,0.033-0.338,0.128-0.382,0.18l0.321,1.438c0.149,0.667-0.507,1.406-0.792,1.587
			c-1.466,0.931-2.412,1.416-3.747,1.918c-0.109,0.041-0.227,0.062-0.352,0.062c-0.541,0-1.322-0.407-1.576-0.991
			c-0.506-1.146-0.764-2.363-0.764-3.615c0-0.345,0.023-0.706,0.068-1.072l0.031-0.255l0.177-0.186
			c2.297-2.411,5.794-3.794,9.596-3.794c3.873,0,7.371,1.383,9.67,3.793l0.18,0.19l0.03,0.26c0.044,0.39,0.066,0.737,0.066,1.065
			c-0.001,1.258-0.259,2.476-0.765,3.62C18.896,158.196,18.112,158.62,17.578,158.62z M2.257,156.951
			c0.033,0.027,0.091,0.061,0.142,0.084c1.138-0.439,1.993-0.885,3.297-1.713c0.003-0.008,0.038-0.061,0.069-0.112l-0.294-1.314
			c-0.09-0.377-0.009-0.785,0.229-1.139c0.306-0.455,0.832-0.769,1.444-0.863c0.898-0.142,1.857-0.219,2.846-0.227
			c1.003,0.008,1.964,0.084,2.87,0.226c0.609,0.095,1.136,0.409,1.442,0.863c0.238,0.353,0.319,0.761,0.227,1.148l-0.293,1.308
			c0.032,0.052,0.074,0.109,0.102,0.135c1.051,0.605,2.288,1.208,3.287,1.68c0.055-0.028,0.112-0.065,0.135-0.092
			c0.381-0.882,0.594-1.889,0.595-2.928c0-0.194-0.009-0.401-0.029-0.627c-1.986-1.961-5.061-3.125-8.288-3.125H9.944
			c-3.209,0-6.284,1.164-8.269,3.127c-0.019,0.214-0.029,0.421-0.029,0.626C1.646,155.026,1.852,156.015,2.257,156.951z"/>
	</g>
	<path fill="#0F8742" d="M6.838,158.12c-0.653,0-1.182,0.529-1.182,1.182c0,0.652,0.529,1.182,1.182,1.182
		c0.653,0,1.182-0.529,1.182-1.182C8.019,158.65,7.491,158.12,6.838,158.12L6.838,158.12z"/>
	<path fill="#0F8742" d="M9.929,158.12c-0.653,0-1.182,0.529-1.182,1.182c0,0.652,0.529,1.182,1.182,1.182
		c0.653,0,1.182-0.529,1.182-1.182C11.11,158.65,10.582,158.12,9.929,158.12L9.929,158.12z"/>
	<path fill="#0F8742" d="M13.019,158.12c-0.653,0-1.182,0.529-1.182,1.182c0,0.652,0.529,1.182,1.182,1.182
		c0.653,0,1.182-0.529,1.182-1.182C14.201,158.65,13.673,158.12,13.019,158.12L13.019,158.12z"/>
	<path fill="#0F8742" d="M6.838,161.212c-0.653,0-1.182,0.529-1.182,1.182c0,0.653,0.529,1.182,1.182,1.182
		c0.653,0,1.182-0.529,1.182-1.182C8.019,161.741,7.491,161.212,6.838,161.212L6.838,161.212z"/>
	<path fill="#0F8742" d="M9.929,161.212c-0.653,0-1.182,0.529-1.182,1.182c0,0.653,0.529,1.182,1.182,1.182
		c0.653,0,1.182-0.529,1.182-1.182C11.11,161.741,10.582,161.212,9.929,161.212L9.929,161.212z"/>
	<path fill="#0F8742" d="M13.019,161.212c-0.653,0-1.182,0.529-1.182,1.182c0,0.653,0.529,1.182,1.182,1.182
		c0.653,0,1.182-0.529,1.182-1.182C14.201,161.741,13.673,161.212,13.019,161.212L13.019,161.212z"/>
	<path fill="#0F8742" d="M6.838,164.303c-0.653,0-1.182,0.529-1.182,1.182c0,0.653,0.529,1.182,1.182,1.182
		c0.653,0,1.182-0.529,1.182-1.182C8.019,164.832,7.491,164.303,6.838,164.303L6.838,164.303z"/>
	<path fill="#0F8742" d="M9.929,164.303c-0.653,0-1.182,0.529-1.182,1.182c0,0.653,0.529,1.182,1.182,1.182
		c0.653,0,1.182-0.529,1.182-1.182C11.11,164.832,10.582,164.303,9.929,164.303L9.929,164.303z"/>
	<path fill="#0F8742" d="M13.019,164.303c-0.653,0-1.182,0.529-1.182,1.182c0,0.653,0.529,1.182,1.182,1.182
		c0.653,0,1.182-0.529,1.182-1.182C14.201,164.832,13.673,164.303,13.019,164.303L13.019,164.303z"/>
</g>
<g>
	<g>
		<path fill="#0F8742" d="M17.874,234.576H2.128c-1.128,0-2.045-0.917-2.045-2.044V222.23c0-1.127,0.918-2.044,2.045-2.044h15.746
			c1.127,0,2.044,0.917,2.044,2.044v10.301C19.918,233.659,19.001,234.576,17.874,234.576z M2.128,221.92
			c-0.172,0-0.312,0.139-0.312,0.31v10.301c0,0.171,0.14,0.311,0.312,0.311h15.746c0.171,0,0.31-0.14,0.31-0.311V222.23
			c0-0.171-0.139-0.31-0.31-0.31H2.128z"/>
	</g>
	<g>
		<path fill="#0F8742" d="M17.874,234.142H2.128c-0.662,0-1.266-0.418-1.504-1.04c-0.064-0.168-0.018-0.359,0.116-0.478l6.146-5.481
			c0.179-0.158,0.453-0.144,0.612,0.035c0.16,0.179,0.144,0.453-0.035,0.612l-5.882,5.245c0.138,0.151,0.333,0.24,0.546,0.24h15.746
			c0.209,0,0.405-0.091,0.543-0.24l-5.949-5.305c-0.179-0.159-0.194-0.433-0.035-0.612c0.159-0.179,0.433-0.194,0.612-0.035
			l6.214,5.542c0.134,0.119,0.18,0.309,0.117,0.477C19.141,233.724,18.537,234.142,17.874,234.142z"/>
	</g>
	<g>
		<path fill="#0F8742" d="M10.001,230.247c-0.103,0-0.206-0.036-0.288-0.11l-8.972-7.999c-0.135-0.119-0.181-0.31-0.117-0.478
			c0.237-0.621,0.842-1.04,1.504-1.04h15.746c0.663,0,1.267,0.418,1.503,1.041c0.063,0.168,0.017,0.357-0.117,0.477l-8.97,7.999
			C10.207,230.211,10.104,230.247,10.001,230.247z M1.582,221.727l8.419,7.506l8.417-7.506c-0.138-0.15-0.334-0.24-0.543-0.24H2.128
			C1.915,221.487,1.72,221.577,1.582,221.727z"/>
	</g>
</g>
<g>
	<g>
		<g>
			<path fill="#0F8742" d="M1.853,278.178H0.086c0-3.29,2.85-5.968,6.355-5.968v1.767C3.912,273.978,1.853,275.862,1.853,278.178z"
				/>
		</g>
		<g>
			<path fill="#0F8742" d="M19.914,278.178h-1.767c0-2.316-2.058-4.201-4.588-4.201v-1.767
				C17.063,272.211,19.914,274.888,19.914,278.178z"/>
		</g>
	</g>
	<g>
		<path fill="#0F8742" d="M9.999,272.893L9.999,272.893c-2.684-0.002-4.779-2.601-5.603-6.954c-0.448-2.418,0.03-4.62,1.345-6.201
			c1.091-1.31,2.663-2.015,4.286-1.923c0.048-0.007,0.151-0.009,0.254-0.009c1.505,0,2.953,0.704,3.975,1.932
			c1.316,1.581,1.794,3.783,1.348,6.2C14.775,270.292,12.681,272.892,9.999,272.893z M9.72,258.69c-1.244,0-2.448,0.588-3.301,1.614
			c-1.144,1.375-1.555,3.319-1.156,5.473c0.739,3.9,2.51,6.231,4.735,6.232c2.223-0.002,3.994-2.333,4.736-6.235
			c0.398-2.152-0.014-4.096-1.159-5.471c-0.912-1.096-2.224-1.685-3.549-1.606C9.888,258.693,9.803,258.69,9.72,258.69z"/>
	</g>
	<g>
		<path fill="#0F8742" d="M4.284,265.426c-0.033,0-0.066,0.005-0.098,0.017c-0.442,0.128-0.49,1.277-0.155,2.439
			c0.309,1.075,0.719,1.674,1.021,1.674c0.023,0,0.047-0.004,0.068-0.011c0.304-0.102,0.438-0.898,0.229-2.1
			C5.165,266.326,4.696,265.426,4.284,265.426L4.284,265.426z"/>
		<path fill="#0F8742" d="M15.715,265.426c-0.411,0-0.882,0.9-1.067,2.019c-0.205,1.202-0.074,1.998,0.231,2.1
			c0.022,0.007,0.045,0.011,0.068,0.011c0.302,0,0.711-0.599,1.019-1.674c0.337-1.162,0.286-2.311-0.154-2.439
			C15.78,265.432,15.747,265.426,15.715,265.426L15.715,265.426z"/>
		<path fill="#0F8742" d="M11.01,258.177c-0.344,0-0.7,0.014-1.056,0.042c-0.356-0.028-0.712-0.042-1.057-0.042
			c-0.305,0-0.604,0.011-0.886,0.034c-0.809,0.066-1.437,0.54-1.901,1.131c-0.338,0.252-0.575,0.544-0.647,0.88
			c-0.034,0.152-0.069,0.309-0.103,0.467c-0.19,0.503-0.269,0.938-0.25,1.159c-0.228,1.087-0.407,2.085-0.319,2.398
			c0,0,0.035,0.015,0.089,0.015c0.143,0,0.418-0.106,0.515-0.886c0.064-0.497,0.026-1.078,0.072-1.587
			c0.468-0.405,1.219-0.996,2.089-0.996c0.01,0,0.019,0,0.028,0c0.473,0.263,0.897,0.318,1.296,0.573
			c0.179,0.113,0.627,0.17,1.074,0.17c0.449,0,0.896-0.057,1.074-0.17c0.4-0.255,0.825-0.31,1.299-0.573c0.009,0,0.018,0,0.028,0
			c0.868,0,1.621,0.592,2.087,0.996c0.048,0.509,0.01,1.091,0.072,1.587c0.098,0.78,0.372,0.886,0.513,0.886
			c0.053,0,0.089-0.015,0.089-0.015c0.09-0.312-0.088-1.311-0.318-2.398c0.017-0.221-0.06-0.656-0.25-1.159
			c-0.035-0.158-0.071-0.315-0.104-0.467c-0.071-0.336-0.309-0.628-0.645-0.88c-0.464-0.591-1.092-1.065-1.901-1.131
			C11.615,258.188,11.316,258.177,11.01,258.177L11.01,258.177z"/>
	</g>
	<g>
		<g>
			<path fill="#0F8742" d="M6.773,267.689H6.767c-0.584-0.009-1.14-0.248-1.523-0.658c-0.348-0.371-0.525-0.845-0.5-1.334
				l0.013-0.372c0.003-0.117,0.022-0.236,0.046-0.351l0.053-0.248l0.242-0.079c1.301-0.425,2.732-0.412,4.044,0.043l0.24,0.083
				l0.049,0.249c0.026,0.126,0.044,0.232,0.047,0.336l0.014,0.361c0.021,0.455-0.148,0.905-0.475,1.264
				c-0.381,0.418-0.941,0.672-1.537,0.699L6.773,267.689z M5.638,265.408l-0.011,0.324c-0.013,0.258,0.08,0.501,0.262,0.695
				c0.219,0.235,0.542,0.372,0.886,0.379l0.679-0.008c0.349-0.016,0.686-0.166,0.909-0.411c0.169-0.185,0.256-0.408,0.246-0.63
				l-0.012-0.313C7.631,265.16,6.596,265.149,5.638,265.408z"/>
		</g>
		<g>
			<path fill="#0F8742" d="M12.54,267.689h-0.006c-0.582-0.009-1.136-0.248-1.52-0.656c-0.349-0.37-0.528-0.845-0.505-1.335
				l0.013-0.377c0.007-0.122,0.023-0.232,0.045-0.34l0.049-0.254l0.247-0.081c1.304-0.425,2.736-0.411,4.046,0.043l0.24,0.083
				l0.049,0.249c0.023,0.115,0.042,0.226,0.045,0.335c0.005,0.116,0.01,0.245,0.012,0.373c0.023,0.439-0.143,0.889-0.47,1.249
				c-0.381,0.42-0.942,0.676-1.54,0.702L12.54,267.689z M11.403,265.408l-0.011,0.314c-0.012,0.267,0.083,0.512,0.266,0.707
				c0.219,0.233,0.542,0.37,0.884,0.377l0.679-0.008c0.349-0.015,0.686-0.166,0.91-0.412c0.167-0.185,0.253-0.407,0.242-0.626
				c-0.002-0.114-0.006-0.217-0.01-0.317C13.397,265.16,12.364,265.148,11.403,265.408z"/>
		</g>
		<g>
			<rect x="9.259" y="265.373" fill="#0F8742" width="1.696" height="0.883"/>
		</g>
	</g>
</g>
</svg>
