<?xml version="1.0" encoding="utf-8"?>
<!-- Generator: Adobe Illustrator 17.0.0, SVG Export Plug-In . SVG Version: 6.00 Build 0)  -->
<!DOCTYPE svg PUBLIC "-//W3C//DTD SVG 1.1//EN" "http://www.w3.org/Graphics/SVG/1.1/DTD/svg11.dtd">
<svg version="1.1" id="Layer_1" xmlns="http://www.w3.org/2000/svg" xmlns:xlink="http://www.w3.org/1999/xlink" x="0px" y="0px"
	 width="26px" height="26px" viewBox="0 0 26 26" enable-background="new 0 0 26 26" xml:space="preserve">
<g>
	<g>
		<g>
			<path fill="#FFFFFF" d="M16.668,17.858c-0.134,0-0.269-0.041-0.386-0.126c-0.293-0.214-0.358-0.624-0.144-0.918l2.872-3.945
				l-2.872-3.948c-0.214-0.293-0.149-0.704,0.145-0.917c0.293-0.213,0.704-0.149,0.917,0.145l3.153,4.334
				c0.167,0.23,0.167,0.542,0,0.773L17.2,17.588C17.072,17.764,16.872,17.858,16.668,17.858z"/>
		</g>
		<g>
			<path fill="#FFFFFF" d="M19.822,13.526h-8.147c-0.363,0-0.657-0.294-0.657-0.657s0.294-0.657,0.657-0.657h8.147
				c0.363,0,0.657,0.294,0.657,0.657S20.185,13.526,19.822,13.526z"/>
		</g>
	</g>
	<g>
		<path fill="#FFFFFF" d="M6.174,20.518c-0.363,0-0.657-0.294-0.657-0.657V5.875c0-0.363,0.294-0.657,0.657-0.657
			c0.363,0,0.657,0.294,0.657,0.657v13.986C6.831,20.224,6.537,20.518,6.174,20.518z"/>
	</g>
	<g>
		<g>
			<path fill="#FFFFFF" d="M14.964,20.518h-8.79c-0.363,0-0.657-0.294-0.657-0.657c0-0.363,0.294-0.657,0.657-0.657h8.79
				c0.363,0,0.657,0.294,0.657,0.657C15.621,20.224,15.327,20.518,14.964,20.518z"/>
		</g>
		<g>
			<path fill="#FFFFFF" d="M14.964,6.532h-8.79c-0.363,0-0.657-0.294-0.657-0.657c0-0.363,0.294-0.657,0.657-0.657h8.79
				c0.363,0,0.657,0.294,0.657,0.657C15.621,6.238,15.327,6.532,14.964,6.532z"/>
		</g>
	</g>
</g>
</svg>
