<?xml version="1.0" encoding="utf-8"?>
<!-- Generator: Adobe Illustrator 17.0.0, SVG Export Plug-In . SVG Version: 6.00 Build 0)  -->
<!DOCTYPE svg PUBLIC "-//W3C//DTD SVG 1.1//EN" "http://www.w3.org/Graphics/SVG/1.1/DTD/svg11.dtd">
<svg version="1.1" id="Layer_1" xmlns="http://www.w3.org/2000/svg" xmlns:xlink="http://www.w3.org/1999/xlink" x="0px" y="0px"
	 width="26px" height="26px" viewBox="0 0 26 26" enable-background="new 0 0 26 26" xml:space="preserve">
<g>
	<g>
		<path fill="#FFFFFF" d="M8.014,15.333c-1.327,0-2.406-1.08-2.406-2.406c0-1.326,1.079-2.405,2.406-2.405
			c1.326,0,2.406,1.08,2.406,2.405C10.42,14.253,9.34,15.333,8.014,15.333z M8.014,11.764c-0.642,0-1.164,0.521-1.164,1.163
			c0,0.643,0.522,1.163,1.164,1.163c0.641,0,1.163-0.521,1.163-1.163C9.178,12.285,8.656,11.764,8.014,11.764z"/>
	</g>
	<g>
		<g>
			<path fill="#FFFFFF" d="M17.894,10.031c-1.326,0-2.406-1.078-2.406-2.406c0-1.326,1.08-2.406,2.406-2.406
				c1.327,0,2.406,1.08,2.406,2.406C20.299,8.953,19.22,10.031,17.894,10.031z M17.894,6.462c-0.641,0-1.163,0.521-1.163,1.163
				c0,0.642,0.522,1.163,1.163,1.163c0.643,0,1.164-0.521,1.164-1.163C19.058,6.983,18.536,6.462,17.894,6.462z"/>
		</g>
		<g>
			<path fill="#FFFFFF" d="M17.894,20.636c-1.326,0-2.406-1.08-2.406-2.406c0-1.328,1.08-2.406,2.406-2.406
				c1.327,0,2.406,1.078,2.406,2.406C20.299,19.556,19.22,20.636,17.894,20.636z M17.894,17.065c-0.641,0-1.163,0.523-1.163,1.166
				c0,0.64,0.522,1.163,1.163,1.163c0.643,0,1.164-0.523,1.164-1.163C19.058,17.588,18.536,17.065,17.894,17.065z"/>
		</g>
	</g>
	<g>
		<g>
			<path fill="#FFFFFF" d="M16.056,17.908c-0.105,0-0.212-0.027-0.31-0.083l-6.335-3.659c-0.298-0.171-0.399-0.55-0.228-0.848
				s0.551-0.399,0.848-0.228l6.336,3.659c0.298,0.171,0.399,0.552,0.228,0.848C16.48,17.798,16.272,17.908,16.056,17.908z"/>
		</g>
		<g>
			<path fill="#FFFFFF" d="M9.722,12.847c-0.215,0-0.424-0.11-0.539-0.311c-0.171-0.295-0.07-0.676,0.228-0.848l6.335-3.657
				c0.297-0.173,0.678-0.072,0.849,0.226c0.171,0.298,0.07,0.676-0.228,0.85l-6.336,3.657C9.934,12.82,9.827,12.847,9.722,12.847z"
				/>
		</g>
	</g>
</g>
</svg>
