<?xml version="1.0" encoding="utf-8"?>
<!-- Generator: Adobe Illustrator 17.0.0, SVG Export Plug-In . SVG Version: 6.00 Build 0)  -->
<!DOCTYPE svg PUBLIC "-//W3C//DTD SVG 1.1//EN" "http://www.w3.org/Graphics/SVG/1.1/DTD/svg11.dtd">
<svg version="1.1" id="Layer_1" xmlns="http://www.w3.org/2000/svg" xmlns:xlink="http://www.w3.org/1999/xlink" x="0px" y="0px"
	 width="25px" height="406.583px" viewBox="0 0 25 406.583" enable-background="new 0 0 25 406.583" xml:space="preserve">
<g>
	<g>
		<path fill="#FFFFFF" d="M21.618,23.256c-0.19,0-0.368-0.039-0.529-0.114c-1.273-0.598-2.924-1.395-4.414-2.262
			c-0.442-0.258-1.199-1.2-1.013-2.009l0.375-1.686c-0.056-0.053-0.182-0.14-0.397-0.173c-0.999-0.156-2.061-0.24-3.155-0.25
			c-1.072,0.009-2.13,0.093-3.124,0.25c-0.217,0.033-0.343,0.12-0.399,0.173l0.379,1.694c0.189,0.846-0.615,1.745-0.981,1.979
			c-1.767,1.122-2.907,1.706-4.52,2.313l-0.17,0.064L3.395,23.25c-0.669,0-1.636-0.503-1.955-1.225
			c-0.612-1.385-0.925-2.858-0.927-4.379c0.002-0.425,0.03-0.859,0.083-1.299l0.04-0.329l0.23-0.239
			c2.774-2.913,7-4.584,11.591-4.585l0.111,0.004c4.63,0.023,8.812,1.69,11.567,4.58l0.229,0.24l0.04,0.33
			c0.055,0.452,0.081,0.877,0.081,1.297c0,1.516-0.312,2.989-0.925,4.38C23.24,22.75,22.28,23.256,21.618,23.256z M3.237,21.141
			c0.031,0.024,0.078,0.052,0.123,0.074c1.352-0.524,2.375-1.059,3.928-2.045c-0.006-0.002,0.021-0.044,0.049-0.091l-0.349-1.557
			c-0.111-0.471-0.011-0.979,0.286-1.421c0.378-0.56,1.026-0.949,1.779-1.064c1.087-0.172,2.244-0.265,3.433-0.274
			c1.209,0.011,2.368,0.102,3.463,0.273c0.753,0.117,1.401,0.507,1.778,1.068c0.296,0.439,0.396,0.948,0.28,1.432l-0.344,1.546
			c0.032,0.05,0.071,0.102,0.098,0.126c1.247,0.717,2.716,1.434,3.909,1.997c0.034-0.02,0.068-0.041,0.093-0.06
			c0.48-1.112,0.723-2.29,0.723-3.499c0-0.236-0.011-0.476-0.032-0.725c-2.378-2.338-6.055-3.726-9.911-3.726l-0.142-0.003
			c-3.804,0.003-7.477,1.391-9.853,3.729c-0.022,0.248-0.033,0.489-0.034,0.729C2.516,18.857,2.759,20.033,3.237,21.141z"/>
	</g>
	<g>
		<path fill="#FFFFFF" d="M22.814,7.475c-0.552,0-1-0.447-1-1l-0.002-4.474L17.34,2c-0.553,0-1-0.448-1-1c0-0.553,0.448-1,1-1l0,0
			l5.473,0.001c0.553,0,1,0.447,1,1l0.002,5.474C23.814,7.026,23.367,7.475,22.814,7.475L22.814,7.475z"/>
	</g>
	<g>
		<path fill="#FFFFFF" d="M12.5,9.131c-0.894,0-1.788-0.26-2.484-0.779l-7.864-5.87c-0.442-0.331-0.533-0.957-0.203-1.4
			c0.33-0.442,0.957-0.533,1.4-0.203l7.863,5.87c0.686,0.514,1.891,0.513,2.576,0.001l7.863-5.871c0.442-0.33,1.069-0.239,1.4,0.203
			c0.33,0.443,0.239,1.069-0.203,1.4l-7.863,5.87C14.288,8.871,13.395,9.131,12.5,9.131z"/>
	</g>
</g>
<g>
	<g>
		<path fill="#FFFFFF" d="M19.08,81.393c-4.453,0-9.057-2.051-12.631-5.625l-0.071-0.076l0.001-0.001
			c-3.708-3.737-5.729-8.432-5.621-12.96l0.008-0.334l0.207-0.262c0.32-0.407,0.637-0.767,0.968-1.098
			c1.214-1.213,2.64-2.141,4.239-2.761c0.194-0.075,0.414-0.114,0.652-0.114c0.539,0,1.751,0.274,2.061,1.123
			c0.546,1.517,1.235,3.494,1.736,5.386c0.139,0.531,0.003,1.814-0.739,2.282l-1.767,1.121c0.016,0.014,0.008,0.29,0.238,0.605
			c0.686,0.939,1.48,1.87,2.36,2.766c0.887,0.871,1.814,1.661,2.746,2.339c0.182,0.133,0.387,0.21,0.553,0.21l0.612-0.854
			l0.564-0.888c0.489-0.76,1.717-0.781,1.854-0.781c0.144,0,0.271,0.013,0.388,0.039c2.329,0.52,3.716,0.967,5.493,1.773
			c0.79,0.356,1.289,1.789,0.935,2.688c-0.616,1.595-1.544,3.021-2.754,4.233c-0.344,0.341-0.714,0.667-1.104,0.972l-0.261,0.204
			L19.08,81.393z M2.754,63.112c0.016,3.862,1.883,8.014,5.039,11.171l0.097,0.098c3.164,3.163,7.233,4.997,11.146,5.012
			c0.233-0.194,0.456-0.396,0.665-0.604c1.009-1.012,1.785-2.205,2.303-3.543c-0.011-0.008-0.05-0.13-0.092-0.228
			c-1.548-0.689-2.818-1.09-4.91-1.557c-0.052,0.007-0.154,0.027-0.235,0.05l-1.006,1.585c-0.622,1.011-2.28,1.176-3.473,0.303
			c-1.008-0.732-2.012-1.588-2.981-2.54c-0.96-0.978-1.818-1.982-2.562-3c-0.49-0.671-0.69-1.468-0.55-2.188
			c0.108-0.555,0.416-1.014,0.864-1.292l1.58-1.003c0.024-0.093,0.044-0.216,0.04-0.276c-0.439-1.637-1.062-3.443-1.576-4.881
			c-0.086-0.031-0.194-0.058-0.271-0.058C5.564,60.66,4.37,61.438,3.356,62.45C3.152,62.654,2.954,62.872,2.754,63.112z"/>
	</g>
	<g>
		<path fill="#FFFFFF" d="M18.037,69.416c-3.423,0-6.207-2.785-6.207-6.208c0-3.423,2.784-6.208,6.207-6.208
			c3.424,0,6.209,2.785,6.209,6.208C24.246,66.631,21.461,69.416,18.037,69.416z M18.037,58c-2.871,0-5.207,2.336-5.207,5.208
			s2.336,5.208,5.207,5.208c2.872,0,5.209-2.336,5.209-5.208S20.909,58,18.037,58z"/>
	</g>
	<g>
		<path fill="#FFFFFF" d="M14.903,62.194v-0.656c0-0.09,0.04-0.16,0.12-0.208l0.729-0.456c0.122-0.074,0.227-0.112,0.312-0.112
			h0.641c0.111,0,0.168,0.056,0.168,0.168v4.808c0,0.064-0.013,0.108-0.036,0.132c-0.024,0.024-0.065,0.036-0.124,0.036h-0.688
			c-0.111,0-0.168-0.056-0.168-0.168v-3.896l-0.784,0.448C14.96,62.338,14.903,62.306,14.903,62.194z"/>
		<path fill="#FFFFFF" d="M19.936,65.906h-0.8c-0.422,0-0.747-0.112-0.976-0.336s-0.344-0.547-0.344-0.968v-2.536
			c0-0.421,0.115-0.744,0.344-0.968s0.555-0.336,0.976-0.336h0.8c0.416,0,0.738,0.113,0.968,0.34
			c0.229,0.227,0.345,0.548,0.345,0.964v2.536c0,0.416-0.115,0.738-0.345,0.964C20.674,65.793,20.352,65.906,19.936,65.906z
			 M19.304,65.026h0.472c0.171,0,0.291-0.036,0.36-0.108s0.104-0.193,0.104-0.364v-2.44c0-0.17-0.034-0.292-0.104-0.364
			c-0.069-0.072-0.189-0.108-0.36-0.108h-0.472c-0.171,0-0.291,0.036-0.36,0.108c-0.069,0.072-0.104,0.193-0.104,0.364v2.44
			c0,0.171,0.034,0.292,0.104,0.364C19.013,64.99,19.133,65.026,19.304,65.026z"/>
	</g>
</g>
<g>
	<g>
		<path fill="#FFFFFF" d="M19.08,138.09c-4.453,0-9.057-2.051-12.631-5.625l-0.071-0.076l0.001-0.001
			c-3.708-3.737-5.729-8.432-5.621-12.96l0.008-0.334l0.207-0.262c0.32-0.407,0.637-0.767,0.968-1.098
			c1.214-1.213,2.64-2.141,4.239-2.761c0.194-0.075,0.414-0.114,0.652-0.114c0.539,0,1.751,0.274,2.06,1.123
			c0.546,1.517,1.235,3.494,1.736,5.386c0.139,0.531,0.003,1.814-0.739,2.282l-1.768,1.121c0.016,0.014,0.008,0.29,0.238,0.605
			c0.686,0.939,1.48,1.87,2.36,2.766c0.887,0.871,1.814,1.661,2.746,2.339c0.182,0.133,0.387,0.21,0.553,0.21l0.612-0.854
			l0.563-0.888c0.489-0.76,1.717-0.781,1.854-0.781c0.144,0,0.271,0.013,0.388,0.039c2.329,0.52,3.716,0.967,5.493,1.773
			c0.79,0.356,1.289,1.789,0.935,2.688c-0.616,1.595-1.544,3.02-2.754,4.233c-0.344,0.341-0.714,0.667-1.103,0.972l-0.261,0.204
			L19.08,138.09z M2.754,119.81c0.016,3.862,1.883,8.014,5.039,11.171l0.097,0.098c3.164,3.163,7.233,4.997,11.146,5.012
			c0.233-0.194,0.456-0.396,0.665-0.604c1.009-1.012,1.785-2.205,2.303-3.543c-0.011-0.008-0.05-0.13-0.092-0.228
			c-1.548-0.689-2.818-1.09-4.91-1.557c-0.052,0.007-0.154,0.027-0.235,0.05l-1.006,1.585c-0.622,1.011-2.28,1.176-3.473,0.303
			c-1.008-0.732-2.012-1.588-2.98-2.54c-0.96-0.977-1.818-1.982-2.562-3c-0.49-0.671-0.69-1.468-0.55-2.188
			c0.108-0.555,0.416-1.014,0.864-1.292l1.58-1.003c0.024-0.093,0.044-0.216,0.04-0.276c-0.439-1.637-1.061-3.443-1.576-4.881
			c-0.086-0.031-0.194-0.058-0.271-0.058c-1.269,0.498-2.462,1.275-3.477,2.288C3.153,119.352,2.954,119.57,2.754,119.81z"/>
	</g>
	<g>
		<path fill="#FFFFFF" d="M18.037,126.114c-3.423,0-6.207-2.785-6.207-6.208c0-3.423,2.784-6.208,6.207-6.208
			c3.424,0,6.209,2.785,6.209,6.208C24.246,123.329,21.461,126.114,18.037,126.114z M18.037,114.698
			c-2.871,0-5.207,2.336-5.207,5.208c0,2.872,2.336,5.208,5.207,5.208c2.872,0,5.209-2.336,5.209-5.208
			C23.246,117.034,20.909,114.698,18.037,114.698z"/>
	</g>
	<g>
		<path fill="#FFFFFF" d="M17.406,120.671l-0.168-2.526c-0.031-0.492-0.048-0.846-0.048-1.06c0-0.292,0.077-0.52,0.229-0.683
			c0.152-0.164,0.354-0.246,0.604-0.246c0.303,0,0.505,0.105,0.607,0.314c0.101,0.209,0.152,0.511,0.152,0.904
			c0,0.232-0.012,0.468-0.037,0.707l-0.226,2.6c-0.024,0.31-0.077,0.547-0.158,0.712c-0.081,0.166-0.215,0.248-0.4,0.248
			c-0.191,0-0.322-0.08-0.397-0.239C17.491,121.242,17.439,120.998,17.406,120.671z M17.992,124.141
			c-0.215,0-0.402-0.069-0.561-0.208c-0.16-0.139-0.24-0.333-0.24-0.583c0-0.218,0.077-0.403,0.229-0.557
			c0.152-0.152,0.34-0.229,0.563-0.229c0.221,0,0.41,0.077,0.566,0.229c0.156,0.153,0.234,0.339,0.234,0.557
			c0,0.246-0.079,0.439-0.237,0.58C18.388,124.071,18.203,124.141,17.992,124.141z"/>
	</g>
</g>
<g>
	<g>
		<path fill="#FFFFFF" d="M22.765,187.859H2.235c-0.553,0-1-0.447-1-1v-16.332c0-0.553,0.447-1,1-1h20.529c0.553,0,1,0.447,1,1
			v16.332C23.765,187.412,23.317,187.859,22.765,187.859z M3.235,185.859h18.529v-14.332H3.235V185.859z"/>
	</g>
	<g>
		<path fill="#FFFFFF" d="M18.931,173.193c-0.553,0-1-0.447-1-1v-3.333c0-0.553,0.447-1,1-1c0.553,0,1,0.447,1,1v3.333
			C19.931,172.746,19.483,173.193,18.931,173.193z"/>
	</g>
	<g>
		<path fill="#FFFFFF" d="M6.181,173.193c-0.553,0-1-0.447-1-1v-3.333c0-0.553,0.447-1,1-1c0.553,0,1,0.447,1,1v3.333
			C7.181,172.746,6.733,173.193,6.181,173.193z"/>
	</g>
	<g>
		<path fill="#FFFFFF" d="M22.708,176.429H2.376c-0.276,0-0.5-0.224-0.5-0.5c0-0.276,0.224-0.5,0.5-0.5h20.332
			c0.276,0,0.5,0.224,0.5,0.5C23.208,176.206,22.984,176.429,22.708,176.429z"/>
	</g>
	<polygon fill="#FFFFFF" points="6.913,178.46 4.974,178.46 4.974,180.399 6.913,180.399 6.913,178.46 	"/>
	<polygon fill="#FFFFFF" points="10.271,178.46 8.331,178.46 8.331,180.399 10.271,180.399 10.271,178.46 	"/>
	<polygon fill="#FFFFFF" points="13.63,178.46 11.689,178.46 11.689,180.399 13.63,180.399 13.63,178.46 	"/>
	<polygon fill="#FFFFFF" points="16.987,178.46 15.046,178.46 15.046,180.399 16.987,180.399 16.987,178.46 	"/>
	<polygon fill="#FFFFFF" points="20.345,178.46 18.405,178.46 18.405,180.399 20.345,180.399 20.345,178.46 	"/>
	<polygon fill="#FFFFFF" points="6.913,181.576 4.974,181.576 4.974,183.515 6.913,183.515 6.913,181.576 	"/>
	<polygon fill="#FFFFFF" points="10.271,181.576 8.331,181.576 8.331,183.515 10.271,183.515 10.271,181.576 	"/>
	<polygon fill="#FFFFFF" points="13.63,181.576 11.689,181.576 11.689,183.515 13.63,183.515 13.63,181.576 	"/>
	<polygon fill="#FFFFFF" points="16.987,181.576 15.046,181.576 15.046,183.515 16.987,183.515 16.987,181.576 	"/>
	<polygon fill="#FFFFFF" points="20.345,181.576 18.405,181.576 18.405,183.515 20.345,183.515 20.345,181.576 	"/>
</g>
<g>
	<g>
		<g>
			<path fill="#FFFFFF" d="M14.008,228.148c-0.108,0-0.217-0.035-0.308-0.107c-0.214-0.17-0.25-0.48-0.08-0.695
				c0.439-0.554,0.259-1.093-0.072-1.927c-0.331-0.837-0.744-1.877,0.072-2.907c0.17-0.215,0.482-0.249,0.695-0.08
				c0.214,0.17,0.25,0.48,0.08,0.695c-0.438,0.554-0.259,1.093,0.072,1.927c0.331,0.837,0.744,1.877-0.072,2.907
				C14.298,228.084,14.153,228.148,14.008,228.148z"/>
		</g>
		<g>
			<path fill="#FFFFFF" d="M11.438,228.148c-0.108,0-0.217-0.035-0.308-0.107c-0.214-0.17-0.25-0.48-0.08-0.695
				c0.438-0.554,0.259-1.093-0.072-1.927c-0.331-0.837-0.744-1.877,0.072-2.907c0.17-0.215,0.482-0.249,0.695-0.08
				c0.214,0.17,0.25,0.48,0.08,0.695c-0.438,0.554-0.259,1.093,0.072,1.927c0.331,0.837,0.744,1.877-0.072,2.907
				C11.728,228.084,11.583,228.148,11.438,228.148z"/>
		</g>
		<g>
			<path fill="#FFFFFF" d="M8.867,228.148c-0.108,0-0.217-0.035-0.308-0.107c-0.214-0.17-0.25-0.48-0.08-0.695
				c0.438-0.554,0.259-1.093-0.072-1.927c-0.331-0.837-0.744-1.877,0.072-2.907c0.171-0.215,0.482-0.249,0.695-0.08
				c0.214,0.17,0.25,0.48,0.08,0.695c-0.438,0.554-0.259,1.093,0.072,1.927c0.331,0.837,0.744,1.877-0.072,2.907
				C9.157,228.084,9.013,228.148,8.867,228.148z"/>
		</g>
	</g>
	<g>
		<g>
			<path fill="#FFFFFF" d="M10.865,241.485c-5.836,0-10.584-4.747-10.584-10.583c0-0.553,0.447-1,1-1h19.166c0.553,0,1,0.447,1,1
				C21.447,236.738,16.7,241.485,10.865,241.485z M2.339,231.902c0.497,4.264,4.132,7.583,8.526,7.583
				c4.394,0,8.027-3.319,8.524-7.583H2.339z"/>
		</g>
		<g>
			<path fill="#FFFFFF" d="M22.135,238.111c-1.688,0-3.063-1.374-3.063-3.063c0-1.688,1.374-3.063,3.063-3.063
				c1.688,0,3.063,1.374,3.063,3.063C25.197,236.737,23.823,238.111,22.135,238.111z M22.135,233.986
				c-0.586,0-1.063,0.477-1.063,1.063c0,0.586,0.477,1.063,1.063,1.063c0.586,0,1.063-0.477,1.063-1.063
				C23.197,234.463,22.721,233.986,22.135,233.986z"/>
		</g>
	</g>
	<g>
		<path fill="#FFFFFF" d="M22.428,241.861H0.803c-0.553,0-1-0.447-1-1c0-0.553,0.447-1,1-1h21.625c0.553,0,1,0.447,1,1
			C23.428,241.414,22.98,241.861,22.428,241.861z"/>
	</g>
</g>
<g>
	<g>
		<path fill="#FFFFFF" d="M13.745,285.48c0,0.17-0.035,0.332-0.104,0.475c-0.564,1.201-1.316,2.759-2.13,4.157
			c-0.233,0.4-1.089,1.091-1.822,0.928l-1.628-0.365c-0.059,0.05-0.168,0.191-0.204,0.43c-0.15,0.958-0.228,1.935-0.237,2.985
			c0.01,1.02,0.09,2.019,0.237,2.957c0.037,0.241,0.146,0.383,0.204,0.434l1.631-0.365c0.756-0.169,1.596,0.574,1.801,0.899
			c1.057,1.663,1.606,2.737,2.175,4.252c0.047,0.124,0.071,0.257,0.071,0.398c0,0.614-0.461,1.5-1.125,1.787
			c-1.299,0.576-2.681,0.867-4.102,0.867c-0.392,0-0.8-0.026-1.216-0.078l-0.29-0.036l-0.21-0.2
			c-2.736-2.607-4.306-6.574-4.306-10.887c0-4.394,1.569-8.363,4.305-10.971l0.215-0.204l0.294-0.034
			c0.442-0.051,0.837-0.075,1.208-0.075c1.429,0.002,2.811,0.294,4.108,0.868C13.261,283.985,13.745,284.874,13.745,285.48z
			 M11.85,302.862c0.03-0.038,0.068-0.104,0.096-0.162c-0.498-1.29-1.004-2.261-1.943-3.74c-0.008-0.003-0.068-0.043-0.127-0.079
			l-1.489,0.334c-0.428,0.102-0.892,0.01-1.293-0.26c-0.517-0.347-0.874-0.944-0.979-1.637c-0.162-1.02-0.249-2.108-0.258-3.229
			c0.009-1.138,0.096-2.228,0.256-3.255c0.107-0.692,0.465-1.289,0.979-1.636c0.401-0.27,0.865-0.362,1.304-0.258l1.485,0.333
			c0.057-0.036,0.123-0.085,0.153-0.116c0.685-1.192,1.37-2.595,1.905-3.729c-0.032-0.063-0.075-0.127-0.106-0.153
			c-0.999-0.432-2.142-0.674-3.321-0.675c-0.221,0-0.455,0.01-0.712,0.032c-2.224,2.254-3.545,5.743-3.545,9.403v0.105
			c0,3.641,1.321,7.128,3.548,9.381c0.242,0.021,0.478,0.032,0.709,0.032C9.665,303.555,10.788,303.322,11.85,302.862z"/>
	</g>
	<g>
		<g>
			<path fill="#FFFFFF" d="M18.899,287.111v-1.159c-0.216,0.165-0.361,0.249-0.435,0.249c-0.036,0-0.067-0.015-0.096-0.043
				c-0.027-0.028-0.04-0.061-0.04-0.099c0-0.043,0.013-0.075,0.04-0.095c0.026-0.021,0.074-0.047,0.143-0.08
				c0.104-0.048,0.186-0.099,0.247-0.153c0.063-0.053,0.117-0.113,0.164-0.179c0.047-0.066,0.078-0.107,0.093-0.123
				c0.015-0.015,0.042-0.022,0.082-0.022c0.046,0,0.081,0.017,0.108,0.052c0.027,0.035,0.04,0.082,0.04,0.144v1.459
				c0,0.171-0.058,0.256-0.174,0.256c-0.051,0-0.093-0.018-0.125-0.053C18.914,287.231,18.899,287.179,18.899,287.111z"/>
		</g>
		<g>
			<path fill="#FFFFFF" d="M22.074,288.775h-6.195c-0.24,0-0.435-0.194-0.435-0.435v-3.973c0-0.241,0.194-0.435,0.435-0.435h6.195
				c0.24,0,0.436,0.194,0.436,0.435v3.973C22.509,288.582,22.314,288.775,22.074,288.775z M16.314,287.906h5.325v-3.104h-5.325
				V287.906z"/>
		</g>
	</g>
	<g>
		<g>
			<path fill="#FFFFFF" d="M18.762,292.237h0.662c0.068,0,0.119,0.013,0.154,0.04c0.035,0.027,0.053,0.064,0.053,0.111
				c0,0.042-0.014,0.077-0.043,0.106c-0.027,0.029-0.07,0.043-0.125,0.043h-0.94c-0.06,0-0.113-0.017-0.148-0.052
				c-0.035-0.035-0.053-0.077-0.053-0.124c0-0.03,0.012-0.071,0.035-0.122c0.021-0.05,0.047-0.09,0.074-0.119
				c0.113-0.117,0.215-0.217,0.305-0.301c0.092-0.083,0.156-0.138,0.197-0.165c0.068-0.049,0.127-0.099,0.172-0.149
				c0.047-0.049,0.082-0.1,0.107-0.153c0.023-0.051,0.035-0.103,0.035-0.153c0-0.054-0.012-0.102-0.037-0.146
				c-0.027-0.043-0.063-0.076-0.107-0.1c-0.045-0.024-0.092-0.036-0.145-0.036c-0.111,0-0.199,0.049-0.264,0.146
				c-0.008,0.013-0.022,0.048-0.043,0.105c-0.019,0.057-0.041,0.101-0.066,0.132c-0.025,0.03-0.063,0.045-0.111,0.045
				c-0.043,0-0.076-0.014-0.105-0.042c-0.027-0.028-0.041-0.067-0.041-0.115c0-0.058,0.012-0.119,0.039-0.183
				c0.027-0.063,0.064-0.122,0.117-0.173c0.053-0.052,0.119-0.094,0.199-0.125c0.08-0.032,0.174-0.048,0.283-0.048
				c0.129,0,0.24,0.02,0.332,0.061c0.059,0.027,0.111,0.065,0.156,0.112c0.045,0.047,0.082,0.103,0.105,0.166
				c0.025,0.062,0.037,0.126,0.037,0.194c0,0.105-0.025,0.201-0.078,0.288c-0.053,0.087-0.105,0.154-0.16,0.202
				c-0.053,0.049-0.146,0.125-0.271,0.23c-0.129,0.104-0.217,0.185-0.264,0.244C18.803,292.177,18.782,292.205,18.762,292.237z"/>
		</g>
		<g>
			<path fill="#FFFFFF" d="M22.076,294.028h-6.197c-0.24,0-0.436-0.195-0.436-0.435v-3.973c0-0.241,0.195-0.436,0.436-0.436h6.197
				c0.238,0,0.434,0.195,0.434,0.436v3.973C22.509,293.833,22.314,294.028,22.076,294.028z M16.313,293.158h5.326v-3.103h-5.326
				V293.158z"/>
		</g>
	</g>
	<g>
		<g>
			<path fill="#FFFFFF" d="M18.913,296.659c0.077,0,0.145-0.022,0.202-0.068c0.056-0.046,0.084-0.112,0.084-0.197
				c0-0.065-0.021-0.122-0.066-0.169c-0.045-0.046-0.107-0.071-0.184-0.071c-0.052,0-0.095,0.008-0.129,0.022
				c-0.033,0.015-0.059,0.034-0.078,0.058c-0.019,0.024-0.038,0.054-0.055,0.091c-0.018,0.038-0.034,0.073-0.048,0.106
				c-0.01,0.018-0.025,0.032-0.046,0.042c-0.021,0.01-0.049,0.016-0.076,0.016c-0.034,0-0.065-0.014-0.095-0.042
				c-0.027-0.028-0.044-0.065-0.044-0.11c0-0.044,0.014-0.091,0.041-0.14c0.026-0.048,0.066-0.095,0.118-0.14
				c0.05-0.045,0.115-0.08,0.191-0.106c0.076-0.027,0.162-0.04,0.255-0.04c0.084,0,0.159,0.011,0.227,0.034
				c0.067,0.023,0.126,0.055,0.177,0.097c0.05,0.043,0.088,0.091,0.112,0.148c0.026,0.056,0.039,0.117,0.039,0.181
				c0,0.085-0.018,0.158-0.056,0.219c-0.037,0.061-0.089,0.12-0.158,0.178c0.065,0.035,0.121,0.076,0.168,0.122
				c0.045,0.045,0.079,0.097,0.101,0.153c0.024,0.055,0.034,0.115,0.034,0.179c0,0.078-0.016,0.152-0.047,0.225
				c-0.03,0.072-0.076,0.137-0.136,0.192c-0.062,0.057-0.133,0.102-0.215,0.133c-0.083,0.032-0.175,0.048-0.275,0.048
				c-0.102,0-0.193-0.018-0.273-0.054c-0.081-0.037-0.148-0.083-0.199-0.138c-0.053-0.055-0.093-0.112-0.119-0.171
				c-0.027-0.058-0.041-0.106-0.041-0.145c0-0.049,0.018-0.089,0.047-0.12c0.033-0.03,0.073-0.045,0.121-0.045
				c0.025,0,0.047,0.007,0.069,0.021c0.021,0.013,0.037,0.031,0.044,0.05c0.042,0.119,0.091,0.207,0.14,0.263
				c0.052,0.057,0.123,0.086,0.215,0.086c0.054,0,0.103-0.013,0.152-0.04c0.048-0.025,0.089-0.064,0.121-0.115
				c0.032-0.051,0.047-0.109,0.047-0.177c0-0.099-0.025-0.177-0.081-0.233c-0.054-0.056-0.13-0.084-0.226-0.084
				c-0.017,0-0.044,0.002-0.079,0.005c-0.035,0.003-0.059,0.005-0.068,0.005c-0.048,0-0.083-0.012-0.108-0.035
				c-0.026-0.024-0.039-0.056-0.039-0.097c0-0.04,0.017-0.074,0.046-0.099c0.031-0.025,0.076-0.039,0.137-0.039H18.913z"/>
		</g>
		<g>
			<path fill="#FFFFFF" d="M22.074,299.279h-6.195c-0.24,0-0.435-0.194-0.435-0.435v-3.973c0-0.239,0.194-0.435,0.435-0.435h6.195
				c0.24,0,0.436,0.195,0.436,0.435v3.973C22.509,299.085,22.314,299.279,22.074,299.279z M16.314,298.41h5.325v-3.103h-5.325
				V298.41z"/>
		</g>
	</g>
	<g>
		<g>
			<path fill="#FFFFFF" d="M19.123,302.876v-0.237h-0.639c-0.082,0-0.143-0.018-0.183-0.054c-0.041-0.037-0.062-0.086-0.062-0.15
				c0-0.015,0.005-0.032,0.01-0.048c0.006-0.017,0.016-0.034,0.026-0.052c0.013-0.018,0.025-0.036,0.038-0.053
				c0.012-0.017,0.028-0.038,0.048-0.062l0.674-0.903c0.045-0.06,0.08-0.102,0.109-0.129c0.028-0.027,0.063-0.04,0.104-0.04
				c0.128,0,0.193,0.074,0.193,0.222v0.985h0.055c0.065,0,0.118,0.01,0.156,0.027c0.041,0.018,0.061,0.057,0.061,0.118
				c0,0.049-0.018,0.085-0.049,0.107c-0.033,0.023-0.081,0.033-0.146,0.033h-0.076v0.237c0,0.066-0.015,0.115-0.043,0.146
				c-0.03,0.032-0.069,0.048-0.118,0.048c-0.047,0-0.084-0.017-0.113-0.049C19.137,302.989,19.123,302.94,19.123,302.876z
				 M18.574,302.353h0.549v-0.739L18.574,302.353z"/>
		</g>
		<g>
			<path fill="#FFFFFF" d="M22.076,304.531h-6.197c-0.24,0-0.436-0.194-0.436-0.435v-3.973c0-0.24,0.195-0.435,0.436-0.435h6.197
				c0.238,0,0.434,0.194,0.434,0.435v3.973C22.509,304.336,22.314,304.531,22.076,304.531z M16.313,303.661h5.326v-3.104h-5.326
				V303.661z"/>
		</g>
	</g>
</g>
<g>
	<g>
		<path fill="#FFFFFF" d="M12.5,377.452c-5.283,0-9.891-3.241-11.464-8.064c-0.066-0.202-0.066-0.419,0-0.621
			c1.574-4.823,6.182-8.065,11.464-8.065s9.89,3.241,11.464,8.065c0.066,0.202,0.066,0.419,0,0.621
			C22.391,374.211,17.783,377.452,12.5,377.452z M3.044,369.077c1.398,3.827,5.156,6.375,9.456,6.375s8.058-2.548,9.456-6.375
			c-1.399-3.827-5.156-6.375-9.456-6.375S4.443,365.25,3.044,369.077z"/>
	</g>
	<g>
		<path fill="#FFFFFF" d="M12.5,374.495c-2.987,0-5.418-2.431-5.418-5.418c0-0.553,0.447-1,1-1c0.553,0,1,0.447,1,1
			c0,1.885,1.533,3.418,3.418,3.418c1.884,0,3.416-1.533,3.416-3.418c0-1.884-1.532-3.416-3.416-3.416c-0.553,0-1-0.447-1-1
			s0.447-1,1-1c2.986,0,5.416,2.43,5.416,5.416C17.916,372.064,15.486,374.495,12.5,374.495z"/>
	</g>
</g>
</svg>
