<?xml version="1.0" encoding="utf-8"?>
<!-- Generator: Adobe Illustrator 17.0.0, SVG Export Plug-In . SVG Version: 6.00 Build 0)  -->
<!DOCTYPE svg PUBLIC "-//W3C//DTD SVG 1.1//EN" "http://www.w3.org/Graphics/SVG/1.1/DTD/svg11.dtd">
<svg version="1.1" id="Layer_1" xmlns="http://www.w3.org/2000/svg" xmlns:xlink="http://www.w3.org/1999/xlink" x="0px" y="0px"
	 width="25px" height="600px" viewBox="0 0 25 600" enable-background="new 0 0 25 600" xml:space="preserve">
<g>
	<g>
		<g>
			<path fill="#FFFFFF" d="M18.683,23.812c-4.451,0-9.055-2.051-12.631-5.625L5.981,18.11h0.001
				c-3.708-3.738-5.73-8.431-5.621-12.961l0.008-0.334l0.207-0.262c0.32-0.406,0.637-0.766,0.968-1.098
				c1.212-1.211,2.638-2.139,4.239-2.76C5.977,0.62,6.197,0.581,6.435,0.581c0.539,0,1.751,0.275,2.06,1.123
				c0.546,1.51,1.234,3.484,1.736,5.387c0.146,0.545-0.022,1.83-0.739,2.281l-1.769,1.123c0.018,0.012,0.011,0.289,0.241,0.604
				c0.685,0.941,1.478,1.871,2.36,2.766c0.883,0.869,1.81,1.66,2.744,2.34c0.182,0.133,0.387,0.209,0.554,0.209
				c0.058,0,0.092-0.01,0.1-0.014l1.077-1.727c0.482-0.76,1.714-0.781,1.853-0.781c0.144,0,0.27,0.012,0.388,0.039
				c2.328,0.517,3.715,0.967,5.495,1.771c0.789,0.359,1.286,1.791,0.934,2.689c-0.614,1.594-1.542,3.02-2.755,4.234
				c-0.333,0.332-0.704,0.658-1.103,0.971l-0.26,0.204L18.683,23.812z M2.357,5.532c0.016,3.861,1.883,8.014,5.039,11.17
				l0.123,0.127c3.14,3.135,7.209,4.969,11.119,4.982c0.237-0.197,0.46-0.398,0.663-0.602c1.013-1.014,1.789-2.207,2.305-3.543
				c-0.011-0.01-0.05-0.133-0.092-0.23c-1.547-0.688-2.818-1.088-4.91-1.555c-0.051,0.006-0.152,0.027-0.233,0.049l-1.005,1.584
				c-0.629,1.018-2.287,1.174-3.476,0.305c-1.011-0.734-2.014-1.59-2.978-2.541c-0.962-0.977-1.82-1.982-2.563-3
				c-0.489-0.672-0.69-1.469-0.55-2.188C5.908,9.536,6.214,9.077,6.663,8.8l1.581-1.004c0.024-0.092,0.043-0.213,0.04-0.273
				c-0.44-1.65-1.063-3.451-1.577-4.883C6.621,2.608,6.512,2.581,6.435,2.581c-1.271,0.5-2.464,1.277-3.477,2.289
				C2.755,5.073,2.557,5.292,2.357,5.532z"/>
		</g>
	</g>
	<g>
		<path fill="#FFFFFF" d="M18.716,12.416c-3.423,0-6.207-2.785-6.207-6.208S15.293,0,18.716,0c3.424,0,6.209,2.785,6.209,6.208
			S22.14,12.416,18.716,12.416z M18.716,1c-2.871,0-5.207,2.336-5.207,5.208s2.336,5.208,5.207,5.208
			c2.872,0,5.209-2.336,5.209-5.208S21.588,1,18.716,1z"/>
	</g>
	<g>
		<path fill="#FFFFFF" d="M18.717,9.21c-1.655,0-3.002-1.347-3.002-3.002s1.346-3.002,3.002-3.002s3.002,1.347,3.002,3.002
			S20.373,9.21,18.717,9.21z"/>
	</g>
</g>
<g>
	<g>
		<path fill="#FFFFFF" d="M19.213,65.23c-4.452,0-9.057-2.051-12.633-5.625l-0.073-0.082c-3.705-3.736-5.724-8.429-5.616-12.955
			l0.008-0.334l0.207-0.262c0.32-0.407,0.637-0.766,0.968-1.098c1.214-1.213,2.64-2.141,4.239-2.761C6.506,42.039,6.725,42,6.965,42
			c0.538,0,1.751,0.274,2.061,1.123c0.546,1.517,1.235,3.494,1.736,5.386c0.139,0.531,0.004,1.814-0.739,2.282l-1.768,1.121
			c0.016,0.014,0.008,0.29,0.238,0.605c0.686,0.939,1.48,1.87,2.36,2.766c0.887,0.871,1.814,1.661,2.746,2.339
			c0.182,0.133,0.387,0.21,0.553,0.21l0.612-0.854l0.563-0.888c0.482-0.76,1.716-0.781,1.854-0.781c0.144,0,0.271,0.013,0.388,0.039
			c2.329,0.52,3.716,0.967,5.493,1.772c0.786,0.356,1.286,1.786,0.938,2.686c-0.618,1.598-1.546,3.023-2.756,4.236
			c-0.345,0.342-0.714,0.667-1.103,0.972l-0.261,0.204L19.213,65.23z M2.886,46.95c0.017,3.862,1.883,8.014,5.039,11.171l0.123,0.13
			c3.138,3.131,7.207,4.965,11.119,4.979c0.233-0.194,0.456-0.396,0.665-0.604c1.009-1.012,1.785-2.205,2.303-3.543
			c-0.012-0.007-0.05-0.13-0.093-0.229c-1.547-0.688-2.817-1.089-4.909-1.556c-0.052,0.007-0.154,0.027-0.235,0.049l-1.006,1.586
			c-0.622,1.012-2.28,1.176-3.473,0.303c-1.007-0.733-2.012-1.588-2.98-2.54c-0.961-0.978-1.818-1.982-2.561-3
			c-0.49-0.671-0.691-1.468-0.55-2.188c0.108-0.555,0.416-1.014,0.864-1.292l1.58-1.003c0.024-0.093,0.044-0.216,0.04-0.276
			C8.373,47.3,7.75,45.494,7.236,44.056C7.15,44.027,7.042,44,6.965,44c-1.269,0.498-2.462,1.275-3.477,2.288
			C3.285,46.492,3.087,46.71,2.886,46.95z"/>
	</g>
	<g>
		<g>
			<path fill="#FFFFFF" d="M19.115,54.913c-0.268,0-0.535-0.106-0.732-0.318c-0.377-0.404-0.354-1.037,0.05-1.413l1.846-1.72
				l-1.846-1.722c-0.404-0.377-0.427-1.01-0.05-1.413c0.378-0.404,1.011-0.426,1.413-0.05l2.631,2.453
				c0.203,0.189,0.318,0.454,0.318,0.731s-0.115,0.543-0.318,0.731l-2.631,2.451C19.604,54.824,19.359,54.913,19.115,54.913z"/>
		</g>
		<g>
			<path fill="#FFFFFF" d="M21.121,52.463h-7.836c-0.553,0-1-0.447-1-1s0.447-1,1-1h7.836c0.553,0,1,0.447,1,1
				C22.121,52.016,21.674,52.463,21.121,52.463z"/>
		</g>
	</g>
	<g>
		<g>
			<path fill="#FFFFFF" d="M15.916,49.164c-0.244,0-0.489-0.089-0.682-0.269l-2.631-2.453c-0.203-0.189-0.318-0.454-0.318-0.731
				s0.115-0.543,0.318-0.731l2.631-2.451c0.403-0.376,1.037-0.356,1.413,0.05c0.377,0.404,0.354,1.037-0.05,1.413l-1.846,1.72
				l1.846,1.722c0.404,0.377,0.427,1.01,0.05,1.413C16.45,49.058,16.183,49.164,15.916,49.164z"/>
		</g>
		<g>
			<path fill="#FFFFFF" d="M21.746,46.71H13.91c-0.553,0-1-0.447-1-1s0.447-1,1-1h7.836c0.553,0,1,0.447,1,1
				S22.299,46.71,21.746,46.71z"/>
		</g>
	</g>
</g>
<g>
	<g>
		<path fill="#FFFFFF" d="M19.08,114.393c-4.453,0-9.057-2.051-12.631-5.625l-0.071-0.076l0.001-0.001
			c-3.708-3.737-5.729-8.432-5.621-12.96l0.008-0.334l0.207-0.262c0.32-0.407,0.637-0.767,0.968-1.098
			c1.214-1.213,2.64-2.141,4.239-2.761c0.194-0.075,0.414-0.114,0.652-0.114c0.539,0,1.751,0.274,2.061,1.123
			c0.546,1.517,1.235,3.494,1.736,5.386c0.139,0.531,0.003,1.814-0.739,2.282l-1.767,1.121c0.016,0.014,0.008,0.29,0.238,0.605
			c0.686,0.939,1.48,1.87,2.36,2.766c0.887,0.871,1.814,1.661,2.746,2.339c0.182,0.133,0.387,0.21,0.553,0.21l0.612-0.854
			l0.564-0.888c0.489-0.76,1.717-0.781,1.854-0.781c0.144,0,0.271,0.013,0.388,0.039c2.329,0.52,3.716,0.967,5.493,1.773
			c0.79,0.356,1.289,1.789,0.936,2.688c-0.616,1.595-1.544,3.021-2.754,4.233c-0.344,0.341-0.714,0.667-1.104,0.972l-0.261,0.204
			L19.08,114.393z M2.754,96.112c0.016,3.862,1.883,8.014,5.039,11.171l0.097,0.098c3.164,3.163,7.233,4.997,11.146,5.012
			c0.233-0.194,0.456-0.396,0.665-0.604c1.009-1.012,1.785-2.205,2.303-3.543c-0.011-0.008-0.05-0.13-0.092-0.228
			c-1.548-0.689-2.818-1.09-4.91-1.557c-0.052,0.007-0.154,0.027-0.235,0.05l-1.006,1.585c-0.622,1.011-2.28,1.176-3.473,0.303
			c-1.008-0.732-2.012-1.588-2.981-2.54c-0.96-0.978-1.818-1.982-2.562-3c-0.49-0.671-0.69-1.468-0.55-2.188
			c0.108-0.555,0.416-1.014,0.864-1.292l1.58-1.003c0.024-0.093,0.044-0.216,0.04-0.276c-0.439-1.637-1.062-3.443-1.576-4.881
			c-0.086-0.031-0.194-0.058-0.271-0.058C5.564,93.66,4.37,94.438,3.356,95.45C3.152,95.654,2.954,95.872,2.754,96.112z"/>
	</g>
	<g>
		<path fill="#FFFFFF" d="M18.037,102.416c-3.423,0-6.207-2.785-6.207-6.208S14.614,90,18.037,90c3.424,0,6.209,2.785,6.209,6.208
			S21.461,102.416,18.037,102.416z M18.037,91c-2.871,0-5.207,2.336-5.207,5.208s2.336,5.208,5.207,5.208
			c2.872,0,5.209-2.336,5.209-5.208S20.909,91,18.037,91z"/>
	</g>
	<g>
		<g>
			<path fill="#FFFFFF" d="M16.997,99.657h-0.922c-0.411,0-0.745-0.334-0.745-0.745v-5.41c0-0.41,0.334-0.744,0.745-0.744h0.922
				c0.411,0,0.745,0.334,0.745,0.744v5.41C17.742,99.323,17.408,99.657,16.997,99.657z M16.075,93.409
				c-0.052,0-0.096,0.043-0.096,0.094v5.41c0,0.051,0.044,0.095,0.096,0.095h0.922c0.052,0,0.095-0.043,0.095-0.095v-5.41
				c0-0.05-0.044-0.094-0.095-0.094C16.997,93.409,16.075,93.409,16.075,93.409z"/>
		</g>
		<g>
			<path fill="#FFFFFF" d="M20.002,99.657H19.08c-0.41,0-0.745-0.334-0.745-0.745v-5.41c0-0.41,0.335-0.744,0.745-0.744h0.922
				c0.411,0,0.745,0.334,0.745,0.744v5.41C20.747,99.323,20.413,99.657,20.002,99.657z M19.08,93.409
				c-0.052,0-0.095,0.043-0.095,0.094v5.41c0,0.051,0.043,0.095,0.095,0.095h0.922c0.052,0,0.096-0.043,0.096-0.095v-5.41
				c0-0.05-0.045-0.094-0.096-0.094C20.002,93.409,19.08,93.409,19.08,93.409z"/>
		</g>
	</g>
</g>
<g>
	<g>
		<path fill="#FFFFFF" d="M15.505,163.642c-3.756,0-7.638-1.73-10.652-4.744l-0.059-0.059c-3.104-3.105-4.832-7.091-4.741-10.936
			l0.007-0.282l0.175-0.221c0.27-0.343,0.537-0.647,0.816-0.926c1.024-1.023,2.226-1.805,3.575-2.328
			c0.164-0.063,0.349-0.096,0.55-0.096c0.455,0,1.477,0.231,1.738,0.947c0.461,1.281,1.043,2.951,1.463,4.543
			c0.124,0.46-0.017,1.543-0.622,1.924l-1.491,0.945c0.013,0.012,0.007,0.245,0.201,0.511c0.578,0.792,1.249,1.577,1.991,2.332
			c0.746,0.733,1.529,1.4,2.315,1.973c0.152,0.112,0.325,0.177,0.466,0.177c0.049,0,0.077-0.008,0.085-0.012l0.908-1.459
			c0.412-0.639,1.447-0.657,1.563-0.657c0.121,0,0.228,0.011,0.327,0.033c1.964,0.438,3.134,0.815,4.633,1.495
			c0.666,0.301,1.087,1.509,0.789,2.267c-0.52,1.345-1.302,2.547-2.323,3.57c-0.29,0.287-0.602,0.563-0.931,0.819l-0.22,0.172
			L15.505,163.642z M1.736,148.225c0.013,3.257,1.588,6.758,4.25,9.421l0.063,0.063c2.687,2.687,6.118,4.233,9.418,4.246
			c0.197-0.164,0.385-0.334,0.561-0.509c0.851-0.853,1.506-1.86,1.942-2.988c-0.009-0.007-0.042-0.11-0.077-0.192
			c-1.305-0.581-2.377-0.919-4.141-1.313c-0.044,0.006-0.13,0.023-0.199,0.042l-0.847,1.337c-0.525,0.852-1.926,0.99-2.93,0.255
			c-0.85-0.619-1.696-1.341-2.512-2.142c-0.81-0.824-1.534-1.672-2.16-2.53c-0.413-0.566-0.582-1.238-0.464-1.845
			c0.091-0.468,0.351-0.855,0.729-1.09l1.333-0.845c0.02-0.078,0.035-0.179,0.033-0.231c-0.369-1.381-0.894-2.906-1.328-4.12
			c-0.072-0.026-0.164-0.049-0.229-0.049c-1.07,0.42-2.076,1.076-2.932,1.93C2.072,147.839,1.905,148.023,1.736,148.225z"/>
	</g>
	<g>
		<g>
			<path fill="#FFFFFF" d="M18.102,148.477c-1.145,0-2.077-1.036-2.077-2.309c0-1.272,0.931-2.309,2.077-2.309
				c1.144,0,2.075,1.036,2.075,2.309C20.177,147.441,19.246,148.477,18.102,148.477z M18.102,144.956c-0.54,0-0.98,0.544-0.98,1.211
				c0,0.669,0.439,1.212,0.98,1.212c0.539,0,0.978-0.544,0.978-1.212S18.641,144.956,18.102,144.956z"/>
		</g>
		<g>
			<path fill="#FFFFFF" d="M21.004,153.846h-5.88c-0.288,0-0.527-0.222-0.547-0.51c-0.046-0.637-0.089-1.273-0.131-1.9
				c-0.052-0.769,0.523-1.624,1.28-1.903c1.51-0.543,3.169-0.54,4.67-0.002c0.763,0.28,1.338,1.135,1.285,1.907l-0.13,1.898
				C21.531,153.623,21.293,153.846,21.004,153.846z M15.636,152.749h4.857l0.094-1.386c0.016-0.234-0.213-0.672-0.564-0.801
				c-1.254-0.451-2.658-0.451-3.921,0.001c-0.345,0.128-0.576,0.567-0.56,0.8C15.573,151.821,15.604,152.284,15.636,152.749z"/>
		</g>
		<g>
			<path fill="#FFFFFF" d="M21.004,153.846h-5.88c-0.288,0-0.527-0.222-0.547-0.51c-0.046-0.637-0.089-1.273-0.131-1.9
				c-0.052-0.769,0.523-1.624,1.28-1.903c1.51-0.543,3.169-0.54,4.67-0.002c0.763,0.28,1.338,1.135,1.285,1.907l-0.13,1.898
				C21.531,153.623,21.293,153.846,21.004,153.846z M15.636,152.749h4.857l0.094-1.386c0.016-0.234-0.213-0.672-0.564-0.801
				c-1.254-0.451-2.658-0.451-3.921,0.001c-0.345,0.128-0.576,0.567-0.56,0.8C15.573,151.821,15.604,152.284,15.636,152.749z"/>
		</g>
		<g>
			<path fill="#FFFFFF" d="M24.562,152.955h-2.341c-0.152,0-0.275-0.123-0.275-0.274s0.123-0.274,0.275-0.274h2.085l0.095-1.383
				c0.021-0.301-0.244-0.755-0.617-0.893c-0.531-0.19-1.091-0.292-1.662-0.302c-0.152-0.002-0.272-0.128-0.27-0.279
				c0.003-0.15,0.125-0.269,0.275-0.269c0.001,0,0.003,0,0.004,0c0.63,0.011,1.249,0.124,1.84,0.335
				c0.571,0.21,1.018,0.872,0.977,1.446l-0.112,1.638C24.825,152.844,24.706,152.955,24.562,152.955z"/>
		</g>
		<g>
			<path fill="#FFFFFF" d="M22.761,148.685c-0.808,0-1.466-0.739-1.466-1.646s0.658-1.646,1.466-1.646
				c0.807,0,1.464,0.739,1.464,1.646S23.567,148.685,22.761,148.685z M22.761,145.941c-0.506,0-0.917,0.493-0.917,1.098
				s0.411,1.098,0.917,1.098c0.504,0,0.915-0.493,0.915-1.098S23.265,145.941,22.761,145.941z"/>
		</g>
		<g>
			<path fill="#FFFFFF" d="M13.9,152.955h-2.342c-0.144,0-0.264-0.111-0.274-0.255l-0.111-1.639
				c-0.041-0.573,0.406-1.235,0.975-1.445c0.593-0.212,1.212-0.325,1.842-0.335c0.157-0.023,0.276,0.118,0.279,0.269
				c0.002,0.152-0.118,0.277-0.269,0.279c-0.571,0.01-1.131,0.112-1.664,0.303c-0.371,0.137-0.637,0.591-0.615,0.891l0.094,1.384
				H13.9c0.152,0,0.274,0.123,0.274,0.274S14.051,152.955,13.9,152.955z"/>
		</g>
		<g>
			<path fill="#FFFFFF" d="M13.359,148.685c-0.807,0-1.464-0.739-1.464-1.646s0.657-1.646,1.464-1.646
				c0.809,0,1.466,0.739,1.466,1.646S14.168,148.685,13.359,148.685z M13.359,145.941c-0.504,0-0.915,0.493-0.915,1.098
				s0.411,1.098,0.915,1.098c0.506,0,0.917-0.493,0.917-1.098S13.865,145.941,13.359,145.941z"/>
		</g>
	</g>
</g>
<g>
	<g>
		<path fill="#FFFFFF" d="M21.618,207.781c-0.19,0-0.368-0.039-0.529-0.114c-1.272-0.598-2.924-1.395-4.414-2.262
			c-0.442-0.258-1.199-1.2-1.013-2.009l0.375-1.686c-0.056-0.053-0.182-0.14-0.396-0.173c-0.999-0.156-2.061-0.24-3.155-0.25
			c-1.072,0.009-2.13,0.093-3.124,0.25c-0.217,0.033-0.343,0.12-0.398,0.173l0.379,1.694c0.188,0.846-0.615,1.745-0.982,1.979
			c-1.767,1.122-2.907,1.706-4.519,2.313l-0.17,0.064l-0.275,0.014c-0.669,0-1.636-0.503-1.955-1.225
			c-0.612-1.385-0.925-2.858-0.927-4.379c0.002-0.425,0.03-0.859,0.083-1.299l0.04-0.329l0.229-0.239
			c2.774-2.913,7-4.584,11.591-4.585l0.111,0.004c4.63,0.022,8.812,1.69,11.567,4.58l0.229,0.24l0.04,0.33
			c0.055,0.452,0.081,0.877,0.081,1.297c0,1.516-0.311,2.989-0.925,4.38C23.24,207.275,22.28,207.781,21.618,207.781z
			 M3.237,205.666c0.031,0.024,0.078,0.052,0.123,0.074c1.352-0.524,2.375-1.059,3.928-2.045c-0.006-0.002,0.021-0.044,0.049-0.091
			l-0.349-1.557c-0.111-0.471-0.011-0.979,0.286-1.421c0.378-0.561,1.026-0.949,1.779-1.064c1.087-0.172,2.244-0.265,3.433-0.274
			c1.209,0.011,2.368,0.102,3.463,0.273c0.753,0.117,1.401,0.507,1.778,1.068c0.296,0.439,0.396,0.948,0.28,1.432l-0.344,1.546
			c0.032,0.05,0.071,0.102,0.098,0.126c1.247,0.717,2.716,1.434,3.909,1.997c0.034-0.02,0.068-0.041,0.093-0.061
			c0.479-1.112,0.723-2.29,0.723-3.499c0-0.236-0.011-0.476-0.032-0.725c-2.378-2.338-6.055-3.726-9.911-3.726l-0.142-0.003
			c-3.804,0.003-7.477,1.391-9.853,3.729c-0.022,0.248-0.033,0.489-0.034,0.729C2.516,203.383,2.759,204.559,3.237,205.666z"/>
	</g>
</g>
<g>
	<g>
		<g>
			<path fill="#FFFFFF" d="M10.444,262.06c-0.224,0-0.444-0.074-0.625-0.22l-4.579-3.666H2.417c-0.552,0-1-0.447-1-1v-8.846
				c0-0.553,0.448-1,1-1h2.819l4.583-3.669c0.3-0.241,0.714-0.287,1.058-0.121c0.348,0.166,0.567,0.517,0.567,0.901v16.62
				c0,0.385-0.22,0.735-0.567,0.901C10.74,262.028,10.592,262.06,10.444,262.06z M3.417,256.175h2.174
				c0.228,0,0.448,0.077,0.625,0.22l3.228,2.584v-12.457l-3.232,2.588c-0.177,0.143-0.397,0.22-0.625,0.22h-2.17
				C3.417,249.33,3.417,256.175,3.417,256.175z"/>
		</g>
	</g>
	<g>
		<g>
			<path fill="#FFFFFF" d="M22.583,257.993c-0.256,0-0.512-0.098-0.707-0.293l-8.486-8.486c-0.391-0.391-0.391-1.023,0-1.414
				s1.023-0.391,1.414,0l8.486,8.486c0.391,0.391,0.391,1.023,0,1.414C23.095,257.896,22.839,257.993,22.583,257.993z"/>
		</g>
		<g>
			<path fill="#FFFFFF" d="M14.155,258.052c-0.251,0-0.503-0.094-0.697-0.283c-0.396-0.385-0.405-1.019-0.02-1.414l8.369-8.603
				c0.386-0.396,1.019-0.405,1.414-0.02c0.396,0.385,0.405,1.019,0.02,1.414l-8.369,8.604
				C14.676,257.95,14.416,258.052,14.155,258.052z"/>
		</g>
	</g>
</g>
<g>
	<g>
		<path fill="#FFFFFF" d="M6.954,325.319c-1.301,0-2.523-0.507-3.442-1.427c-0.919-0.919-1.426-2.141-1.426-3.441
			s0.507-2.522,1.427-3.442l2.383-2.38c0.391-0.391,1.023-0.391,1.414,0c0.391,0.391,0.391,1.024,0,1.414l-2.383,2.381
			c-0.542,0.542-0.841,1.262-0.841,2.027c0,0.766,0.299,1.485,0.841,2.026c1.086,1.088,2.975,1.085,4.057,0.001l2.381-2.381
			c0.391-0.391,1.023-0.391,1.414,0s0.391,1.023,0,1.414l-2.381,2.381C9.478,324.813,8.255,325.319,6.954,325.319z"/>
	</g>
	<g>
		<path fill="#FFFFFF" d="M12.813,322.191c-0.328,0-0.647-0.161-0.837-0.451c-1.657-2.524-3.78-4.647-6.309-6.309
			c-0.419-0.275-0.569-0.817-0.352-1.27l4.373-9.101c0.125-0.261,0.356-0.454,0.634-0.531c0.277-0.077,0.574-0.031,0.816,0.128
			c4.648,3.052,8.556,6.959,11.611,11.611c0.158,0.241,0.205,0.538,0.128,0.816s-0.271,0.509-0.531,0.634l-9.102,4.373
			C13.106,322.159,12.958,322.191,12.813,322.191z M7.49,314.255c2.203,1.563,4.102,3.463,5.664,5.663l7.281-3.499
			c-2.584-3.694-5.755-6.865-9.446-9.446L7.49,314.255z"/>
	</g>
	<g>
		<path fill="#FFFFFF" d="M12.432,325.895c-0.183,0-0.368-0.014-0.557-0.044c-0.918-0.144-1.826-0.624-2.557-1.353
			c-0.392-0.391-0.392-1.023-0.002-1.414c0.391-0.393,1.025-0.391,1.414-0.002c0.428,0.427,0.958,0.717,1.454,0.794
			c0.222,0.035,0.64,0.056,0.897-0.204c0.391-0.393,1.023-0.391,1.414-0.002c0.392,0.391,0.392,1.023,0.002,1.414
			C13.971,325.611,13.239,325.895,12.432,325.895z"/>
	</g>
</g>
<g>
	<g>
		<path fill="#FFFFFF" d="M19.08,385.947c-4.453,0-9.057-2.051-12.631-5.625l-0.071-0.076l0.001-0.001
			c-3.708-3.737-5.729-8.432-5.621-12.96l0.008-0.334l0.207-0.262c0.32-0.407,0.637-0.767,0.968-1.098
			c1.214-1.213,2.64-2.141,4.239-2.761c0.194-0.075,0.414-0.114,0.652-0.114c0.539,0,1.751,0.274,2.061,1.123
			c0.546,1.517,1.235,3.494,1.736,5.386c0.139,0.531,0.003,1.815-0.739,2.282l-1.767,1.121c0.016,0.014,0.008,0.29,0.238,0.605
			c0.686,0.939,1.48,1.87,2.36,2.766c0.887,0.871,1.814,1.661,2.746,2.339c0.182,0.133,0.387,0.21,0.553,0.21l0.612-0.854
			l0.564-0.888c0.489-0.76,1.717-0.781,1.854-0.781c0.144,0,0.271,0.013,0.388,0.039c2.329,0.52,3.716,0.967,5.493,1.772
			c0.79,0.356,1.289,1.789,0.935,2.689c-0.616,1.595-1.544,3.02-2.754,4.233c-0.344,0.341-0.714,0.667-1.104,0.972l-0.261,0.204
			L19.08,385.947z M2.754,367.667c0.016,3.862,1.883,8.014,5.039,11.171l0.097,0.098c3.164,3.163,7.233,4.997,11.146,5.012
			c0.233-0.194,0.456-0.397,0.665-0.604c1.009-1.012,1.785-2.205,2.303-3.543c-0.011-0.008-0.05-0.13-0.092-0.227
			c-1.548-0.69-2.818-1.09-4.91-1.557c-0.052,0.007-0.154,0.027-0.235,0.05l-1.006,1.585c-0.622,1.011-2.28,1.176-3.473,0.303
			c-1.008-0.732-2.012-1.588-2.981-2.54c-0.96-0.978-1.818-1.982-2.562-3c-0.49-0.671-0.69-1.468-0.55-2.188
			c0.108-0.555,0.416-1.014,0.864-1.292l1.58-1.003c0.024-0.093,0.044-0.216,0.04-0.276c-0.439-1.637-1.062-3.443-1.576-4.881
			c-0.086-0.031-0.194-0.058-0.271-0.058c-1.269,0.498-2.462,1.275-3.477,2.288C3.152,367.208,2.954,367.426,2.754,367.667z"/>
	</g>
	<g>
		<path fill="#FFFFFF" d="M18.037,373.97c-3.423,0-6.207-2.785-6.207-6.208s2.784-6.208,6.207-6.208
			c3.424,0,6.209,2.785,6.209,6.208S21.461,373.97,18.037,373.97z M18.037,362.554c-2.871,0-5.207,2.336-5.207,5.208
			s2.336,5.208,5.207,5.208c2.872,0,5.209-2.336,5.209-5.208S20.909,362.554,18.037,362.554z"/>
	</g>
	<g>
		<path fill="#FFFFFF" d="M14.903,366.749v-0.656c0-0.09,0.04-0.16,0.12-0.208l0.729-0.456c0.122-0.074,0.227-0.112,0.312-0.112
			h0.641c0.111,0,0.168,0.056,0.168,0.168v4.808c0,0.064-0.013,0.108-0.036,0.132c-0.024,0.024-0.065,0.036-0.124,0.036h-0.688
			c-0.111,0-0.168-0.056-0.168-0.168v-3.896l-0.784,0.448C14.96,366.893,14.903,366.86,14.903,366.749z"/>
		<path fill="#FFFFFF" d="M19.936,370.46h-0.8c-0.422,0-0.747-0.112-0.976-0.336s-0.344-0.547-0.344-0.968v-2.536
			c0-0.421,0.115-0.744,0.344-0.968s0.555-0.336,0.976-0.336h0.8c0.416,0,0.738,0.113,0.968,0.34
			c0.229,0.227,0.345,0.548,0.345,0.964v2.536c0,0.416-0.115,0.738-0.345,0.964C20.674,370.347,20.352,370.46,19.936,370.46z
			 M19.304,369.581h0.472c0.171,0,0.291-0.036,0.36-0.108s0.104-0.193,0.104-0.364v-2.44c0-0.171-0.034-0.292-0.104-0.364
			c-0.069-0.072-0.189-0.108-0.36-0.108h-0.472c-0.171,0-0.291,0.036-0.36,0.108s-0.104,0.193-0.104,0.364v2.44
			c0,0.171,0.034,0.292,0.104,0.364C19.013,369.544,19.133,369.581,19.304,369.581z"/>
	</g>
</g>
<g>
	<g>
		<path fill="#FFFFFF" d="M22.765,442.459H2.235c-0.553,0-1-0.447-1-1v-16.332c0-0.553,0.447-1,1-1h20.529c0.553,0,1,0.447,1,1
			v16.332C23.765,442.012,23.317,442.459,22.765,442.459z M3.235,440.459h18.529v-14.332H3.235V440.459z"/>
	</g>
	<g>
		<path fill="#FFFFFF" d="M18.931,427.793c-0.553,0-1-0.447-1-1v-3.333c0-0.553,0.447-1,1-1s1,0.447,1,1v3.333
			C19.931,427.346,19.483,427.793,18.931,427.793z"/>
	</g>
	<g>
		<path fill="#FFFFFF" d="M6.181,427.793c-0.553,0-1-0.447-1-1v-3.333c0-0.553,0.447-1,1-1s1,0.447,1,1v3.333
			C7.181,427.346,6.733,427.793,6.181,427.793z"/>
	</g>
	<g>
		<path fill="#FFFFFF" d="M22.708,431.029H2.376c-0.276,0-0.5-0.224-0.5-0.5s0.224-0.5,0.5-0.5h20.332c0.276,0,0.5,0.224,0.5,0.5
			S22.984,431.029,22.708,431.029z"/>
	</g>
	<polygon fill="#FFFFFF" points="6.913,433.06 4.974,433.06 4.974,434.999 6.913,434.999 	"/>
	<polygon fill="#FFFFFF" points="10.271,433.06 8.331,433.06 8.331,434.999 10.271,434.999 	"/>
	<polygon fill="#FFFFFF" points="13.63,433.06 11.689,433.06 11.689,434.999 13.63,434.999 	"/>
	<polygon fill="#FFFFFF" points="16.987,433.06 15.046,433.06 15.046,434.999 16.987,434.999 	"/>
	<polygon fill="#FFFFFF" points="20.345,433.06 18.405,433.06 18.405,434.999 20.345,434.999 	"/>
	<polygon fill="#FFFFFF" points="6.913,436.176 4.974,436.176 4.974,438.115 6.913,438.115 	"/>
	<polygon fill="#FFFFFF" points="10.271,436.176 8.331,436.176 8.331,438.115 10.271,438.115 	"/>
	<polygon fill="#FFFFFF" points="13.63,436.176 11.689,436.176 11.689,438.115 13.63,438.115 	"/>
	<polygon fill="#FFFFFF" points="16.987,436.176 15.046,436.176 15.046,438.115 16.987,438.115 	"/>
	<polygon fill="#FFFFFF" points="20.345,436.176 18.405,436.176 18.405,438.115 20.345,438.115 	"/>
</g>
<g>
	<g>
		<path fill="#FFFFFF" d="M13.901,499.397c0,0.192-0.04,0.374-0.117,0.535c-0.636,1.352-1.482,3.106-2.398,4.681
			c-0.263,0.451-1.226,1.229-2.052,1.045l-1.833-0.411c-0.066,0.057-0.189,0.216-0.23,0.484c-0.169,1.079-0.256,2.178-0.267,3.362
			c0.011,1.148,0.101,2.274,0.267,3.33c0.042,0.272,0.164,0.432,0.23,0.488l1.836-0.411c0.851-0.191,1.797,0.647,2.028,1.012
			c1.19,1.873,1.809,3.082,2.449,4.788c0.053,0.139,0.08,0.29,0.08,0.448c0,0.692-0.519,1.69-1.267,2.013
			c-1.463,0.648-3.019,0.977-4.618,0.977c-0.441,0-0.901-0.03-1.369-0.087l-0.327-0.04l-0.236-0.225
			c-3.081-2.935-4.848-7.402-4.848-12.259c0-4.947,1.767-9.417,4.847-12.353l0.242-0.229l0.331-0.038
			c0.498-0.057,0.942-0.084,1.36-0.084c1.609,0.002,3.165,0.331,4.626,0.978C13.357,497.714,13.901,498.714,13.901,499.397z
			 M11.768,518.969c0.034-0.042,0.077-0.117,0.108-0.183c-0.561-1.453-1.13-2.546-2.188-4.211c-0.009-0.004-0.077-0.049-0.143-0.089
			l-1.677,0.376c-0.482,0.114-1.005,0.012-1.456-0.292c-0.582-0.39-0.984-1.063-1.103-1.843c-0.183-1.148-0.28-2.374-0.29-3.636
			c0.01-1.281,0.108-2.509,0.288-3.666c0.121-0.779,0.523-1.452,1.103-1.842c0.452-0.304,0.974-0.408,1.468-0.291l1.673,0.375
			c0.064-0.04,0.139-0.096,0.173-0.13c0.771-1.342,1.543-2.922,2.145-4.199c-0.036-0.071-0.085-0.143-0.119-0.173
			c-1.125-0.487-2.411-0.759-3.74-0.76c-0.249,0-0.512,0.012-0.802,0.036c-2.504,2.539-3.992,6.467-3.992,10.588v0.119
			c0,4.1,1.488,8.027,3.995,10.563c0.273,0.024,0.538,0.036,0.798,0.036C9.307,519.749,10.572,519.487,11.768,518.969z"/>
	</g>
	<g>
		<g>
			<path fill="#FFFFFF" d="M19.705,501.233v-1.305c-0.243,0.186-0.407,0.28-0.49,0.28c-0.041,0-0.076-0.017-0.108-0.048
				c-0.031-0.032-0.045-0.069-0.045-0.111c0-0.049,0.014-0.084,0.045-0.107c0.03-0.023,0.084-0.053,0.161-0.09
				c0.118-0.054,0.209-0.112,0.278-0.173c0.07-0.059,0.132-0.127,0.185-0.202c0.053-0.074,0.088-0.12,0.104-0.139
				c0.016-0.016,0.047-0.025,0.092-0.025c0.052,0,0.091,0.02,0.122,0.059s0.045,0.093,0.045,0.162v1.643
				c0,0.192-0.065,0.289-0.196,0.289c-0.057,0-0.104-0.02-0.141-0.059C19.722,501.368,19.705,501.309,19.705,501.233z"/>
		</g>
		<g>
			<path fill="#FFFFFF" d="M23.28,503.107h-6.976c-0.27,0-0.489-0.218-0.489-0.489v-4.474c0-0.272,0.219-0.49,0.489-0.49h6.976
				c0.271,0,0.49,0.218,0.49,0.49v4.474C23.771,502.889,23.551,503.107,23.28,503.107z M16.795,502.128h5.996v-3.495h-5.996V502.128
				z"/>
		</g>
	</g>
	<g>
		<g>
			<path fill="#FFFFFF" d="M19.551,507.005h0.746c0.077,0,0.134,0.014,0.174,0.046c0.04,0.03,0.059,0.072,0.059,0.125
				c0,0.047-0.015,0.086-0.048,0.119c-0.031,0.032-0.079,0.048-0.141,0.048h-1.058c-0.068,0-0.128-0.019-0.167-0.059
				c-0.04-0.04-0.059-0.086-0.059-0.14c0-0.034,0.013-0.08,0.04-0.137c0.024-0.056,0.053-0.101,0.084-0.134
				c0.128-0.131,0.242-0.245,0.343-0.339c0.103-0.094,0.176-0.156,0.222-0.186c0.077-0.055,0.143-0.111,0.194-0.168
				c0.053-0.055,0.092-0.112,0.121-0.172c0.026-0.058,0.04-0.116,0.04-0.173c0-0.061-0.013-0.115-0.042-0.164
				c-0.031-0.048-0.07-0.086-0.121-0.113s-0.103-0.04-0.163-0.04c-0.125,0-0.224,0.055-0.297,0.165
				c-0.009,0.014-0.024,0.054-0.048,0.118c-0.022,0.064-0.046,0.113-0.075,0.148c-0.029,0.034-0.07,0.051-0.125,0.051
				c-0.048,0-0.086-0.016-0.119-0.047c-0.031-0.032-0.046-0.075-0.046-0.13c0-0.065,0.013-0.134,0.044-0.206
				c0.031-0.071,0.073-0.137,0.132-0.195s0.134-0.106,0.224-0.141c0.09-0.036,0.196-0.055,0.319-0.055
				c0.145,0,0.27,0.023,0.374,0.069c0.066,0.031,0.125,0.073,0.176,0.126s0.092,0.116,0.119,0.186
				c0.029,0.07,0.042,0.142,0.042,0.218c0,0.119-0.028,0.227-0.088,0.324c-0.059,0.097-0.119,0.173-0.18,0.228
				c-0.059,0.056-0.165,0.141-0.306,0.259c-0.145,0.118-0.244,0.208-0.297,0.274C19.598,506.938,19.573,506.969,19.551,507.005z"/>
		</g>
		<g>
			<path fill="#FFFFFF" d="M23.282,509.022h-6.978c-0.27,0-0.49-0.219-0.49-0.49v-4.474c0-0.271,0.22-0.491,0.49-0.491h6.978
				c0.268,0,0.488,0.22,0.488,0.491v4.474C23.771,508.802,23.551,509.022,23.282,509.022z M16.793,508.042h5.997v-3.494h-5.997
				V508.042z"/>
		</g>
	</g>
	<g>
		<g>
			<path fill="#FFFFFF" d="M19.721,511.984c0.087,0,0.163-0.025,0.228-0.077c0.063-0.052,0.095-0.126,0.095-0.222
				c0-0.074-0.024-0.137-0.075-0.191c-0.051-0.052-0.121-0.08-0.207-0.08c-0.058,0-0.107,0.009-0.145,0.025
				c-0.037,0.017-0.066,0.038-0.088,0.065s-0.043,0.061-0.062,0.103c-0.021,0.042-0.039,0.082-0.054,0.119
				c-0.011,0.02-0.029,0.036-0.052,0.047c-0.024,0.011-0.055,0.018-0.086,0.018c-0.039,0-0.074-0.016-0.107-0.047
				c-0.031-0.031-0.05-0.074-0.05-0.124s0.015-0.102,0.046-0.157c0.03-0.054,0.074-0.107,0.133-0.157
				c0.056-0.05,0.13-0.09,0.216-0.119c0.086-0.031,0.183-0.045,0.287-0.045c0.095,0,0.179,0.013,0.256,0.038
				c0.076,0.026,0.142,0.062,0.199,0.109c0.056,0.048,0.099,0.103,0.126,0.166c0.03,0.063,0.044,0.131,0.044,0.204
				c0,0.096-0.02,0.178-0.063,0.246c-0.042,0.069-0.1,0.135-0.178,0.201c0.074,0.039,0.136,0.086,0.189,0.138
				c0.051,0.051,0.089,0.109,0.114,0.172c0.026,0.062,0.039,0.13,0.039,0.202c0,0.087-0.018,0.171-0.053,0.253
				c-0.034,0.081-0.086,0.154-0.153,0.217c-0.069,0.064-0.15,0.114-0.242,0.15c-0.093,0.036-0.197,0.054-0.31,0.054
				c-0.115,0-0.218-0.021-0.308-0.061c-0.091-0.042-0.167-0.094-0.224-0.155c-0.059-0.062-0.104-0.126-0.134-0.192
				c-0.031-0.065-0.046-0.12-0.046-0.163c0-0.055,0.02-0.1,0.053-0.135c0.037-0.034,0.082-0.051,0.136-0.051
				c0.029,0,0.053,0.008,0.078,0.024c0.024,0.015,0.042,0.035,0.05,0.056c0.047,0.134,0.102,0.232,0.157,0.296
				c0.058,0.064,0.139,0.097,0.242,0.097c0.06,0,0.115-0.015,0.171-0.045c0.054-0.028,0.1-0.072,0.136-0.13
				c0.036-0.057,0.053-0.123,0.053-0.2c0-0.112-0.029-0.199-0.091-0.263c-0.06-0.063-0.146-0.095-0.255-0.095
				c-0.019,0-0.05,0.002-0.089,0.006c-0.04,0.004-0.066,0.006-0.077,0.006c-0.054,0-0.093-0.013-0.122-0.04
				c-0.03-0.027-0.044-0.063-0.044-0.109s0.019-0.083,0.052-0.111c0.035-0.029,0.086-0.043,0.154-0.043L19.721,511.984
				L19.721,511.984z"/>
		</g>
		<g>
			<path fill="#FFFFFF" d="M23.28,514.934h-6.976c-0.27,0-0.489-0.219-0.489-0.49v-4.474c0-0.269,0.219-0.489,0.489-0.489h6.976
				c0.271,0,0.49,0.22,0.49,0.489v4.474C23.771,514.715,23.551,514.934,23.28,514.934z M16.795,513.956h5.996v-3.495h-5.996V513.956
				z"/>
		</g>
	</g>
	<g>
		<g>
			<path fill="#FFFFFF" d="M19.957,518.985v-0.267h-0.719c-0.092,0-0.161-0.02-0.206-0.061c-0.046-0.042-0.069-0.097-0.069-0.169
				c0-0.017,0.006-0.036,0.011-0.054c0.007-0.019,0.018-0.038,0.03-0.059c0.014-0.02,0.029-0.041,0.043-0.06
				c0.013-0.019,0.032-0.042,0.054-0.07l0.759-1.017c0.051-0.068,0.09-0.115,0.123-0.146c0.032-0.03,0.072-0.045,0.117-0.045
				c0.144,0,0.218,0.083,0.218,0.25v1.109h0.062c0.074,0,0.133,0.011,0.176,0.031c0.046,0.02,0.068,0.064,0.068,0.132
				c0,0.055-0.02,0.096-0.055,0.121c-0.037,0.026-0.091,0.037-0.165,0.037h-0.086v0.267c0,0.075-0.017,0.129-0.048,0.164
				c-0.034,0.036-0.078,0.054-0.133,0.054c-0.053,0-0.095-0.019-0.128-0.055C19.974,519.112,19.957,519.057,19.957,518.985z
				 M19.339,518.396h0.618v-0.832L19.339,518.396z"/>
		</g>
		<g>
			<path fill="#FFFFFF" d="M23.282,520.848h-6.978c-0.27,0-0.49-0.219-0.49-0.49v-4.474c0-0.271,0.22-0.489,0.49-0.489h6.978
				c0.268,0,0.488,0.219,0.488,0.489v4.474C23.771,520.629,23.551,520.848,23.282,520.848z M16.793,519.869h5.997v-3.495h-5.997
				V519.869z"/>
		</g>
	</g>
</g>
<g>
	<g>
		<path fill="#FFFFFF" d="M16.514,600c-0.224,0-0.444-0.074-0.625-0.22l-4.579-3.666H8.486c-0.552,0-1-0.447-1-1v-8.846
			c0-0.553,0.448-1,1-1h2.819l4.583-3.669c0.3-0.241,0.714-0.287,1.058-0.121c0.348,0.166,0.567,0.517,0.567,0.901v16.62
			c0,0.385-0.22,0.735-0.567,0.901C16.809,599.968,16.661,600,16.514,600z M9.486,594.115h2.174c0.228,0,0.448,0.077,0.625,0.22
			l3.228,2.584v-12.457l-3.232,2.588c-0.177,0.143-0.397,0.22-0.625,0.22h-2.17C9.486,587.27,9.486,594.115,9.486,594.115z"/>
	</g>
</g>
</svg>
