<?xml version="1.0" encoding="UTF-8" standalone="no"?>
<!DOCTYPE svg  PUBLIC '-//W3C//DTD SVG 1.1//EN'  'http://www.w3.org/Graphics/SVG/1.1/DTD/svg11.dtd'>
<svg xmlns="http://www.w3.org/2000/svg">
<defs>
<font id="Exo2-Regular" horiz-adv-x="570">
<font-face underline-position="-50" font-weight="400" descent="-200" panose-1="0 0 5 0 0 0 0 0 0 0" units-per-em="1000" unicode-range="U+0020-25CA" bbox="-174 -243 1218 934" x-height="487" underline-thickness="50" font-family="Exo2" ascent="800" cap-height="690"/>
<missing-glyph horiz-adv-x="1000"/>
<glyph glyph-name=".notdef" horiz-adv-x="1000"/>
<glyph glyph-name=".null" horiz-adv-x="0"/>
<glyph glyph-name="nonmarkingreturn" horiz-adv-x="333"/>
<glyph glyph-name="space" horiz-adv-x="223" unicode=" "/>
<glyph glyph-name="exclam" horiz-adv-x="273" unicode="!" d="M126 118h22q17 0 24.5 -7t7.5 -25v-54q0 -18 -7.5 -25t-24.5 -7h-22q-17 0 -24 7t-7 25v54q0 18 7 25t24 7zM179 389l-8 -178h-68l-9 178v306h85v-306z"/>
<glyph glyph-name="quotedbl" horiz-adv-x="353" unicode='&quot;' d="M278 475h-58l-6 215h69zM134 475h-59l-5 215h70z"/>
<glyph glyph-name="numbersign" horiz-adv-x="685" unicode="#" d="M452 448h-183l-31 -180h183zM520 448l-31 -180h109l-11 -55h-108l-37 -213h-68l37 213h-183l-37 -213h-68l37 213h-116l11 55h115l31 180h-115l11 55h113l33 187h68l-33 -187h183l33 187h68l-33 -187h111l-11 -55h-109z"/>
<glyph glyph-name="dollar" horiz-adv-x="564" unicode="$" d="M302 301l-17 -231q81 0 109.5 20.5t28.5 87.5q0 57 -19 79.5t-68 34.5zM146 518q0 -55 19.5 -78t68.5 -35l35 -9l18 227h-2q-44 0 -65 -2t-41 -12t-26.5 -31.5t-6.5 -59.5zM314 385l59 -15q77 -19 108.5 -65t31.5 -129q0 -114 -51.5 -151t-180.5 -37h-2l-9 -115h-46 l9 116q-89 4 -166 18l6 67q32 -1 69 -2t58.5 -1.5t38.5 -0.5l19 242l-64 16q-73 18 -105 64.5t-32 127.5q0 60 12.5 96.5t43 55t68 24.5t100.5 6h12l7 97h45l-7 -99q83 -3 148 -18l-6 -64q-81 4 -148 5z"/>
<glyph glyph-name="percent" horiz-adv-x="894" unicode="%" d="M685 346q-53 0 -73.5 -31.5t-20.5 -111.5v-7v-7q0 -81 20.5 -113t73.5 -32q54 0 75 33.5t21 118.5q0 84 -21 117t-75 33zM686 400q88 0 124 -47t36 -157q0 -111 -36 -158t-124 -47t-124 47t-36 158q0 110 36 157t124 47zM207 649q-54 0 -74.5 -33.5t-20.5 -117.5 t20.5 -117.5t74.5 -33.5t74.5 33t20.5 118q0 84 -20.5 117.5t-74.5 33.5zM252 0h-60l447 690h60zM207 703q89 0 125 -47t36 -158t-36 -158t-125 -47q-88 0 -124 47t-36 158t36 158t124 47z"/>
<glyph glyph-name="ampersand" horiz-adv-x="772" unicode="&amp;" d="M289 66q132 1 208 80v178h-191q-83 0 -115 -28.5t-32 -106.5q0 -70 28 -96.5t102 -26.5zM715 66l10 -62q-45 -13 -106 -13q-104 0 -120 86q-44 -47 -97 -67t-133 -20q-110 0 -156 41t-46 144q0 83 31 129t104 52v4q-61 6 -88 45.5t-27 115.5q0 60 14 95.5t49 54t78.5 24 t119.5 5.5q92 0 159 -10l-10 -65q-40 3 -152 3q-99 0 -134 -22t-35 -97q0 -69 29 -93.5t105 -24.5h189l7 128h71v-128h126l-1 -67h-125v-193q0 -35 14.5 -50t49.5 -15h74z"/>
<glyph glyph-name="quotesingle" horiz-adv-x="209" unicode="&apos;" d="M134 475h-59l-5 215h70z"/>
<glyph glyph-name="parenleft" horiz-adv-x="359" unicode="(" d="M317 790l11 -41q-99 -48 -145 -155.5t-46 -280.5q0 -339 191 -437l-11 -41q-136 52 -199.5 168t-63.5 309q0 194 63.5 310t199.5 168z"/>
<glyph glyph-name="parenright" horiz-adv-x="359" unicode=")" d="M32 749l10 41q136 -52 200 -167.5t64 -310.5q0 -193 -64 -309t-200 -168l-10 41q98 51 144 159t46 278q0 173 -46 280.5t-144 155.5z"/>
<glyph glyph-name="asterisk" horiz-adv-x="450" unicode="*" d="M397 551l-125 -32l-12 14v22l120 46zM190 555l-1 -22l-11 -14l-124 33l17 49zM243 530l100 -129l-41 -30l-77 123l-77 -122l-42 30l100 128l-7 161h52z"/>
<glyph glyph-name="plus" horiz-adv-x="551" unicode="+" d="M494 267h-187v-177h-64v177h-187v64h186v176h66v-176h186v-64z"/>
<glyph glyph-name="comma" horiz-adv-x="228" unicode="," d="M102 118h25q18 0 24.5 -7t6.5 -25v-64q-1 -85 -35 -154l-40 12q10 59 10 120q-24 0 -24 28v58q1 32 33 32z"/>
<glyph glyph-name="hyphen" horiz-adv-x="449" unicode="-" d="M377 220h-305v65h305v-65z"/>
<glyph glyph-name="period" horiz-adv-x="229" unicode="." d="M100 118h28q18 0 25 -7t7 -25v-54q0 -18 -7 -25t-25 -7h-28q-17 0 -24.5 7t-7.5 25v54q0 18 7.5 25t24.5 7z"/>
<glyph glyph-name="slash" horiz-adv-x="517" unicode="/" d="M97 -66h-70l393 756h70z"/>
<glyph glyph-name="zero" horiz-adv-x="603" unicode="0" d="M301 626q-85 0 -118 -63t-33 -218t33 -218t118 -63t118.5 63t33.5 218t-33.5 218t-118.5 63zM301 703q131 0 184.5 -83t53.5 -275t-53.5 -275t-184.5 -83t-184 83t-53 275t53 275t184 83z"/>
<glyph glyph-name="one" horiz-adv-x="398" unicode="1" d="M286 0h-88v547q0 35 5 60l-169 -53l-12 65l176 71h88v-690z"/>
<glyph glyph-name="two" horiz-adv-x="562" unicode="2" d="M271 702q109 0 160.5 -30.5t51.5 -118.5q0 -65 -27 -119.5t-96 -131.5l-198 -221q47 4 112 4h234v-85h-453v55q0 24 13 38l200 226q126 136 126 223v7q-1 47 -31.5 61t-97.5 14q-100 0 -198 -16l-6 68q111 26 210 26z"/>
<glyph glyph-name="three" horiz-adv-x="556" unicode="3" d="M258 703q116 0 164.5 -35t48.5 -125q0 -154 -101 -174v-4q64 -11 91 -54t29 -119v-7q0 -103 -50.5 -150.5t-168.5 -47.5q-93 0 -219 18l6 71q113 -10 191 -10q84 0 119 30t35 105q0 63 -28.5 95t-108.5 32h-128v69h128q74 1 97.5 34t23.5 92q-1 63 -30 82.5t-111 19.5 q-83 0 -175 -8l-7 68q102 18 194 18z"/>
<glyph glyph-name="four" horiz-adv-x="615" unicode="4" d="M571 178l-89 -9v-169h-83v169h-286q-32 0 -53 21.5t-21 51.5q0 16 8 34l196 414h87l-193 -408q-4 -9 -4 -18q0 -23 29 -23h237v203l15 114h68v-317h89v-63z"/>
<glyph glyph-name="five" horiz-adv-x="536" unicode="5" d="M456 615h-290l-10 -188l74 -6q137 -10 193.5 -56t56.5 -155q0 -48 -8.5 -83.5t-31 -69t-68.5 -51.5t-115 -18q-96 0 -205 25l10 71q101 -18 175 -18q92 0 123.5 33t33.5 108v6q0 26 -4.5 45.5t-11.5 33.5t-23.5 23.5t-30.5 15.5t-44.5 10t-53.5 6t-68 5l-46 3 q-15 2 -24.5 12.5t-8.5 26.5l16 296h365z"/>
<glyph glyph-name="six" horiz-adv-x="572" unicode="6" d="M300 63q83 0 108 37t25 123q0 87 -26.5 121.5t-101.5 34.5q-44 0 -77 -13.5t-75 -49.5q0 -64 2.5 -101.5t10.5 -70.5t24.5 -48.5t42.5 -24t67 -8.5zM328 450q108 0 148.5 -50t40.5 -177q0 -58 -8 -97.5t-30.5 -72.5t-67 -49t-112.5 -16q-60 0 -99.5 11t-66.5 33t-41.5 64 t-20 96t-5.5 136q0 97 11 163.5t30.5 108t54 64t74 30.5t98.5 8q83 0 139 -15l-8 -64q-44 4 -131 4q-51 0 -81.5 -9t-53.5 -35.5t-33 -75t-12 -129.5q36 40 75.5 56t98.5 16z"/>
<glyph glyph-name="seven" horiz-adv-x="512" unicode="7" d="M39 690h390q50 0 50 -39q0 -11 -4 -22l-215 -629h-88l194 564q9 27 21 51h-344z"/>
<glyph glyph-name="eight" horiz-adv-x="607" unicode="8" d="M306 323q-94 -1 -124 -27t-30 -106q0 -71 31 -97.5t122 -26.5q89 0 119 26t30 98q0 82 -28.5 107.5t-119.5 25.5zM305 629q-84 0 -112 -25t-28 -94q0 -71 27.5 -94t113.5 -23t111.5 23t25.5 94q0 69 -27 94t-111 25zM304 700q127 0 173 -41.5t46 -140.5q0 -147 -98 -158 v-4q62 -6 87.5 -52t25.5 -132q0 -98 -48.5 -139.5t-185.5 -42.5h-5q-132 0 -181 42t-49 140q0 86 26 132t88 52v4q-99 11 -99 158q0 98 46.5 140t173.5 42z"/>
<glyph glyph-name="nine" horiz-adv-x="572" unicode="9" d="M265 310q43 0 76.5 14t76.5 51q0 55 -1.5 87t-6.5 64.5t-14 48.5t-25 29.5t-39 18t-57 4.5q-79 0 -107.5 -37.5t-28.5 -118.5v-6v-5q0 -77 28 -113.5t98 -36.5zM276 702q51 0 86.5 -7t61.5 -25t41 -42t23.5 -66.5t11.5 -89.5t3 -119q0 -116 -14 -187.5t-48.5 -111 t-81 -53t-123.5 -13.5q-87 0 -149 15l8 65q48 -4 141 -4q69 0 105.5 20t55 74t21.5 157q-37 -42 -76.5 -58.5t-99.5 -16.5q-187 0 -187 225q0 123 50 180t171 57z"/>
<glyph glyph-name="colon" horiz-adv-x="236" unicode=":" d="M101 118h28q17 0 24.5 -7t7.5 -25v-54q0 -18 -7.5 -25t-24.5 -7h-28q-17 0 -24.5 7t-7.5 25v54q0 18 7.5 25t24.5 7zM101 440h28q17 0 24.5 -7t7.5 -24v-55q0 -18 -7.5 -25t-24.5 -7h-28q-17 0 -24.5 7t-7.5 25v55q0 17 7.5 24t24.5 7z"/>
<glyph glyph-name="semicolon" horiz-adv-x="237" unicode=";" d="M107 118h25q18 0 24.5 -7t6.5 -25v-64q-1 -84 -34 -154l-41 12q10 59 10 120q-24 0 -24 28v58q1 18 8.5 25t24.5 7zM105 440h29q17 0 24 -7t7 -24v-55q0 -18 -7 -25t-24 -7h-29q-17 0 -24 7t-7 25v55q0 17 7 24t24 7z"/>
<glyph glyph-name="less" horiz-adv-x="530" unicode="&lt;" d="M459 438l-332 -140l332 -137v-68l-406 171v68l406 174v-68z"/>
<glyph glyph-name="equal" horiz-adv-x="585" unicode="=" d="M512 155h-438v64h438v-64zM512 367h-438v63h438v-63z"/>
<glyph glyph-name="greater" horiz-adv-x="530" unicode="&gt;" d="M477 332v-68l-406 -171v68l332 137l-332 140v68z"/>
<glyph glyph-name="question" horiz-adv-x="505" unicode="?" d="M232 118h23q17 0 24 -7t7 -25v-54q0 -18 -7 -25t-24 -7h-23q-17 0 -24 7t-7 25v54q0 18 7 25t24 7zM260 712q202 0 202 -155q0 -35 -13 -65.5t-33 -52t-43 -47t-43 -48.5t-34.5 -58t-15.5 -75h-73q-1 52 16 95t41 72t48.5 54t42 54t17.5 61q0 48 -31.5 70.5t-98.5 22.5 q-85 0 -197 -10l-5 61q7 1 31 5.5t31 5.5l28 4t36 3.5t40 1.5t54 1z"/>
<glyph glyph-name="at" horiz-adv-x="718" unicode="@" d="M566 345l-178 -4q-35 -1 -49.5 -14.5t-14.5 -42.5v-26q0 -66 66 -66q44 0 93.5 17.5t82.5 48.5v87zM352 585h143q75 0 113 -33.5t38 -108.5v-311h-64l-8 75q-31 -32 -86.5 -57.5t-112.5 -25.5q-60 0 -95.5 30.5t-35.5 88.5v51q0 49 29.5 76t85.5 27h207v43 q0 41 -18.5 57.5t-67.5 16.5h-128q-49 0 -75 -1.5t-52 -10.5t-36.5 -22.5t-19.5 -44t-11 -68.5t-2 -101q0 -49 1 -81.5t6.5 -61t10.5 -45t20 -30t28 -19.5t41.5 -10t52.5 -4.5t69 -0.5h258v-64q-136 -8 -257 -8h-19q-69 0 -113 4t-79 18t-52.5 34t-29.5 60t-15 86t-3 122 t3 121.5t14 84.5t27.5 58t50.5 33t74.5 17.5t107.5 4.5z"/>
<glyph glyph-name="A" horiz-adv-x="622" unicode="A" d="M429 292l-87 274q-9 26 -17 56h-28q-8 -30 -17 -56l-87 -274h236zM453 216h-284l-68 -216h-91l222 666q6 24 33 24h92q27 0 33 -24l222 -666h-91z"/>
<glyph glyph-name="B" horiz-adv-x="620" unicode="B" d="M328 67q84 0 114.5 24t30.5 96q0 79 -32.5 107t-118.5 30h-149v-256q41 -1 155 -1zM307 623h-134v-232h148q77 1 106 25t29 92q0 69 -31.5 92t-117.5 23zM424 360v-4q75 -7 106.5 -52.5t31.5 -131.5q0 -104 -49 -142t-171 -38q-166 0 -255 8v690q79 8 224 8 q129 0 179.5 -37.5t50.5 -142.5q0 -75 -28 -113.5t-89 -44.5z"/>
<glyph glyph-name="C" d="M332 702q107 0 188 -20l-9 -67q-90 9 -179 9q-101 0 -139.5 -60.5t-38.5 -218.5t38.5 -218.5t139.5 -60.5q116 0 193 11l9 -66q-83 -23 -202 -23q-149 0 -210 80t-61 277t61 277t210 80z" unicode="C"/>
<glyph glyph-name="D" horiz-adv-x="664" unicode="D" d="M333 68q99 0 138 60.5t39 216.5t-39 217t-138 61q-64 0 -158 -2v-551q90 -2 158 -2zM333 699q149 0 209 -77.5t60 -276.5t-60 -276.5t-209 -77.5q-116 0 -246 9v690q130 9 246 9z"/>
<glyph glyph-name="E" horiz-adv-x="560" unicode="E" d="M506 73l4 -68q-92 -6 -296 -6q-61 0 -96.5 32.5t-36.5 87.5v452q1 55 36.5 87.5t96.5 32.5q204 0 296 -6l-4 -69h-277q-60 0 -60 -66v-150h298v-71h-298v-189q0 -67 60 -67h277z"/>
<glyph glyph-name="F" horiz-adv-x="539" unicode="F" d="M499 616h-259q-35 0 -51 -15.5t-16 -50.5v-160h288v-71h-288v-319h-88v567q0 59 36 91.5t97 32.5q197 0 286 -7z"/>
<glyph glyph-name="G" horiz-adv-x="628" unicode="G" d="M560 399v-399h-64l-10 73q-86 -86 -206 -86q-115 0 -166.5 86t-51.5 274q0 203 63 279.5t225 76.5q109 0 192 -21l-9 -66q-84 8 -178 8q-79 0 -119.5 -20.5t-60.5 -81.5t-20 -181q0 -153 33 -215t116 -62q78 0 170 67v268h86z"/>
<glyph glyph-name="H" horiz-adv-x="668" unicode="H" d="M581 690v-690h-88v331h-318v-331h-88v690h88v-283h318v283h88z"/>
<glyph glyph-name="I" horiz-adv-x="262" unicode="I" d="M175 0h-88v690h88v-690z"/>
<glyph glyph-name="J" horiz-adv-x="340" unicode="J" d="M256 690v-545q0 -76 -34.5 -115t-99.5 -39q-56 0 -92 13l10 62h50q78 0 78 76v548h88z"/>
<glyph glyph-name="K" horiz-adv-x="591" unicode="K" d="M253 324h-85q6 -38 6 -73v-251h-87v690h87v-216q0 -40 -6 -79h84l210 295h96l-201 -286q-12 -18 -38 -44v-2q28 -27 43 -48l210 -310h-99z"/>
<glyph glyph-name="L" horiz-adv-x="514" unicode="L" d="M172 690v-550q0 -66 67 -66h249l4 -68q-87 -7 -267 -7q-140 0 -140 130v561h87z"/>
<glyph glyph-name="M" horiz-adv-x="877" unicode="M" d="M640 690h99q37 0 37 -37l28 -653h-88l-25 617h-21l-154 -509q-8 -30 -38 -30h-79q-31 0 -40 30l-154 509h-20l-24 -617h-88l27 653q2 37 37 37h100q28 0 37 -30l129 -421q6 -18 15.5 -53.5t10.5 -39.5h18q3 11 11.5 43.5t14.5 51.5l129 419q8 30 38 30z"/>
<glyph glyph-name="N" horiz-adv-x="705" unicode="N" d="M618 690v-655q0 -35 -34 -35h-86q-27 0 -39 28l-233 489q-34 74 -39 91h-16q4 -40 4 -91v-517h-88v655q0 35 35 35h83q27 0 39 -28l226 -477q25 -49 47 -100h17q-3 54 -3 105v500h87z"/>
<glyph glyph-name="O" horiz-adv-x="668" unicode="O" d="M334 624q-102 0 -141 -60.5t-39 -218.5t39 -218.5t141 -60.5t141 60.5t39 218.5t-39 218.5t-141 60.5zM334 703q152 0 212 -78.5t60 -279.5t-60 -279.5t-212 -78.5t-212.5 78.5t-60.5 279.5t60.5 279.5t212.5 78.5z"/>
<glyph glyph-name="P" horiz-adv-x="590" unicode="P" d="M175 343h148q77 1 105.5 29.5t28.5 110.5t-29 111t-105 29q-109 0 -148 -1v-279zM324 699q126 0 174 -45.5t48 -170.5t-46.5 -170.5t-165.5 -45.5q-73 0 -159 8v-275h-88v690q84 9 237 9z"/>
<glyph glyph-name="Q" horiz-adv-x="669" unicode="Q" d="M269 -96l25 53q110 -48 265 -70l-28 -88q-130 26 -262 105zM335 624q-102 0 -141 -60.5t-39 -218.5t39 -218.5t141 -60.5q101 0 140.5 60.5t39.5 218.5t-39.5 218.5t-140.5 60.5zM335 703q152 0 212 -78.5t60 -279.5t-60 -279.5t-212 -78.5t-212.5 78.5t-60.5 279.5 t60.5 279.5t212.5 78.5z"/>
<glyph glyph-name="R" horiz-adv-x="618" unicode="R" d="M174 364h149q78 1 107 28t29 103q0 75 -29 101.5t-107 26.5q-32 0 -82 -0.5t-67 -0.5v-258zM573 0h-94l-61 216q-13 39 -35 55.5t-57 16.5t-85.5 0.5t-66.5 0.5v-289h-87v690q84 9 238 9q123 0 173 -42.5t50 -156.5q0 -85 -29.5 -127t-97.5 -51v-5q28 -7 51 -32.5 t34 -66.5z"/>
<glyph glyph-name="S" horiz-adv-x="561" unicode="S" d="M279 702q122 -2 205 -20l-6 -64q-97 5 -195 5q-44 0 -65 -2t-41 -12t-26.5 -31.5t-6.5 -59.5q0 -55 19.5 -78t67.5 -35l140 -35q77 -19 108 -65t31 -129q0 -114 -51.5 -151t-179.5 -37q-109 0 -214 19l6 65q162 -5 183 -5h28q82 0 110.5 21t28.5 90q0 57 -19.5 79.5 t-67.5 34.5l-143 36q-73 18 -104.5 64.5t-31.5 127.5q0 60 12.5 96.5t43 55t68 24.5t100.5 6z"/>
<glyph glyph-name="T" horiz-adv-x="581" unicode="T" d="M557 612h-223v-612h-88v612h-222v78h533v-78z"/>
<glyph glyph-name="U" horiz-adv-x="666" unicode="U" d="M584 690v-426q0 -151 -56 -214t-191 -63q-140 0 -197.5 63t-57.5 214v426h88v-426q0 -111 36 -154.5t127 -43.5q90 0 126.5 43.5t36.5 154.5v426h88z"/>
<glyph glyph-name="V" horiz-adv-x="609" unicode="V" d="M592 690l-209 -665q-9 -25 -34 -25h-89q-27 0 -34 25l-209 665h91l163 -547q14 -50 20 -75h27q10 41 21 76l162 546h91z"/>
<glyph glyph-name="W" horiz-adv-x="948" unicode="W" d="M917 690l-140 -664q-7 -26 -35 -26h-100q-29 0 -34 27l-108 519q-6 26 -16 78h-21l-15 -78l-107 -519q-7 -27 -35 -27h-101q-13 0 -22.5 7.5t-11.5 18.5l-140 664h93l108 -538q2 -9 14 -85h23q8 47 16 85l107 509q5 29 34 29h96q27 0 34 -29l107 -509q10 -49 14 -85h25 q9 60 13 84l109 539h93z"/>
<glyph glyph-name="X" horiz-adv-x="611" unicode="X" d="M318 324h-25l-172 -324h-96l194 357l-181 333h95l158 -298h29l158 298h95l-182 -333l195 -357h-96z"/>
<glyph glyph-name="Y" horiz-adv-x="569" unicode="Y" d="M328 242v-242h-88v244l-229 446h94l145 -291q12 -24 31 -78h7q16 44 31 77l145 292h93z"/>
<glyph glyph-name="Z" horiz-adv-x="566" unicode="Z" d="M519 75v-75h-471v75l367 540h-361v75h458v-75l-366 -540h373z"/>
<glyph glyph-name="bracketleft" horiz-adv-x="329" unicode="[" d="M288 712h-102q-14 0 -14 -16v-789q0 -16 14 -16h102v-56h-143q-54 0 -54 54v825q0 24 15.5 39t38.5 15h143v-56z"/>
<glyph glyph-name="backslash" horiz-adv-x="518" unicode="\" d="M491 -66h-71l-393 756h71z"/>
<glyph glyph-name="bracketright" horiz-adv-x="329" unicode="]" d="M41 768h142q24 0 39 -15t15 -39v-825q0 -24 -15 -39t-39 -15h-142v56h101q15 0 15 16v789q0 16 -15 16h-101v56z"/>
<glyph glyph-name="asciicircum" horiz-adv-x="426" unicode="^" d="M396 390l-34 -22l-144 174h-8l-145 -174l-35 22l153 210h61z"/>
<glyph glyph-name="underscore" horiz-adv-x="578" unicode="_" d="M508 -65h-438v65h438v-65z"/>
<glyph glyph-name="grave" horiz-adv-x="315" unicode="`" d="M250 577l-29 -39l-192 120l48 65z"/>
<glyph glyph-name="a" horiz-adv-x="549" unicode="a" d="M214 64h3q38 0 85 19t87 54v99l-188 -1q-34 -1 -48.5 -18t-14.5 -49v-31q0 -38 18 -55.5t58 -17.5zM308 499q85 0 126 -35.5t41 -120.5v-343h-67l-10 81q-88 -90 -201 -90q-67 0 -106.5 35.5t-39.5 100.5v53q0 57 35.5 88.5t99.5 31.5h203v43q0 46 -21 65t-78 19 q-72 0 -209 -13l-8 63q134 22 235 22z"/>
<glyph glyph-name="b" d="M298 60q71 1 100 41.5t30 143.5q-1 103 -25 141.5t-93 38.5q-35 0 -68.5 -17.5t-81.5 -55.5l1 -276q63 -16 126 -16h11zM340 499q91 0 133.5 -59.5t42.5 -194.5q0 -132 -48 -194.5t-168 -62.5q-125 0 -224 35v677h85v-182q0 -69 -9 -108q87 89 188 89z" unicode="b"/>
<glyph glyph-name="c" horiz-adv-x="489" unicode="c" d="M286 499q96 0 157 -23l-11 -55q-66 6 -132 6q-88 0 -122 -39t-34 -144q0 -106 34 -145t122 -39q80 0 143 10l9 -57q-72 -25 -167 -25q-126 0 -178.5 57.5t-52.5 198.5t52.5 198t179.5 57z"/>
<glyph glyph-name="d" horiz-adv-x="573" unicode="d" d="M143 246q0 -105 25.5 -144.5t86.5 -39.5q38 0 69 14.5t85 52.5v269q-96 27 -149 27q-65 0 -91 -37t-26 -142zM494 700v-700h-66l-8 70q-94 -82 -193 -82q-90 0 -130.5 63.5t-40.5 193.5q0 139 44 196.5t140 57.5q91 0 173 -44q-4 41 -4 95v150h85z"/>
<glyph glyph-name="e" horiz-adv-x="537" unicode="e" d="M282 427q-76 0 -106.5 -34t-32.5 -125h206q53 0 53 72q-1 47 -28 67t-92 20zM298 60q83 0 169 12l9 -57q-65 -27 -189 -27q-126 0 -179.5 58.5t-53.5 198.5q0 141 52 197.5t172 56.5q109 0 159 -39.5t50 -119.5q2 -138 -116 -138h-226q6 -84 40 -113t113 -29z"/>
<glyph glyph-name="f" horiz-adv-x="380" unicode="f" d="M388 647h-100q-48 0 -67.5 -18.5t-19.5 -63.5v-78h156v-67h-156v-420h-85v420h-88v62l88 5v87q0 71 33 107t109 36q84 0 137 -7z"/>
<glyph glyph-name="g" horiz-adv-x="558" unicode="g" d="M425 -47q0 36 -15.5 49t-68.5 21l-166 23q-51 -39 -51 -93q0 -51 30 -67t121 -16q89 0 119.5 16.5t30.5 66.5zM270 254q72 0 101 20.5t29 69.5t-28.5 69.5t-101.5 20.5q-72 0 -101 -20.5t-29 -69.5t29 -69.5t101 -20.5zM531 440l-72 -6q20 -33 20 -90q0 -82 -47 -118.5 t-162 -36.5q-62 0 -101 10q-13 -19 -13 -38q0 -39 47 -46l182 -29q68 -10 95.5 -42.5t27.5 -94.5q0 -85 -50.5 -118t-181.5 -33q-132 0 -183.5 32.5t-51.5 115.5q0 43 18 69t62 49q-35 25 -35 72q0 52 38 79q-62 34 -62 128q0 84 46.5 120t162.5 36q67 0 111 -12h154z"/>
<glyph glyph-name="h" horiz-adv-x="581" unicode="h" d="M374 499q132 0 132 -134v-365h-86v341q0 48 -15.5 67t-53.5 19q-41 0 -82.5 -18t-105.5 -58v-351h-85v700h85l1 -193q0 -56 -6 -95q120 87 216 87z"/>
<glyph glyph-name="i" horiz-adv-x="248" unicode="i" d="M166 0h-84v487h84v-487zM104 694h40q26 0 26 -26v-57q0 -26 -26 -26h-40q-26 0 -26 26v57q0 26 26 26z"/>
<glyph glyph-name="j" horiz-adv-x="250" unicode="j" d="M168 487v-499q0 -58 -25 -108t-69 -83l-47 37q56 69 56 154v499h85zM106 694h40q25 0 25 -26v-57q0 -26 -25 -26h-40q-26 0 -26 26v57q0 26 26 26z"/>
<glyph glyph-name="k" horiz-adv-x="509" unicode="k" d="M224 244h-66q5 -45 5 -78v-166h-85v700h85l1 -311q0 -38 -5 -83h64l154 181h99l-153 -179q-15 -21 -34 -33v-2q20 -15 34 -39l169 -234h-99z"/>
<glyph glyph-name="l" horiz-adv-x="297" unicode="l" d="M164 700l-1 -566q0 -65 67 -65h47l10 -65q-27 -13 -89 -13q-55 0 -87 32.5t-32 91.5v585h85z"/>
<glyph glyph-name="m" horiz-adv-x="876" unicode="m" d="M671 499q63 0 96.5 -34t33.5 -100v-365h-84v341q-1 45 -18.5 65.5t-57.5 20.5q-35 0 -67.5 -16t-92.5 -59v-352h-82v341q0 46 -18.5 66t-57.5 20q-35 0 -67.5 -16t-92.5 -59v-352h-85v487h70l5 -77q103 89 199 89q102 0 123 -87q101 87 196 87z"/>
<glyph glyph-name="n" horiz-adv-x="581" unicode="n" d="M374 499q132 0 132 -134v-365h-85v341q0 48 -16 67t-54 19q-40 0 -80 -17.5t-108 -58.5v-351h-85v487h72l6 -77q116 89 218 89z"/>
<glyph glyph-name="o" horiz-adv-x="568" unicode="o" d="M284 427q-80 0 -110 -39t-30 -145t30 -145t110 -39t110.5 39t30.5 145t-30.5 145t-110.5 39zM284 499q126 0 177.5 -58t51.5 -198t-51.5 -198t-177.5 -58q-125 0 -177 58t-52 198t52 198t177 58z"/>
<glyph glyph-name="p" horiz-adv-x="580" unicode="p" d="M319 62q66 0 92 37t26 142q0 102 -24.5 143t-83.5 41q-38 0 -75.5 -17.5t-90.5 -56.5v-260q111 -29 156 -29zM357 499q87 0 127 -64t40 -194q0 -138 -44 -195.5t-140 -57.5t-180 50q3 -34 3 -98v-141h-85v688h70l7 -78q39 42 94 66t108 24z"/>
<glyph glyph-name="q" d="M142 236q0 -93 23 -133.5t85 -40.5q40 0 74 15t85 50v284q-63 16 -126 16h-10q-74 -2 -102.5 -41.5t-28.5 -149.5zM274 499q120 0 220 -34v-666h-85l-1 167q0 57 8 100q-95 -79 -194 -79q-85 0 -126 61.5t-41 193.5q0 133 48 195t171 62z" unicode="q"/>
<glyph glyph-name="r" horiz-adv-x="401" unicode="r" d="M383 499l-10 -80h-28q-38 0 -77 -14.5t-105 -47.5v-357h-85v487h66l9 -77q111 89 208 89h22z"/>
<glyph glyph-name="s" horiz-adv-x="508" unicode="s" d="M240 499q117 -2 205 -15l-7 -62q-152 5 -185 5h-23q-57 0 -77 -11.5t-20 -50.5q0 -35 15.5 -48t55.5 -22l142 -32q60 -15 86.5 -44.5t26.5 -89.5q0 -85 -47 -112.5t-161 -27.5q-102 0 -191 14l6 62q78 -4 135 -4h33q85 0 114 13t29 55q0 33 -17.5 45.5t-59.5 22.5 l-140 32q-60 14 -85 45t-25 91q0 79 39.5 106.5t135.5 27.5h15z"/>
<glyph glyph-name="t" horiz-adv-x="381" unicode="t" d="M200 420v-286q0 -35 15 -50t51 -15h74l10 -65q-46 -13 -110 -13q-61 0 -93 34t-32 98v297h-88v62l88 5v144h85v-144h155v-67h-155z"/>
<glyph glyph-name="u" d="M492 487v-487h-68l-6 71q-111 -84 -210 -84q-133 0 -133 134v366h85v-342q-1 -46 17 -65t60 -19q37 0 75 16.5t95 53.5v356h85z" unicode="u"/>
<glyph glyph-name="v" horiz-adv-x="530" unicode="v" d="M511 487l-178 -466q-8 -21 -30 -21h-77q-22 0 -30 21l-178 466h91l120 -341q10 -28 29 -85h13l30 85l120 341h90z"/>
<glyph glyph-name="w" horiz-adv-x="824" unicode="w" d="M799 487l-142 -463q-6 -24 -33 -24h-77q-12 0 -21.5 7.5t-11.5 19.5l-80 331q-3 14 -8 39.5t-8 37.5h-12q-16 -72 -17 -77l-79 -331q-7 -27 -34 -27h-76q-27 0 -33 24l-142 463h88l101 -359q9 -31 16 -73h13l18 73l81 332q5 27 32 27h77q25 0 32 -28l80 -331 q2 -11 8 -35.5t9 -37.5h13q1 5 6.5 31.5t10.5 41.5l101 359h88z"/>
<glyph glyph-name="x" horiz-adv-x="528" unicode="x" d="M274 220h-20l-138 -220h-93l163 251l-151 236h92l125 -201h24l125 201h92l-151 -236l163 -251h-92z"/>
<glyph glyph-name="y" horiz-adv-x="529" unicode="y" d="M510 487l-195 -514q-64 -172 -213 -179l-8 56q57 18 89.5 49.5t52.5 79.5l9 21h-20q-24 0 -30 22l-177 465h91l129 -363q14 -41 18 -59h14l21 59l127 363h92z"/>
<glyph glyph-name="z" horiz-adv-x="510" unicode="z" d="M461 69v-69h-412v69l313 348h-310v70h406v-70l-313 -348h316z"/>
<glyph glyph-name="braceleft" horiz-adv-x="319" unicode="{" d="M276 768v-54q-51 0 -70.5 -19t-19.5 -66v-179v-6q0 -58 -18.5 -81.5t-70.5 -34.5q55 -17 73.5 -41t19.5 -77v-237q0 -46 19.5 -65t70.5 -19v-54q-10 -1 -28 -1q-75 0 -109.5 33.5t-34.5 100.5v256q0 19 -2.5 30t-13 19.5t-17.5 12t-29 11.5v62q39 12 48.5 22.5t9.5 54.5 v199q0 67 34.5 100.5t109.5 33.5q18 0 28 -1z"/>
<glyph glyph-name="bar" horiz-adv-x="246" unicode="|" d="M154 -169h-62v950h62v-950z"/>
<glyph glyph-name="braceright" horiz-adv-x="320" unicode="}" d="M44 714v54q10 1 28 1q75 0 109.5 -33.5t34.5 -100.5v-199q0 -44 9.5 -54.5t48.5 -22.5v-62q-28 -10 -37.5 -15.5t-17 -19t-7.5 -38.5v-256q0 -67 -34.5 -100.5t-109.5 -33.5q-18 0 -28 1v54q51 0 70.5 19t19.5 65v237q1 53 19.5 77t73.5 41q-52 11 -70.5 34.5t-18.5 81.5 v6v179q0 47 -19.5 66t-70.5 19z"/>
<glyph glyph-name="asciitilde" horiz-adv-x="525" unicode="~" d="M154 348q37 -2 107 -29t99 -30q2 0 5 -0.5t5 -0.5q20 0 27.5 13t7.5 42h44q1 -9 1 -25q0 -45 -19.5 -69t-53.5 -24h-5q-43 2 -112 29t-94 30q-2 0 -5 0.5t-4 0.5q-20 0 -28 -13.5t-8 -43.5h-44q-2 18 -2 26q0 46 20.5 70t54.5 24h4z"/>
<glyph glyph-name="uni00A0" horiz-adv-x="223" unicode=" "/>
<glyph glyph-name="exclamdown" horiz-adv-x="256" unicode="¡" d="M171 104v-300h-85v300l8 178h68zM118 493h22q17 0 24 -7t7 -25v-55q0 -17 -7 -24t-24 -7h-22q-17 0 -24.5 7t-7.5 24v55q0 18 7.5 25t24.5 7z"/>
<glyph glyph-name="cent" horiz-adv-x="508" unicode="¢" d="M138 349q0 -91 26 -132t90 -49l30 364q-82 -3 -114 -42.5t-32 -140.5zM442 176l9 -57q-69 -23 -159 -25l-9 -94h-45l9 95q-105 7 -149 65.5t-44 188.5q0 140 52.5 198t178.5 58h6l8 85h46l-8 -87q68 -8 105 -22l-11 -57q-51 6 -101 8l-30 -367q75 0 142 11z"/>
<glyph glyph-name="sterling" horiz-adv-x="569" unicode="£" d="M518 75v-75h-456v75q79 40 79 159q0 19 -1 29l-4 75h-79l-1 50h77l-8 133v20q0 97 46 129t145 32q78 0 179 -10l-5 -70q-71 4 -176 4q-57 0 -80 -20t-23 -71v-15l8 -132h212l-2 -50h-207l5 -75q0 -4 0.5 -12t0.5 -11q0 -60 -17 -98.5t-56 -69.5q22 3 67 3h296z"/>
<glyph glyph-name="currency" horiz-adv-x="594" unicode="¤" d="M296 208h2q58 0 99.5 42.5t41.5 101.5q0 60 -42 102.5t-101 42.5t-101.5 -42.5t-42.5 -102.5q0 -59 42 -101.5t100 -42.5h2zM492 351q0 -65 -40 -118l74 -73l-38 -37l-73 73q-52 -41 -119 -41t-118 40l-72 -72l-40 40l72 72q-38 51 -38 116q0 67 40 120l-71 71l37 38 l71 -72q53 40 119 40q68 0 120 -41l72 73l38 -38l-73 -72q39 -54 39 -119z"/>
<glyph glyph-name="yen" horiz-adv-x="618" unicode="¥" d="M385 323h146v-52h-173l-5 -9v-52h178v-51h-178v-159h-88v159h-173l-1 51h174v52l-5 9h-168l-1 52h142l-197 367h91l145 -275q8 -14 20.5 -45t13.5 -33h7q20 49 33 77l144 276h92z"/>
<glyph glyph-name="brokenbar" horiz-adv-x="248" unicode="¦" d="M155 -169h-62v400h62v-400zM155 381h-62v400h62v-400z"/>
<glyph glyph-name="section" horiz-adv-x="544" unicode="§" d="M78 388h62q-2 -26 -2 -37q0 -47 16 -77t55 -52l173 -98q51 -30 76 -64.5t25 -91.5q0 -34 -9.5 -58t-25 -38t-42.5 -22t-53.5 -10t-66.5 -2q-110 2 -218 12l7 67q96 -6 190 -7q29 0 43.5 0.5t33.5 3.5t28 9.5t15.5 18t6.5 29.5q1 33 -15.5 54t-48.5 39l-162 90 q-97 52 -97 154q0 36 9 80zM260 703q124 -2 217 -12l-6 -66q-74 5 -189 5h-21q-57 0 -82.5 -11t-25.5 -48q0 -32 16.5 -52t49.5 -39l162 -91q96 -52 96 -152q0 -33 -10 -83h-62q2 26 2 36q0 48 -16 78.5t-55 53.5l-173 99q-52 30 -76.5 63.5t-24.5 90.5q0 76 47.5 102 t150.5 26z"/>
<glyph glyph-name="dieresis" horiz-adv-x="411" unicode="¨" d="M281 693h28q24 0 24 -24v-55q0 -24 -24 -24h-28q-24 0 -24 24v55q0 24 24 24zM103 693h29q23 0 23 -24v-55q0 -24 -23 -24h-29q-23 0 -23 24v55q0 24 23 24z"/>
<glyph glyph-name="copyright" horiz-adv-x="836" unicode="©" d="M423 568q79 0 135 -14l-8 -48q-64 3 -128 3q-72 0 -99.5 -35t-27.5 -127t27.5 -127t99.5 -35q91 0 140 6l6 -49q-62 -15 -145 -15q-107 0 -151 49.5t-44 170.5q0 122 44 171.5t151 49.5zM418 657q-130 0 -221 -89.5t-91 -222.5t91 -222.5t221 -89.5t221 89t91 223 t-91 223t-221 89zM418 703q152 0 255.5 -101.5t103.5 -256.5t-103.5 -256.5t-255.5 -101.5q-151 0 -255 102t-104 256t104 256t255 102z"/>
<glyph glyph-name="ordfeminine" horiz-adv-x="441" unicode="ª" d="M127 385v-18q0 -46 55 -46q58 0 122 49v65l-127 -8q-50 -3 -50 -42zM254 607q57 0 85.5 -25t28.5 -83v-227h-51l-8 61q-65 -67 -147 -67q-45 0 -71.5 22.5t-26.5 64.5v38q0 38 24.5 59.5t68.5 21.5h147v28q0 53 -63 53q-51 0 -155 -8l-7 48q112 14 175 14z"/>
<glyph glyph-name="guillemotleft" horiz-adv-x="485" unicode="«" d="M431 429l-126 -178l127 -182l-45 -30l-161 202v20l160 198zM249 429l-126 -178l127 -182l-44 -30l-162 202v20l161 198z"/>
<glyph glyph-name="logicalnot" horiz-adv-x="590" unicode="¬" d="M512 330v-198h-66v133h-372v65h438z"/>
<glyph glyph-name="softhyphen" horiz-adv-x="448" unicode="­" d="M376 220h-304v65h304v-65z"/>
<glyph glyph-name="registered" horiz-adv-x="553" unicode="®" d="M217 487h68q36 1 50 11t13 36q1 28 -12.5 37.5t-50.5 9.5h-68v-94zM330 473v-2q29 -4 39 -38l30 -82h-42l-28 80q-11 27 -42 27h-70v-107h-40v259q34 3 109 3q56 0 79.5 -16t23.5 -59q0 -30 -13.5 -45.5t-45.5 -19.5zM277 287q79 0 135 56.5t56 136.5t-56 136.5 t-135 56.5t-135.5 -56.5t-56.5 -136.5t56 -136.5t136 -56.5zM277 702q92 0 157 -65t65 -157q0 -93 -65 -158t-157 -65q-93 0 -158 65t-65 158q0 92 65 157t158 65z"/>
<glyph glyph-name="macron" horiz-adv-x="400" unicode="¯" d="M339 609h-278v63h278v-63z"/>
<glyph glyph-name="degree" horiz-adv-x="363" unicode="°" d="M182 651q-32 0 -54 -21t-22 -54q0 -32 22 -54t54 -22q31 0 53 22t22 54t-22 53.5t-53 21.5zM182 703q53 0 91 -37.5t38 -89.5t-38 -90t-91 -38t-91.5 38t-38.5 90t38 89.5t92 37.5z"/>
<glyph glyph-name="plusminus" horiz-adv-x="588" unicode="±" d="M75 134h438v-64h-438v64zM513 391v-64h-187v-134h-65v134h-186v64h186v133h66v-133h186z"/>
<glyph glyph-name="twosuperior" horiz-adv-x="435" unicode="²" d="M206 781q80 0 115 -19t35 -76q0 -62 -82 -144l-127 -124q24 2 69 2l157 -1v-59h-312v38q0 17 11 28l129 125q82 80 82 131q0 26 -19.5 34t-61.5 8q-67 0 -133 -8l-4 50q74 15 141 15z"/>
<glyph glyph-name="threesuperior" horiz-adv-x="417" unicode="³" d="M200 782q83 0 115 -20.5t32 -75.5q0 -94 -75 -105v-2q47 -6 66 -32t20 -72v-6q0 -62 -34.5 -89.5t-115.5 -27.5q-62 0 -148 11l4 50q59 -5 128 -5q55 0 76.5 16.5t21.5 58.5q0 32 -18.5 50t-68.5 18h-85v50h85q49 1 64.5 19.5t15.5 49.5q-1 33 -20 44.5t-72 11.5 q-78 0 -119 -4l-4 49q71 11 132 11z"/>
<glyph glyph-name="acute" horiz-adv-x="314" unicode="´" d="M276 658l-192 -120l-29 39l172 146z"/>
<glyph glyph-name="paragraph" horiz-adv-x="593" unicode="¶" d="M346 702q90 0 151 -17v-685h-65v641q-57 5 -98 5v-856h-65v411q-123 11 -176 69t-53 180q0 138 70 195t236 57z"/>
<glyph glyph-name="periodcentered" horiz-adv-x="236" unicode="·" d="M104 317h28q17 0 24.5 -7.5t7.5 -24.5v-55q0 -17 -7.5 -24t-24.5 -7h-28q-17 0 -24.5 7t-7.5 24v55q0 17 7.5 24.5t24.5 7.5z"/>
<glyph glyph-name="cedilla" horiz-adv-x="234" unicode="¸" d="M81 -83l9 40q26 2 35 2q40 0 58 -14t18 -48q0 -59 -38 -93.5t-99 -34.5q-10 0 -30 2l13 45h5q39 0 63.5 20t24.5 52q0 16 -12 22t-47 7z"/>
<glyph glyph-name="onesuperior" horiz-adv-x="294" unicode="¹" d="M218 360h-67v315q0 26 3 39l-111 -29l-9 46l117 43h67v-414z"/>
<glyph glyph-name="ordmasculine" horiz-adv-x="444" unicode="º" d="M222 554q-54 0 -75 -25.5t-21 -93.5t20.5 -92.5t75.5 -24.5q54 0 74.5 24.5t20.5 92.5q0 69 -20.5 94t-74.5 25zM222 607q90 0 126.5 -38.5t36.5 -133.5q0 -94 -36.5 -132.5t-126.5 -38.5t-126.5 38.5t-36.5 132.5q0 95 36.5 133.5t126.5 38.5z"/>
<glyph glyph-name="guillemotright" horiz-adv-x="485" unicode="»" d="M440 261v-20l-161 -202l-45 30l128 182l-127 178l45 30zM259 261v-20l-161 -202l-45 30l127 182l-126 178l45 30z"/>
<glyph glyph-name="onequarter" horiz-adv-x="863" unicode="¼" d="M821 103l-48 -5v-98h-63v97h-195q-19 0 -32.5 10.5t-13.5 28.5q0 12 7 26l127 252h64l-122 -242q-2 -6 -2 -8q0 -14 19 -14h148v117l12 68h51v-185h48v-47zM645 690l-447 -690h-61l447 690h61zM155 276v315q0 22 4 39l-113 -29l-8 46l117 43h66v-414h-66z"/>
<glyph glyph-name="onehalf" horiz-adv-x="887" unicode="½" d="M670 421q80 0 115 -19t35 -76q0 -62 -82 -144l-127 -124q25 2 69 2l158 -1l-1 -59h-311v38q0 18 10 28l129 125q82 80 83 129q0 28 -19.5 36t-62.5 8q-67 0 -132 -8l-4 50q74 15 140 15zM192 0h-62l448 690h61zM221 276h-66v315q0 22 4 39l-113 -29l-8 46l117 43h66v-414 z"/>
<glyph glyph-name="threequarters" horiz-adv-x="954" unicode="¾" d="M912 103l-51 -5v-98h-62v97h-193q-19 0 -32.5 10.5t-13.5 28.5q0 12 7 26l127 252h64l-122 -242q-2 -6 -2 -7q0 -15 20 -15h145v117l11 68h51v-185h51v-47zM746 690l-447 -690h-61l447 690h61zM355 389v-6q0 -62 -34.5 -89.5t-115.5 -27.5q-63 0 -149 11l4 50 q59 -5 129 -5q54 0 76 16.5t22 58.5q0 32 -18.5 50t-68.5 18l-86 2v45l86 3q48 1 63.5 19.5t15.5 48.5q0 33 -19.5 45t-72.5 12q-76 0 -119 -4l-4 49q66 10 133 10q83 0 115 -20.5t32 -74.5q0 -94 -76 -105v-2q47 -6 66.5 -32t20.5 -72z"/>
<glyph glyph-name="questiondown" horiz-adv-x="500" unicode="¿" d="M223 288h73q1 -51 -15.5 -94t-40.5 -71.5t-48.5 -53.5t-42 -54t-18.5 -59v-7q0 -89 130 -89q97 0 197 9l5 -61q-7 -1 -31 -5.5t-31 -5.5l-28 -4t-36 -3.5t-40 -1.5t-54 -1q-202 0 -202 155q0 41 18 76.5t44.5 62t53 54t45.5 67t21 86.5zM250 499h21q18 0 25 -7t7 -24v-56 q0 -17 -7 -24t-25 -7h-21q-18 0 -25 7t-7 24v56q0 17 7 24t25 7z"/>
<glyph glyph-name="Agrave" horiz-adv-x="622" unicode="À" d="M429 292l-87 274q-14 41 -17 56h-28q-9 -26 -17 -56l-87 -274h236zM453 216h-284l-69 -216h-90l222 666q6 24 32 24h93q27 0 33 -24l221 -666h-90zM332 728l-192 120l48 65l173 -146z"/>
<glyph glyph-name="Aacute" horiz-adv-x="622" unicode="Á" d="M429 292l-87 274q-14 41 -17 56h-28q-9 -26 -17 -56l-87 -274h236zM453 216h-284l-69 -216h-90l222 666q6 24 32 24h93q27 0 33 -24l221 -666h-90zM275 728l-29 39l172 146l49 -65z"/>
<glyph glyph-name="Acircumflex" horiz-adv-x="622" unicode="Â" d="M429 292l-87 274q-14 41 -17 56h-28q-9 -26 -17 -56l-87 -274h236zM453 216h-284l-69 -216h-90l222 666q6 24 32 24h93q27 0 33 -24l221 -666h-90zM177 733l-29 37l132 127h61l133 -127l-30 -37l-129 97h-8z"/>
<glyph glyph-name="Atilde" horiz-adv-x="622" unicode="Ã" d="M429 292l-87 274q-14 41 -17 56h-28q-9 -26 -17 -56l-87 -274h236zM453 216h-284l-69 -216h-90l222 666q6 24 32 24h93q27 0 33 -24l221 -666h-90zM193 765h-40q-1 7 -1 21q0 45 20 69t52 24h7q32 -3 77 -27.5t72 -27.5q4 -1 12 -1q37 0 37 51h40q1 -7 1 -21 q0 -43 -19.5 -67t-52.5 -24h-7q-37 3 -83.5 28.5t-67.5 28.5q-2 0 -5 0.5t-4 0.5q-38 0 -38 -55z"/>
<glyph glyph-name="Adieresis" horiz-adv-x="622" unicode="Ä" d="M429 292l-87 274q-14 41 -17 56h-28q-9 -26 -17 -56l-87 -274h236zM453 216h-284l-69 -216h-90l222 666q6 24 32 24h93q27 0 33 -24l221 -666h-90zM414 767h-28q-24 0 -24 24v55q0 24 24 24h28q24 0 24 -24v-55q0 -24 -24 -24zM237 767h-29q-23 0 -23 24v55q0 24 23 24 h29q23 0 23 -24v-55q0 -24 -23 -24z"/>
<glyph glyph-name="Aring" horiz-adv-x="622" unicode="Å" d="M429 292l-87 274q-14 41 -17 56h-28q-9 -26 -17 -56l-87 -274h236zM453 216h-284l-69 -216h-90l222 666q6 24 32 24h93q27 0 33 -24l221 -666h-90zM311 881q-26 0 -42.5 -17t-16.5 -44q0 -28 17 -44.5t42 -16.5q26 0 43 16.5t17 44.5q0 27 -17 44t-43 17zM311 715 q-45 0 -76 30t-31 75q0 44 31.5 74.5t75.5 30.5t75.5 -30.5t31.5 -74.5q0 -45 -31 -75t-76 -30z"/>
<glyph glyph-name="AE" horiz-adv-x="913" unicode="Æ" d="M453 298v260q0 21 9.5 42t22.5 30h-8q-29 -16 -58 -63l-156 -269h190zM859 74l3 -69q-95 -6 -293 -6q-52 0 -84 33.5t-32 86.5v106h-232l-130 -225h-92l343 582q35 63 83.5 86t141.5 23q189 0 295 -6l-3 -70h-255q-31 0 -49.5 -18.5t-18.5 -50.5v-145l283 -1v-71l-283 -1 v-187q0 -67 68 -67h255z"/>
<glyph glyph-name="Ccedilla" d="M273 -95l9 40q26 2 35 2q40 0 58 -14t18 -48q0 -59 -38 -93.5t-99 -34.5q-10 0 -30 2l13 45h5q39 0 63.5 20t24.5 52q0 16 -12 22t-47 7zM331 702q108 0 189 -20l-10 -67q-89 9 -179 9q-100 0 -139 -60.5t-39 -218.5t39 -218.5t139 -60.5q117 0 193 11l10 -66 q-83 -23 -203 -23q-149 0 -209.5 80t-60.5 277t60.5 277t209.5 80z" unicode="Ç"/>
<glyph glyph-name="Egrave" horiz-adv-x="560" unicode="È" d="M506 73l4 -68q-92 -6 -296 -6q-61 0 -96.5 32.5t-36.5 87.5v452q1 55 36.5 87.5t96.5 32.5q204 0 296 -6l-4 -69h-277q-60 0 -60 -66v-150h298v-71h-298v-189q0 -67 60 -67h277zM331 749l-192 120l48 65l173 -146z"/>
<glyph glyph-name="Eacute" horiz-adv-x="560" unicode="É" d="M506 73l4 -68q-92 -6 -296 -6q-61 0 -96.5 32.5t-36.5 87.5v452q1 55 36.5 87.5t96.5 32.5q204 0 296 -6l-4 -69h-277q-60 0 -60 -66v-150h298v-71h-298v-189q0 -67 60 -67h277zM274 749l-29 39l172 146l49 -65z"/>
<glyph glyph-name="Ecircumflex" horiz-adv-x="560" unicode="Ê" d="M506 73l4 -68q-92 -6 -296 -6q-61 0 -96.5 32.5t-36.5 87.5v452q1 55 36.5 87.5t96.5 32.5q204 0 296 -6l-4 -69h-277q-60 0 -60 -66v-150h298v-71h-298v-189q0 -67 60 -67h277zM176 753l-29 37l132 127h61l133 -127l-30 -37l-129 97h-8z"/>
<glyph glyph-name="Edieresis" horiz-adv-x="560" unicode="Ë" d="M506 73l4 -68q-92 -6 -296 -6q-61 0 -96.5 32.5t-36.5 87.5v452q1 55 36.5 87.5t96.5 32.5q204 0 296 -6l-4 -69h-277q-60 0 -60 -66v-150h298v-71h-298v-189q0 -67 60 -67h277zM412 788h-28q-24 0 -24 24v55q0 24 24 24h28q24 0 24 -24v-55q0 -24 -24 -24zM235 788h-29 q-23 0 -23 24v55q0 24 23 24h29q23 0 23 -24v-55q0 -24 -23 -24z"/>
<glyph glyph-name="Igrave" horiz-adv-x="262" unicode="Ì" d="M175 0h-88v690h88v-690zM181 767l-29 -39l-192 120l48 65z"/>
<glyph glyph-name="Iacute" horiz-adv-x="262" unicode="Í" d="M175 0h-88v690h88v-690zM287 848l-192 -120l-29 39l172 146z"/>
<glyph glyph-name="Icircumflex" horiz-adv-x="262" unicode="Î" d="M175 0h-88v690h88v-690zM294 770l-30 -37l-129 97h-8l-130 -97l-29 37l132 127h61z"/>
<glyph glyph-name="Idieresis" horiz-adv-x="262" unicode="Ï" d="M175 0h-88v690h88v-690zM206 870h28q24 0 24 -24v-55q0 -24 -24 -24h-28q-24 0 -24 24v55q0 24 24 24zM28 870h29q23 0 23 -24v-55q0 -24 -23 -24h-29q-23 0 -23 24v55q0 24 23 24z"/>
<glyph glyph-name="Eth" horiz-adv-x="669" unicode="Ð" d="M337 68q100 0 138.5 60t38.5 217t-38.5 217.5t-138.5 60.5q-64 0 -158 -2v-230h151v-49h-151v-272q92 -2 158 -2zM337 699q149 0 209 -77.5t60 -276.5t-60 -276.5t-209 -77.5q-115 0 -246 9v342h-69v49h69v299q130 9 246 9z"/>
<glyph glyph-name="Ntilde" horiz-adv-x="705" unicode="Ñ" d="M618 690v-655q0 -35 -34 -35h-86q-27 0 -39 28l-232 489q-37 80 -40 91h-16q4 -40 4 -91v-517h-88v655q0 35 35 35h83q27 0 39 -28l227 -477q38 -81 46 -100h18q-4 48 -4 105v500h87zM281 879q32 -3 77 -27.5t72 -27.5q4 -1 12 -1q37 0 37 51h40q1 -7 1 -21 q0 -43 -19.5 -67t-52.5 -24h-7q-37 3 -83.5 28.5t-67.5 28.5q-2 0 -5 0.5t-4 0.5q-38 0 -38 -55h-40q-1 7 -1 21q0 45 20 69t52 24h7z"/>
<glyph glyph-name="Ograve" horiz-adv-x="668" unicode="Ò" d="M334 624q-102 0 -141 -60.5t-39 -218.5t39 -218.5t141 -60.5t141 60.5t39 218.5t-39 218.5t-141 60.5zM334 703q152 0 212 -78.5t60 -279.5t-60 -279.5t-212 -78.5t-212.5 78.5t-60.5 279.5t60.5 279.5t212.5 78.5zM383 767l-29 -39l-192 120l48 65z"/>
<glyph glyph-name="Oacute" horiz-adv-x="668" unicode="Ó" d="M334 624q-102 0 -141 -60.5t-39 -218.5t39 -218.5t141 -60.5t141 60.5t39 218.5t-39 218.5t-141 60.5zM334 703q152 0 212 -78.5t60 -279.5t-60 -279.5t-212 -78.5t-212.5 78.5t-60.5 279.5t60.5 279.5t212.5 78.5zM489 848l-192 -120l-29 39l172 146z"/>
<glyph glyph-name="Ocircumflex" horiz-adv-x="668" unicode="Ô" d="M334 624q-102 0 -141 -60.5t-39 -218.5t39 -218.5t141 -60.5t141 60.5t39 218.5t-39 218.5t-141 60.5zM334 703q152 0 212 -78.5t60 -279.5t-60 -279.5t-212 -78.5t-212.5 78.5t-60.5 279.5t60.5 279.5t212.5 78.5zM496 770l-30 -37l-129 97h-8l-130 -97l-29 37l132 127 h61z"/>
<glyph glyph-name="Otilde" horiz-adv-x="668" unicode="Õ" d="M334 624q-102 0 -141 -60.5t-39 -218.5t39 -218.5t141 -60.5t141 60.5t39 218.5t-39 218.5t-141 60.5zM334 703q152 0 212 -78.5t60 -279.5t-60 -279.5t-212 -78.5t-212.5 78.5t-60.5 279.5t60.5 279.5t212.5 78.5zM253 879q32 -3 77 -27.5t72 -27.5q4 -1 12 -1 q37 0 37 51h40q1 -7 1 -21q0 -43 -19.5 -67t-52.5 -24h-7q-37 3 -83.5 28.5t-67.5 28.5q-2 0 -5 0.5t-4 0.5q-38 0 -38 -55h-40q-1 7 -1 21q0 45 20 69t52 24h7z"/>
<glyph glyph-name="Odieresis" horiz-adv-x="668" unicode="Ö" d="M334 624q-102 0 -141 -60.5t-39 -218.5t39 -218.5t141 -60.5t141 60.5t39 218.5t-39 218.5t-141 60.5zM334 703q152 0 212 -78.5t60 -279.5t-60 -279.5t-212 -78.5t-212.5 78.5t-60.5 279.5t60.5 279.5t212.5 78.5zM408 870h28q24 0 24 -24v-55q0 -24 -24 -24h-28 q-24 0 -24 24v55q0 24 24 24zM230 870h29q23 0 23 -24v-55q0 -24 -23 -24h-29q-23 0 -23 24v55q0 24 23 24z"/>
<glyph glyph-name="multiply" horiz-adv-x="484" unicode="×" d="M294 290l150 -135l-42 -51l-157 141l-157 -141l-42 51l150 135l-150 134l42 51l157 -141l157 141l42 -50z"/>
<glyph glyph-name="Oslash" horiz-adv-x="668" unicode="Ø" d="M334 66q102 0 141 60.5t39 218.5q0 173 -48 231l-229 -491q37 -19 97 -19zM154 345q0 -167 44 -226l228 488q-34 17 -92 17q-102 0 -141 -60.5t-39 -218.5zM539 731l-32 -69q53 -36 76 -112t23 -205q0 -201 -60 -279.5t-212 -78.5q-81 0 -134 20l-30 -65l-46 20l32 69 q-50 37 -72.5 112t-22.5 202q0 201 60.5 279.5t212.5 78.5q76 0 128 -18l31 65z"/>
<glyph glyph-name="Ugrave" horiz-adv-x="666" unicode="Ù" d="M584 690v-426q0 -151 -56 -214t-191 -63q-140 0 -197.5 63t-57.5 214v426h88v-426q0 -111 36 -154.5t127 -43.5q90 0 126.5 43.5t36.5 154.5v426h88zM384 767l-29 -39l-192 120l48 65z"/>
<glyph glyph-name="Uacute" horiz-adv-x="666" unicode="Ú" d="M584 690v-426q0 -151 -56 -214t-191 -63q-140 0 -197.5 63t-57.5 214v426h88v-426q0 -111 36 -154.5t127 -43.5q90 0 126.5 43.5t36.5 154.5v426h88zM490 848l-192 -120l-29 39l172 146z"/>
<glyph glyph-name="Ucircumflex" horiz-adv-x="666" unicode="Û" d="M584 690v-426q0 -151 -56 -214t-191 -63q-140 0 -197.5 63t-57.5 214v426h88v-426q0 -111 36 -154.5t127 -43.5q90 0 126.5 43.5t36.5 154.5v426h88zM497 770l-30 -37l-129 97h-8l-130 -97l-29 37l132 127h61z"/>
<glyph glyph-name="Udieresis" horiz-adv-x="666" unicode="Ü" d="M584 690v-426q0 -151 -56 -214t-191 -63q-140 0 -197.5 63t-57.5 214v426h88v-426q0 -111 36 -154.5t127 -43.5q90 0 126.5 43.5t36.5 154.5v426h88zM409 870h28q24 0 24 -24v-55q0 -24 -24 -24h-28q-24 0 -24 24v55q0 24 24 24zM231 870h29q23 0 23 -24v-55 q0 -24 -23 -24h-29q-23 0 -23 24v55q0 24 23 24z"/>
<glyph glyph-name="Yacute" horiz-adv-x="569" unicode="Ý" d="M328 242v-242h-88v244l-229 446h94l145 -291q12 -24 31 -78h7q16 44 31 77l145 292h93zM248 728l-29 39l172 146l49 -65z"/>
<glyph glyph-name="Thorn" horiz-adv-x="592" unicode="Þ" d="M175 207h148q77 1 105.5 29.5t28.5 112.5q0 85 -28.5 114t-105.5 29q-109 0 -148 -1v-284zM325 567q125 0 173 -45.5t48 -172.5t-46.5 -172.5t-165.5 -45.5q-73 0 -159 8v-139h-88v690h88v-125q41 2 150 2z"/>
<glyph glyph-name="germandbls" horiz-adv-x="675" unicode="ß" d="M446 302l104 -46q48 -22 68 -49.5t20 -80.5q0 -81 -41.5 -109t-135.5 -28q-82 0 -160 11l5 64q64 -5 139 -5q64 1 87 13.5t23 57.5q0 31 -14.5 45t-52.5 31l-106 47q-82 38 -82 112q0 16 2.5 29t10.5 24.5t13.5 18.5t20.5 17t21.5 14t27.5 15t27 15q37 21 50.5 39 t13.5 49q0 34 -30.5 49.5t-111.5 15.5q-84 0 -114 -23.5t-30 -93.5v-534h-85v419h-88v66l88 2v56q0 57 14.5 93.5t46 54.5t69 24t95.5 6q123 0 174.5 -29t51.5 -103q0 -43 -18 -72t-69 -59q-13 -8 -33.5 -18.5t-29 -16t-19 -14t-14 -18.5t-3.5 -24q0 -24 14.5 -36.5 t50.5 -28.5z"/>
<glyph glyph-name="agrave" horiz-adv-x="549" unicode="à" d="M213 64h3q39 0 86.5 19.5t87.5 55.5v97l-189 -1q-64 -3 -64 -67v-31q0 -38 18.5 -55.5t57.5 -17.5zM309 499q85 0 125.5 -35.5t40.5 -120.5v-343h-67l-10 81q-34 -35 -87.5 -62.5t-114.5 -27.5q-67 0 -106 35.5t-39 100.5v53q0 57 35.5 88.5t99.5 31.5h204v43 q-1 46 -22 65t-77 19q-71 0 -210 -13l-8 63q136 22 236 22zM290 548l-192 120l48 65l173 -146z"/>
<glyph glyph-name="aacute" horiz-adv-x="549" unicode="á" d="M213 64h3q39 0 86.5 19.5t87.5 55.5v97l-189 -1q-64 -3 -64 -67v-31q0 -38 18.5 -55.5t57.5 -17.5zM309 499q85 0 125.5 -35.5t40.5 -120.5v-343h-67l-10 81q-34 -35 -87.5 -62.5t-114.5 -27.5q-67 0 -106 35.5t-39 100.5v53q0 57 35.5 88.5t99.5 31.5h204v43 q-1 46 -22 65t-77 19q-71 0 -210 -13l-8 63q136 22 236 22zM233 548l-29 39l172 146l49 -65z"/>
<glyph glyph-name="acircumflex" horiz-adv-x="549" unicode="â" d="M213 64h3q39 0 86.5 19.5t87.5 55.5v97l-189 -1q-64 -3 -64 -67v-31q0 -38 18.5 -55.5t57.5 -17.5zM309 499q85 0 125.5 -35.5t40.5 -120.5v-343h-67l-10 81q-34 -35 -87.5 -62.5t-114.5 -27.5q-67 0 -106 35.5t-39 100.5v53q0 57 35.5 88.5t99.5 31.5h204v43 q-1 46 -22 65t-77 19q-71 0 -210 -13l-8 63q136 22 236 22zM135 553l-29 37l132 127h61l133 -127l-30 -37l-129 97h-8z"/>
<glyph glyph-name="atilde" horiz-adv-x="549" unicode="ã" d="M213 64h3q39 0 86.5 19.5t87.5 55.5v97l-189 -1q-64 -3 -64 -67v-31q0 -38 18.5 -55.5t57.5 -17.5zM309 499q85 0 125.5 -35.5t40.5 -120.5v-343h-67l-10 81q-34 -35 -87.5 -62.5t-114.5 -27.5q-67 0 -106 35.5t-39 100.5v53q0 57 35.5 88.5t99.5 31.5h204v43 q-1 46 -22 65t-77 19q-71 0 -210 -13l-8 63q136 22 236 22zM151 586h-40q-1 7 -1 21q0 45 20 69t52 24h7q32 -3 77 -27.5t72 -27.5q4 -1 12 -1q37 0 37 51h40q1 -7 1 -21q0 -43 -19.5 -67t-52.5 -24h-7q-37 3 -83.5 28.5t-67.5 28.5q-2 0 -5 0.5t-4 0.5q-38 0 -38 -55z"/>
<glyph glyph-name="adieresis" horiz-adv-x="549" unicode="ä" d="M213 64h3q39 0 86.5 19.5t87.5 55.5v97l-189 -1q-64 -3 -64 -67v-31q0 -38 18.5 -55.5t57.5 -17.5zM309 499q85 0 125.5 -35.5t40.5 -120.5v-343h-67l-10 81q-34 -35 -87.5 -62.5t-114.5 -27.5q-67 0 -106 35.5t-39 100.5v53q0 57 35.5 88.5t99.5 31.5h204v43 q-1 46 -22 65t-77 19q-71 0 -210 -13l-8 63q136 22 236 22zM372 587h-28q-24 0 -24 24v55q0 24 24 24h28q24 0 24 -24v-55q0 -24 -24 -24zM195 587h-29q-23 0 -23 24v55q0 24 23 24h29q23 0 23 -24v-55q0 -24 -23 -24z"/>
<glyph glyph-name="aring" horiz-adv-x="549" unicode="å" d="M213 64h3q39 0 86.5 19.5t87.5 55.5v97l-189 -1q-64 -3 -64 -67v-31q0 -38 18.5 -55.5t57.5 -17.5zM309 499q85 0 125.5 -35.5t40.5 -120.5v-343h-67l-10 81q-34 -35 -87.5 -62.5t-114.5 -27.5q-67 0 -106 35.5t-39 100.5v53q0 57 35.5 88.5t99.5 31.5h204v43 q-1 46 -22 65t-77 19q-71 0 -210 -13l-8 63q136 22 236 22zM269 701q-26 0 -42.5 -17t-16.5 -44q0 -28 17 -44.5t42 -16.5q26 0 43 16.5t17 44.5q0 27 -17 44t-43 17zM269 535q-45 0 -76 30t-31 75q0 44 31.5 74.5t75.5 30.5t75.5 -30.5t31.5 -74.5q0 -45 -31 -75t-76 -30z "/>
<glyph glyph-name="ae" horiz-adv-x="871" unicode="æ" d="M214 64h3q40 0 90 20.5t91 58.5q-9 41 -9 93l-188 -1q-34 -1 -48.5 -18t-14.5 -49v-31q0 -38 18 -55.5t58 -17.5zM616 427q-76 0 -106.5 -34t-32.5 -125h196q65 0 63 72q0 46 -27.5 66.5t-92.5 20.5zM632 60q83 0 170 12l8 -57q-64 -27 -189 -27q-84 0 -134 25t-74 81 q-33 -39 -91 -71t-125 -32t-106.5 35.5t-39.5 100.5v53q0 57 35.5 88.5t99.5 31.5h203v43q0 46 -21 65t-78 19q-72 0 -209 -13l-8 63q134 22 235 22q102 0 139 -50q50 50 165 50q109 0 159 -39.5t51 -119.5q0 -138 -127 -138h-216q6 -84 40 -113t113 -29z"/>
<glyph glyph-name="ccedilla" horiz-adv-x="489" unicode="ç" d="M226 -95l9 40q26 2 35 2q40 0 58 -14t18 -48q0 -59 -38 -93.5t-99 -34.5q-10 0 -30 2l13 45h5q39 0 63.5 20t24.5 52q0 16 -12 22t-47 7zM285 499q96 0 157 -23l-11 -55q-66 6 -131 6q-88 0 -122.5 -39t-34.5 -144q0 -106 34.5 -145t122.5 -39q80 0 143 10l8 -57 q-71 -25 -166 -25q-127 0 -179 57.5t-52 198.5q0 140 52.5 197.5t178.5 57.5z"/>
<glyph glyph-name="egrave" horiz-adv-x="537" unicode="è" d="M281 427q-76 0 -106.5 -34t-32.5 -125h207q52 0 52 67v5q0 47 -27 67t-93 20zM297 60q84 0 170 12l8 -57q-64 -27 -189 -27q-126 0 -179 58.5t-53 198.5q0 141 52 197.5t172 56.5q108 0 158 -39.5t51 -119.5q0 -138 -116 -138h-227q6 -84 40 -113t113 -29zM301 548 l-192 120l48 65l173 -146z"/>
<glyph glyph-name="eacute" horiz-adv-x="537" unicode="é" d="M281 427q-76 0 -106.5 -34t-32.5 -125h207q52 0 52 67v5q0 47 -27 67t-93 20zM297 60q84 0 170 12l8 -57q-64 -27 -189 -27q-126 0 -179 58.5t-53 198.5q0 141 52 197.5t172 56.5q108 0 158 -39.5t51 -119.5q0 -138 -116 -138h-227q6 -84 40 -113t113 -29zM244 548 l-29 39l172 146l49 -65z"/>
<glyph glyph-name="ecircumflex" horiz-adv-x="537" unicode="ê" d="M281 427q-76 0 -106.5 -34t-32.5 -125h207q52 0 52 67v5q0 47 -27 67t-93 20zM297 60q84 0 170 12l8 -57q-64 -27 -189 -27q-126 0 -179 58.5t-53 198.5q0 141 52 197.5t172 56.5q108 0 158 -39.5t51 -119.5q0 -138 -116 -138h-227q6 -84 40 -113t113 -29zM146 553 l-29 37l132 127h61l133 -127l-30 -37l-129 97h-8z"/>
<glyph glyph-name="edieresis" horiz-adv-x="537" unicode="ë" d="M281 427q-76 0 -106.5 -34t-32.5 -125h207q52 0 52 67v5q0 47 -27 67t-93 20zM297 60q84 0 170 12l8 -57q-64 -27 -189 -27q-126 0 -179 58.5t-53 198.5q0 141 52 197.5t172 56.5q108 0 158 -39.5t51 -119.5q0 -138 -116 -138h-227q6 -84 40 -113t113 -29zM382 587h-28 q-24 0 -24 24v55q0 24 24 24h28q24 0 24 -24v-55q0 -24 -24 -24zM205 587h-29q-23 0 -23 24v55q0 24 23 24h29q23 0 23 -24v-55q0 -24 -23 -24z"/>
<glyph glyph-name="igrave" horiz-adv-x="249" unicode="ì" d="M167 0h-85v487h85v-487zM175 587l-29 -39l-192 120l48 65z"/>
<glyph glyph-name="iacute" horiz-adv-x="249" unicode="í" d="M167 0h-85v487h85v-487zM281 668l-192 -120l-29 39l172 146z"/>
<glyph glyph-name="icircumflex" horiz-adv-x="249" unicode="î" d="M167 0h-85v487h85v-487zM288 590l-30 -37l-129 97h-8l-130 -97l-29 37l132 127h61z"/>
<glyph glyph-name="idieresis" horiz-adv-x="249" unicode="ï" d="M167 0h-85v487h85v-487zM200 690h28q24 0 24 -24v-55q0 -24 -24 -24h-28q-24 0 -24 24v55q0 24 24 24zM22 690h29q23 0 23 -24v-55q0 -24 -23 -24h-29q-23 0 -23 24v55q0 24 23 24z"/>
<glyph glyph-name="eth" horiz-adv-x="559" unicode="ð" d="M276 59q42 0 68.5 14t40 46t18 69.5t4.5 98.5q0 36 -3 66q-61 24 -131 24t-99 -39.5t-29 -118.5q0 -87 31 -123.5t100 -36.5zM443 673l-67 -51q119 -106 119 -339q0 -71 -9 -121.5t-32.5 -92t-68 -62t-110.5 -20.5q-113 0 -166.5 55.5t-53.5 176.5q0 114 47.5 171.5 t157.5 57.5q79 0 137 -36q-21 108 -80 164l-78 -60l-31 38l67 52q-55 30 -138 30h-18l10 62q4 0 12.5 0.5t12.5 0.5q104 0 181 -47l78 60z"/>
<glyph glyph-name="ntilde" horiz-adv-x="581" unicode="ñ" d="M374 499q132 0 132 -134v-365h-86v341q0 48 -15.5 67t-53.5 19q-40 0 -80 -17.5t-108 -58.5v-351h-85v487h72l6 -77q116 89 218 89zM179 586h-40q-1 7 -1 21q0 45 20 69t52 24h7q32 -3 77 -27.5t72 -27.5q4 -1 12 -1q37 0 37 51h40q1 -7 1 -21q0 -43 -19.5 -67t-52.5 -24 h-7q-37 3 -83.5 28.5t-67.5 28.5q-2 0 -5 0.5t-4 0.5q-38 0 -38 -55z"/>
<glyph glyph-name="ograve" horiz-adv-x="568" unicode="ò" d="M285 427q-81 0 -111 -39t-30 -145t30 -145t111 -39q80 0 110 39t30 145t-30 145t-110 39zM285 499q125 0 177 -58t52 -198t-52 -198t-177 -58q-126 0 -178 58t-52 198t52 198t178 58zM333 587l-29 -39l-192 120l48 65z"/>
<glyph glyph-name="oacute" horiz-adv-x="568" unicode="ó" d="M285 427q-81 0 -111 -39t-30 -145t30 -145t111 -39q80 0 110 39t30 145t-30 145t-110 39zM285 499q125 0 177 -58t52 -198t-52 -198t-177 -58q-126 0 -178 58t-52 198t52 198t178 58zM439 668l-192 -120l-29 39l172 146z"/>
<glyph glyph-name="ocircumflex" horiz-adv-x="568" unicode="ô" d="M285 427q-81 0 -111 -39t-30 -145t30 -145t111 -39q80 0 110 39t30 145t-30 145t-110 39zM285 499q125 0 177 -58t52 -198t-52 -198t-177 -58q-126 0 -178 58t-52 198t52 198t178 58zM446 590l-30 -37l-129 97h-8l-130 -97l-29 37l132 127h61z"/>
<glyph glyph-name="otilde" horiz-adv-x="568" unicode="õ" d="M285 427q-81 0 -111 -39t-30 -145t30 -145t111 -39q80 0 110 39t30 145t-30 145t-110 39zM285 499q125 0 177 -58t52 -198t-52 -198t-177 -58q-126 0 -178 58t-52 198t52 198t178 58zM203 700q32 -3 77 -27.5t72 -27.5q4 -1 12 -1q37 0 37 51h40q1 -7 1 -21 q0 -43 -19.5 -67t-52.5 -24h-7q-37 3 -83.5 28.5t-67.5 28.5q-1 0 -4 0.5t-5 0.5q-38 0 -38 -55h-40q-1 7 -1 21q0 45 20 69t52 24h7z"/>
<glyph glyph-name="odieresis" horiz-adv-x="568" unicode="ö" d="M285 427q-81 0 -111 -39t-30 -145t30 -145t111 -39q80 0 110 39t30 145t-30 145t-110 39zM285 499q125 0 177 -58t52 -198t-52 -198t-177 -58q-126 0 -178 58t-52 198t52 198t178 58zM358 690h28q24 0 24 -24v-55q0 -24 -24 -24h-28q-24 0 -24 24v55q0 24 24 24zM180 690 h29q23 0 23 -24v-55q0 -24 -23 -24h-29q-23 0 -23 24v55q0 24 23 24z"/>
<glyph glyph-name="divide" horiz-adv-x="571" unicode="÷" d="M273 176h22q17 0 24.5 -7t7.5 -25v-48q0 -18 -7.5 -25t-24.5 -7h-22q-18 0 -24.5 7t-6.5 25v48q0 18 6.5 25t24.5 7zM504 263h-438v64h438v-64zM273 525h22q17 0 24.5 -7.5t7.5 -24.5v-49q0 -17 -7.5 -24t-24.5 -7h-22q-18 0 -24.5 7t-6.5 24v49q0 18 6.5 25t24.5 7z"/>
<glyph glyph-name="oslash" horiz-adv-x="568" unicode="ø" d="M285 59q80 0 110 39t30 145q0 126 -45 160l-157 -337q24 -7 62 -7zM144 243q0 -120 41 -156l155 334q-22 6 -55 6q-81 0 -111 -39t-30 -145zM444 541l-30 -65q53 -24 76.5 -80.5t23.5 -152.5q0 -140 -52 -198t-177 -58q-57 0 -94 10l-34 -72l-39 19l32 68 q-50 26 -72.5 81.5t-22.5 149.5q0 140 52 198t178 58q49 0 88 -9l32 70z"/>
<glyph glyph-name="ugrave" d="M492 487v-487h-68l-7 70q-109 -83 -209 -83q-133 0 -133 134v366h85v-342q0 -46 17.5 -65t59.5 -19q37 0 75 16.5t95 53.5v356h85zM308 552l-192 120l48 65l173 -146z" unicode="ù"/>
<glyph glyph-name="uacute" d="M492 487v-487h-68l-7 70q-109 -83 -209 -83q-133 0 -133 134v366h85v-342q0 -46 17.5 -65t59.5 -19q37 0 75 16.5t95 53.5v356h85zM251 552l-29 39l172 146l49 -65z" unicode="ú"/>
<glyph glyph-name="ucircumflex" d="M492 487v-487h-68l-7 70q-109 -83 -209 -83q-133 0 -133 134v366h85v-342q0 -46 17.5 -65t59.5 -19q37 0 75 16.5t95 53.5v356h85zM153 556l-29 37l132 127h61l133 -127l-30 -37l-129 97h-8z" unicode="û"/>
<glyph glyph-name="udieresis" d="M492 487v-487h-68l-7 70q-109 -83 -209 -83q-133 0 -133 134v366h85v-342q0 -46 17.5 -65t59.5 -19q37 0 75 16.5t95 53.5v356h85zM390 591h-28q-24 0 -24 24v55q0 24 24 24h28q24 0 24 -24v-55q0 -24 -24 -24zM213 591h-29q-23 0 -23 24v55q0 24 23 24h29q23 0 23 -24 v-55q0 -24 -23 -24z" unicode="ü"/>
<glyph glyph-name="yacute" horiz-adv-x="529" unicode="ý" d="M510 487l-194 -514q-66 -172 -213 -179l-9 56q57 18 89.5 49.5t52.5 79.5l9 21h-20q-24 0 -30 22l-177 465h91l129 -363q11 -33 18 -59h15q4 10 10.5 30.5t9.5 28.5l128 363h91zM231 548l-29 39l172 146l49 -65z"/>
<glyph glyph-name="thorn" horiz-adv-x="574" unicode="þ" d="M312 58q65 0 91 39.5t26 143.5t-26 144.5t-88 40.5q-61 0 -152 -67v-265q89 -36 149 -36zM342 499q94 0 134.5 -61t40.5 -198q0 -139 -41.5 -196t-136.5 -57q-93 0 -178 44q2 -31 2 -91v-141h-85v901h85v-170q0 -67 -3 -101q86 70 182 70z"/>
<glyph glyph-name="OE" horiz-adv-x="913" unicode="Œ" d="M154 345q0 -158 39 -218.5t141 -60.5q69 0 120 16q-7 20 -7 47v432q0 24 8 48q-60 15 -121 15q-102 0 -141 -60t-39 -219zM859 73l3 -68q-92 -6 -296 -6q-38 0 -69 21q-75 -33 -163 -33q-152 0 -212.5 78.5t-60.5 279.5t60.5 279.5t212.5 78.5q90 0 168 -32q31 20 71 20 q199 0 289 -6l-3 -69h-257q-67 0 -67 -66v-149l284 -1v-71l-284 -1v-188q0 -35 16 -51t51 -16h257z"/>
<glyph glyph-name="oe" horiz-adv-x="907" unicode="œ" d="M645 427q-72 0 -101 -34.5t-31 -123.5h188q39 0 55 15.5t16 54.5v11q-4 77 -127 77zM284 59q75 0 106 34t35 124l-1 30v26q-4 88 -35 121t-105 33q-80 0 -110 -39t-30 -145t30 -145t110 -39zM669 60q82 0 168 12l8 -57q-64 -27 -189 -27q-135 0 -186 67q-51 -68 -186 -68 q-125 0 -177 58t-52 198t52 198t177 58q132 0 183 -65q49 65 176 65q213 0 215 -150q0 -81 -34.5 -112t-117.5 -31h-192q6 -86 40.5 -116t114.5 -30z"/>
<glyph glyph-name="Scaron" horiz-adv-x="561" unicode="Š" d="M279 702q122 -2 205 -20l-6 -64q-97 5 -195 5q-36 0 -54 -1t-38 -6.5t-28.5 -16.5t-14 -30.5t-5.5 -50.5q0 -55 20 -78t68 -35l139 -35q78 -19 109 -65t31 -129q0 -114 -51.5 -151t-179.5 -37q-109 0 -214 19l6 65q162 -5 182 -5h28q83 0 111.5 21t28.5 90 q0 57 -19.5 79.5t-67.5 34.5l-143 36q-73 18 -104.5 64.5t-31.5 127.5q0 60 12.5 96.5t43 55t68 24.5t100.5 6zM443 872l-143 -128h-40l-143 128l29 36l130 -87h8l129 87z"/>
<glyph glyph-name="scaron" horiz-adv-x="508" unicode="š" d="M240 499q118 -2 204 -15l-6 -62q-152 5 -185 5h-23q-58 0 -78 -11.5t-20 -50.5q0 -35 15.5 -48t56.5 -22l141 -32q60 -15 87 -44.5t27 -89.5q0 -85 -47 -112.5t-161 -27.5q-103 0 -191 14l6 62q78 -4 134 -4h33q85 0 114 13t29 55q0 33 -17.5 45.5t-58.5 22.5l-140 32 q-60 14 -85 45t-25 91q0 79 39.5 106.5t135.5 27.5h15zM422 692l-143 -128h-40l-143 128l29 36l130 -87h8l129 87z"/>
<glyph glyph-name="Ydieresis" horiz-adv-x="569" unicode="Ÿ" d="M328 242v-242h-88v244l-229 446h94l145 -291q12 -24 31 -78h7q16 44 31 77l145 292h93zM387 767h-28q-24 0 -24 24v55q0 24 24 24h28q24 0 24 -24v-55q0 -24 -24 -24zM210 767h-29q-23 0 -23 24v55q0 24 23 24h29q23 0 23 -24v-55q0 -24 -23 -24z"/>
<glyph glyph-name="circumflex" horiz-adv-x="420" unicode="ˆ" d="M374 586l-30 -37l-129 97h-8l-130 -97l-29 37l132 127h61z"/>
<glyph glyph-name="tilde" horiz-adv-x="420" unicode="˜" d="M130 699q32 -3 77 -27.5t72 -27.5q4 -1 12 -1q37 0 37 51h40q1 -7 1 -21q0 -43 -19.5 -67t-52.5 -24h-7q-37 3 -83.5 28.5t-67.5 28.5q-1 0 -4 0.5t-5 0.5q-38 0 -38 -55h-40q-1 7 -1 21q0 45 20 69t52 24h7z"/>
<glyph glyph-name="Delta" horiz-adv-x="626" unicode="Δ" d="M314 605q-20 -67 -24 -79l-164 -454h372l-162 455q-4 11 -22 78zM601 37v-37h-576v37l244 653h88z"/>
<glyph glyph-name="mu" horiz-adv-x="594" unicode="μ" d="M505 487v-487h-66l-8 76q-103 -89 -196 -89q-45 0 -80 19q6 -32 6 -66v-141h-75v688h85v-342q-1 -39 20 -58t64 -19q65 0 165 61v358h85z"/>
<glyph glyph-name="pi" horiz-adv-x="643" unicode="π" d="M615 418h-94v-418h-85v418h-230v-418h-84v418h-95v69h589z"/>
<glyph glyph-name="endash" horiz-adv-x="592" unicode="–" d="M520 220h-448v65h448v-65z"/>
<glyph glyph-name="emdash" horiz-adv-x="896" unicode="—" d="M824 220h-752v65h752v-65z"/>
<glyph glyph-name="quoteleft" horiz-adv-x="217" unicode="‘" d="M121 496h-25q-17 0 -24 7t-6 23l-1 60q1 77 35 144l40 -11q-10 -54 -10 -112q24 0 24 -26l-1 -55q-1 -30 -32 -30z"/>
<glyph glyph-name="quotesinglbase" horiz-adv-x="228" unicode="‚" d="M103 111h25q17 0 24 -6.5t6 -23.5l1 -59q-1 -77 -35 -144l-41 11q10 54 10 112q-24 0 -24 25l1 55q1 30 33 30z"/>
<glyph glyph-name="quotedblleft" horiz-adv-x="369" unicode="“" d="M273 496h-24q-17 0 -24 6.5t-7 23.5v60q1 79 34 144l41 -11q-10 -54 -10 -112q25 0 23 -26v-55q-1 -30 -33 -30zM121 496h-25q-17 0 -24 7t-6 23l-1 60q1 77 35 144l40 -11q-10 -54 -10 -112q24 0 24 -26l-1 -55q-1 -30 -32 -30z"/>
<glyph glyph-name="quotedblright" horiz-adv-x="367" unicode="”" d="M248 723h25q17 0 23.5 -6.5t6.5 -23.5v-60q-2 -80 -34 -143l-40 10q9 57 9 112q-23 0 -23 26v55q1 30 33 30zM95 723h25q17 0 24 -6.5t6 -23.5l1 -60q-1 -78 -35 -143l-40 10q10 54 10 112q-24 0 -24 26l1 55q1 30 32 30z"/>
<glyph glyph-name="dagger" horiz-adv-x="453" unicode="†" d="M411 487v-75l-131 10v65h131zM43 412v75h130v-65zM265 -110h-77l4 544v48l-4 209h77l-3 -209v-48z"/>
<glyph glyph-name="daggerdbl" horiz-adv-x="491" unicode="‡" d="M429 94h-130v65l130 10v-75zM192 159v-65h-131v75zM429 412l-130 10v65h130v-75zM192 422l-131 -10v75h131v-65zM280 485v-390l4 -205h-78l4 205v390l-4 206h78z"/>
<glyph glyph-name="ellipsis" horiz-adv-x="845" unicode="…" d="M714 118h28q17 0 24.5 -7t7.5 -25v-54q0 -18 -7.5 -25t-24.5 -7h-28q-18 0 -25 7t-7 25v54q0 18 7 25t25 7zM406 118h28q17 0 24 -7t7 -25v-54q0 -18 -7 -25t-24 -7h-28q-18 0 -25 7t-7 25v54q0 18 7 25t25 7zM97 118h29q17 0 24 -7t7 -25v-54q0 -18 -7 -25t-24 -7h-29 q-17 0 -24 7t-7 25v54q0 18 7 25t24 7z"/>
<glyph glyph-name="perthousand" horiz-adv-x="1267" unicode="‰" d="M1057 346q-54 0 -74 -32.5t-20 -117.5t20 -118.5t74 -33.5t74.5 33t20.5 119q0 85 -20.5 117.5t-74.5 32.5zM685 346q-53 0 -73.5 -31.5t-20.5 -111.5v-7v-7q0 -81 20.5 -113t73.5 -32q54 0 75 33.5t21 118.5q0 84 -21 117t-75 33zM1057 400q89 0 125 -47t36 -157 q0 -111 -36 -158t-125 -47q-88 0 -124 47t-36 158q0 110 36 157t124 47zM686 400q88 0 124 -47t36 -157q0 -111 -36 -158t-124 -47t-124 47t-36 158q0 110 36 157t124 47zM207 649q-54 0 -74.5 -33t-20.5 -118t20.5 -118t74.5 -33t74.5 33t20.5 118t-20.5 118t-74.5 33z M252 0h-60l447 690h60zM207 703q89 0 125 -47t36 -158t-36 -158t-125 -47q-88 0 -124 47t-36 158t36 158t124 47z"/>
<glyph glyph-name="guilsinglleft" horiz-adv-x="285" unicode="‹" d="M241 429l-126 -178l127 -182l-45 -30l-161 202v20l160 198z"/>
<glyph glyph-name="guilsinglright" horiz-adv-x="287" unicode="›" d="M249 261v-20l-162 -202l-44 30l127 182l-126 178l44 30z"/>
<glyph glyph-name="fraction" horiz-adv-x="160" unicode="⁄" d="M-113 0h-61l447 690h61z"/>
<glyph glyph-name="Euro" horiz-adv-x="639" unicode="€" d="M578 79l9 -68q-77 -23 -177 -23q-131 0 -195 67t-77 206h-85v53h82v31q0 32 1 47h-83v53h87q15 131 78.5 194t191.5 63q94 0 166 -20l-10 -68q-55 10 -123 10q-25 0 -38 -1q-78 -3 -119 -46t-54 -132h255l-7 -53h-253q-1 -15 -1 -48v-30h221l-7 -53h-210q11 -98 52 -145 t123 -49q5 0 15 -0.5t15 -0.5q75 0 143 13z"/>
<glyph glyph-name="trademark" horiz-adv-x="964" unicode="™" d="M890 316h-57l-16 333h-11l-92 -268q-6 -20 -26 -20h-47q-18 0 -25 20l-92 268h-12l-15 -333h-57l16 356q2 24 24 24h63q19 0 25 -20l76 -220q3 -10 8.5 -29.5t6.5 -23.5h11q3 9 8 27t8 27l75 219q6 20 24 20h66q22 0 24 -24zM391 696v-51h-131v-329h-62v329h-131v51h324z "/>
<glyph glyph-name="partialdiff" horiz-adv-x="572" unicode="∂" d="M268 64q43 0 72 18.5t45.5 56t24.5 78.5t13 102q-64 58 -143 58q-68 0 -103 -40t-38 -111v-13q0 -68 32 -108.5t97 -40.5zM131 638v65h20q99 0 162 -12.5t110.5 -46.5t68 -96t20.5 -158q0 -34 -1 -53q-9 -172 -64 -260.5t-180 -88.5q-58 0 -101 18.5t-66.5 50.5t-34.5 70 t-11 83v16q5 100 57.5 161.5t149.5 61.5h2q103 -2 163 -78q0 5 0.5 15t0.5 15q0 140 -62 188.5t-234 48.5z"/>
<glyph glyph-name="emptyset" horiz-adv-x="685" unicode="∅" d="M359 171h-39q-7 0 -7 -8v-37q0 -7 7 -7h39q8 0 8 7v37q0 8 -8 8zM343 545q-51 0 -122 -11l3 -45q60 9 119 9q66 0 66 -46q0 -21 -15 -44.5t-33.5 -42.5t-33.5 -52t-15 -72h54q0 35 14.5 64.5t32.5 46.5t32.5 43.5t14.5 56.5q0 93 -117 93zM343 633q121 0 206.5 -85.5 t85.5 -206.5t-85.5 -207t-206.5 -86t-207 86t-86 207t86 206.5t207 85.5z"/>
<glyph glyph-name="product" horiz-adv-x="722" unicode="∏" d="M683 618h-104v-721h-84v721h-268v-721h-84v721h-104v72h644v-72z"/>
<glyph glyph-name="summation" horiz-adv-x="590" unicode="∑" d="M528 618h-370l166 -270l-180 -386h394v-71h-489v71l180 386l-168 270v72h467v-72z"/>
<glyph glyph-name="minus" horiz-adv-x="585" unicode="−" d="M512 263h-438v64h438v-64z"/>
<glyph glyph-name="radical" horiz-adv-x="566" unicode="√" d="M542 876l-257 -868q-3 -8 -13 -8h-99q-11 0 -13 8l-126 479h72l110 -429h13l240 818h73z"/>
<glyph glyph-name="infinity" horiz-adv-x="780" unicode="∞" d="M559 228q41 0 64 20.5t23 60.5q0 74 -79 74q-31 0 -58 -13.5t-42 -27.5t-37 -40q58 -74 129 -74zM222 228q40 0 69.5 19t61.5 57q-33 40 -62.5 59.5t-74.5 19.5q-82 0 -82 -74q0 -81 88 -81zM583 446q59 0 98 -34.5t39 -100.5q0 -69 -42.5 -107.5t-107.5 -38.5 q-95 0 -178 93q-89 -93 -184 -93q-63 0 -105 38.5t-42 107.5q0 67 39.5 101t103.5 34q99 0 187 -97q92 97 192 97z"/>
<glyph glyph-name="approxequal" horiz-adv-x="587" unicode="≈" d="M173 256q35 -1 117.5 -29t119.5 -30h4q22 0 30.5 11.5t8.5 41.5h58q2 -20 2 -28q0 -89 -97 -89h-3q-39 1 -121 29.5t-115 29.5q-24 0 -33.5 -11.5t-9.5 -44.5h-57q-2 20 -2 28q0 92 93 92h5zM173 447q35 -1 117.5 -29t119.5 -29h4q22 0 30.5 10.5t8.5 42.5h58 q2 -20 2 -29q0 -89 -97 -89h-3q-39 1 -121 29.5t-115 29.5h-3q-22 0 -31 -12t-9 -44h-57q-2 20 -2 28q0 92 93 92h5z"/>
<glyph glyph-name="notequal" horiz-adv-x="616" unicode="≠" d="M362 367l-90 -148h261v-64h-300l-75 -123l-26 14l66 109h-104v64h143l90 148h-233v63h271l66 109l27 -14l-58 -95h133v-63h-171z"/>
<glyph glyph-name="lessequal" horiz-adv-x="567" unicode="≤" d="M497 79h-428v63h428v-63zM489 467l-335 -106l335 -97v-68l-410 131v68l410 140v-68z"/>
<glyph glyph-name="greaterequal" horiz-adv-x="567" unicode="≥" d="M498 79h-428v63h428v-63zM488 395v-68l-409 -131v68l334 97l-334 106v68z"/>
<glyph glyph-name="lozenge" horiz-adv-x="576" unicode="◊" d="M106 346l183 -263l182 263l-182 261zM297 692l243 -338q3 -4 3 -8t-3 -8l-243 -340q-3 -4 -8 -4t-8 4l-245 340q-3 4 -3 8t3 8l245 338q3 4 8 4t8 -4z"/>
</font>
</defs>
</svg>
